<?xml version="1.0" encoding="UTF-8" standalone="no"?>
<!DOCTYPE svg PUBLIC "-//W3C//DTD SVG 1.1//EN" "http://www.w3.org/Graphics/SVG/1.1/DTD/svg11.dtd">
<svg xmlns="http://www.w3.org/2000/svg" version="1.1" viewBox="0.00 0.00 1024.00 1024.00">
<path fill="#201f26" d="
  M 1024.00 0.00
  L 1024.00 1024.00
  L 0.00 1024.00
  L 0.00 0.00
  L 1024.00 0.00
  Z"
/>
<g stroke-width="2.00" fill="none" stroke-linecap="butt">
<path stroke="#dddcde" vector-effect="non-scaling-stroke" d="
  M 879.64 624.44
  Q 878.00 622.90 874.29 621.78
  Q 829.90 608.38 802.07 600.90
  Q 696.39 572.47 587.26 563.88
  Q 586.67 563.83 586.20 564.13"
/>
<path stroke="#dddcde" vector-effect="non-scaling-stroke" d="
  M 440.64 563.35
  Q 415.05 565.49 389.73 568.23
  Q 357.15 571.75 325.27 577.34
  Q 285.21 584.36 224.76 599.80
  Q 219.29 601.19 204.54 605.63
  Q 201.01 606.69 184.29 611.35
  C 174.38 614.11 162.68 618.05 152.14 621.37
  Q 148.37 622.56 146.60 624.16"
/>
<path stroke="#dddcde" vector-effect="non-scaling-stroke" d="
  M 591.77 615.82
  Q 586.43 615.36 581.50 615.97
  Q 568.47 617.59 556.39 619.60
  C 549.81 620.70 544.61 622.51 538.05 623.73
  A 1.66 1.42 22.8 0 0 537.80 623.81
  L 529.70 627.59
  A 0.41 0.41 0.0 0 1 529.12 627.29
  Q 529.09 627.13 529.11 626.96"
/>
<path stroke="#8f8e92" vector-effect="non-scaling-stroke" d="
  M 529.11 626.96
  Q 541.94 620.90 554.20 613.70
  C 561.41 609.47 568.29 604.84 572.77 598.23
  A 0.09 0.09 0.0 0 0 572.65 598.11
  Q 561.87 605.20 550.26 611.13"
/>
<path stroke="#dddcde" vector-effect="non-scaling-stroke" d="
  M 550.26 611.13
  Q 550.11 609.62 549.00 609.99
  Q 518.19 620.11 494.96 626.43
  C 473.02 632.41 450.91 636.38 428.46 636.51
  C 425.39 636.53 421.97 635.84 418.63 635.72"
/>
<path stroke="#dddcde" vector-effect="non-scaling-stroke" d="
  M 466.87 622.83
  Q 466.40 622.42 465.10 623.27
  Q 464.07 623.95 463.39 624.15
  Q 454.97 626.65 445.83 627.90
  A 0.30 0.30 0.0 0 0 445.83 628.49
  Q 451.19 629.31 456.25 628.99
  Q 467.29 628.28 476.18 626.19
  Q 486.74 623.70 494.83 618.86
  Q 508.53 610.67 516.43 597.36
  A 1.46 1.46 0.0 0 0 516.01 595.42
  L 511.58 592.33
  A 0.21 0.21 0.0 0 0 511.25 592.50
  L 511.25 594.42
  A 0.65 0.34 54.5 0 0 511.27 594.57
  Q 512.65 599.36 509.84 602.07"
/>
<path stroke="#6f6e73" vector-effect="non-scaling-stroke" d="
  M 529.11 626.96
  Q 505.92 638.11 481.37 645.85
  C 478.37 646.80 473.60 648.44 470.25 648.24
  Q 468.26 648.12 465.05 647.44
  Q 455.57 645.43 442.37 641.77
  A 0.22 0.22 0.0 0 1 442.22 641.51
  L 442.24 641.42
  A 0.18 0.17 12.7 0 1 442.44 641.30
  Q 451.47 643.19 457.32 644.40
  Q 464.50 645.88 469.60 645.29
  Q 473.47 644.84 481.26 641.58
  Q 488.21 638.67 512.79 629.03
  Q 526.78 623.54 550.26 611.13"
/>
<path stroke="#dddcde" vector-effect="non-scaling-stroke" d="
  M 489.44 613.14
  Q 491.11 612.11 491.65 609.06
  A 0.24 0.24 0.0 0 1 492.06 608.95
  Q 493.77 610.92 495.27 610.90"
/>
<path stroke="#dddcde" vector-effect="non-scaling-stroke" d="
  M 499.61 599.28
  Q 499.40 598.88 499.99 598.65
  Q 501.44 598.09 502.60 599.67
  Q 504.40 602.14 507.07 602.42"
/>
<path stroke="#dddcde" vector-effect="non-scaling-stroke" d="
  M 409.43 612.84
  Q 399.81 610.42 389.75 610.70
  Q 371.35 611.22 362.77 611.85
  Q 314.69 615.40 272.05 621.38
  C 264.73 622.41 256.71 623.95 251.36 625.22
  A 1.19 0.99 4.2 0 0 250.61 625.76
  Q 250.49 626.00 249.77 625.89
  Q 249.28 625.82 249.17 625.92
  A 0.21 0.21 0.0 0 0 249.27 626.29
  Q 250.47 626.50 251.71 626.30"
/>
<path stroke="#dddcde" vector-effect="non-scaling-stroke" d="
  M 779.35 626.95
  Q 765.44 623.18 744.75 620.49
  Q 693.17 613.77 653.25 611.58
  Q 638.88 610.79 624.50 611.42
  Q 619.77 611.62 615.89 613.62"
/>
<path stroke="#dddcde" vector-effect="non-scaling-stroke" d="
  M 603.02 625.23
  Q 602.25 625.08 602.00 625.17
  Q 578.70 633.86 562.75 637.99
  Q 528.11 646.96 493.00 653.87
  A 0.42 0.42 0.0 0 1 492.68 653.12
  L 493.19 652.76"
/>
<path stroke="#dddcde" vector-effect="non-scaling-stroke" d="
  M 692.54 630.67
  Q 681.16 629.34 669.75 630.54
  Q 646.04 633.03 622.71 637.82"
/>
<path stroke="#dddcde" vector-effect="non-scaling-stroke" d="
  M 402.72 638.33
  Q 376.05 633.10 357.31 630.86
  Q 346.22 629.53 331.49 630.48"
/>
</g>
<path fill="#201f26" d="
  M 529.11 626.96
  Q 505.92 638.11 481.37 645.85
  C 478.37 646.80 473.60 648.44 470.25 648.24
  Q 468.26 648.12 465.05 647.44
  Q 455.57 645.43 442.37 641.77
  A 0.22 0.22 0.0 0 1 442.22 641.51
  L 442.24 641.42
  A 0.18 0.17 12.7 0 1 442.44 641.30
  Q 451.47 643.19 457.32 644.40
  Q 464.50 645.88 469.60 645.29
  Q 473.47 644.84 481.26 641.58
  Q 488.21 638.67 512.79 629.03
  Q 526.78 623.54 550.26 611.13
  Q 561.87 605.20 572.65 598.11
  A 0.09 0.09 0.0 0 1 572.77 598.23
  C 568.29 604.84 561.41 609.47 554.20 613.70
  Q 541.94 620.90 529.11 626.96
  Z"
/>
<g fill="#fdfcfd">
<path d="
  M 329.41 365.33
  L 423.66 365.33
  A 2.38 2.36 66.7 0 1 425.30 365.99
  L 440.69 380.59
  A 0.95 0.94 22.2 0 1 440.98 381.27
  L 440.98 446.06
  A 0.85 0.85 0.0 0 1 440.72 446.67
  L 421.16 464.77
  A 0.67 0.67 0.0 0 0 420.97 465.47
  L 441.80 530.11
  A 0.62 0.62 0.0 0 1 441.26 530.92
  L 417.24 533.17
  A 1.07 1.06 -11.0 0 1 416.12 532.42
  L 396.29 467.71
  A 0.87 0.86 72.4 0 0 395.20 467.14
  L 390.38 468.69
  A 0.97 0.97 0.0 0 0 389.71 469.61
  L 389.71 535.88
  A 0.70 0.69 85.7 0 1 389.12 536.57
  L 365.59 540.07
  A 0.40 0.39 -3.8 0 1 365.14 539.68
  L 365.14 380.52
  A 0.78 0.78 0.0 0 0 364.64 379.79
  L 329.33 365.79
  A 0.24 0.24 0.0 0 1 329.41 365.33
  Z"
/>
<path d="
  M 441.25 365.15
  L 505.21 365.15
  A 0.45 0.44 -5.5 0 1 505.65 365.51
  L 536.42 528.25
  A 0.33 0.33 0.0 0 1 536.09 528.64
  L 513.37 528.64
  A 0.65 0.64 -5.3 0 1 512.73 528.12
  L 507.23 499.01
  A 0.44 0.43 73.7 0 0 506.64 498.68
  L 480.25 509.19
  A 2.07 2.06 -5.0 0 0 479.00 510.67
  L 475.08 528.68
  A 0.85 0.85 0.0 0 1 474.29 529.35
  L 451.82 530.17
  A 0.11 0.11 0.0 0 1 451.71 530.04
  L 480.34 381.70
  A 0.91 0.90 16.5 0 0 479.78 380.68
  L 441.21 365.39
  A 0.13 0.12 55.1 0 1 441.25 365.15
  Z"
/>
<path d="
  M 574.32 530.44
  L 551.09 529.02
  A 0.56 0.56 0.0 0 1 550.56 528.46
  L 550.56 388.87
  A 0.56 0.56 0.0 0 0 550.00 388.31
  L 524.20 388.31
  A 0.56 0.56 0.0 0 1 523.64 387.75
  L 523.64 365.61
  A 0.56 0.56 0.0 0 1 524.20 365.05
  L 600.06 365.05
  A 0.56 0.56 0.0 0 1 600.62 365.61
  L 600.62 387.80
  A 0.56 0.56 0.0 0 1 600.06 388.36
  L 575.47 388.36
  A 0.56 0.56 0.0 0 0 574.91 388.92
  L 574.91 529.88
  A 0.56 0.56 0.0 0 1 574.32 530.44
  Z"
/>
<path d="
  M 636.92 469.25
  L 636.92 535.98
  A 0.70 0.70 0.0 0 1 636.14 536.67
  L 612.83 534.05
  A 0.70 0.70 0.0 0 1 612.21 533.35
  L 612.21 365.79
  A 0.70 0.70 0.0 0 1 612.91 365.09
  L 671.04 365.09
  A 0.70 0.70 0.0 0 1 671.52 365.28
  L 687.76 380.69
  A 0.70 0.70 0.0 0 1 687.98 381.20
  L 687.98 448.03
  A 0.70 0.70 0.0 0 1 687.76 448.55
  L 669.11 465.80
  A 0.70 0.70 0.0 0 0 668.91 466.50
  L 689.59 543.93
  A 0.70 0.70 0.0 0 1 688.80 544.80
  L 663.86 540.69
  A 0.70 0.70 0.0 0 1 663.29 540.18
  L 643.82 467.29
  A 0.70 0.70 0.0 0 0 642.93 466.81
  L 637.41 468.58
  A 0.70 0.70 0.0 0 0 636.92 469.25
  Z"
/>
<path d="
  M 227.12 459.09
  A 0.12 0.12 0.0 0 0 226.88 459.07
  Q 224.36 472.98 222.82 480.32
  Q 213.29 525.59 199.95 583.97
  A 1.58 1.58 0.0 0 1 199.00 585.09
  L 193.71 587.19
  A 0.47 0.46 -16.8 0 1 193.08 586.86
  L 168.84 472.75
  A 0.42 0.42 0.0 0 0 168.01 472.84
  L 168.01 594.64
  A 0.91 0.90 -11.1 0 1 167.44 595.48
  L 144.34 604.68
  A 0.32 0.32 0.0 0 1 143.90 604.39
  L 143.90 379.72
  A 1.03 1.01 -77.9 0 0 143.31 378.79
  L 114.64 365.63
  A 0.16 0.16 0.0 0 1 114.71 365.33
  L 167.09 365.33
  A 0.76 0.76 0.0 0 1 167.83 365.93
  L 196.14 499.21
  A 0.34 0.34 0.0 0 0 196.81 499.21
  L 225.85 365.76
  A 0.65 0.63 -83.8 0 1 226.47 365.25
  L 250.94 365.25
  A 0.66 0.65 -90.0 0 1 251.59 365.91
  L 251.59 566.29
  A 0.86 0.86 0.0 0 1 250.99 567.11
  L 227.79 574.59
  A 0.51 0.51 0.0 0 1 227.12 574.10
  L 227.12 459.09
  Z"
/>
<path d="
  M 258.49 365.30
  L 319.64 365.30
  A 0.84 0.83 -4.9 0 1 320.47 365.99
  Q 330.90 424.24 337.81 462.83
  Q 344.42 499.82 352.58 540.94
  A 1.27 1.27 0.0 0 1 351.57 542.44
  L 328.73 546.76
  A 0.58 0.57 80.3 0 1 328.06 546.28
  L 323.36 514.70
  A 0.41 0.40 72.8 0 0 322.78 514.39
  L 292.80 529.47
  A 0.92 0.90 81.4 0 0 292.30 530.16
  L 288.40 555.98
  A 1.21 1.20 -3.8 0 1 287.52 556.97
  L 262.97 563.53
  A 0.41 0.40 87.8 0 1 262.47 563.06
  L 295.22 381.75
  A 0.62 0.61 -73.6 0 0 294.85 381.07
  L 258.42 365.62
  A 0.17 0.17 0.0 0 1 258.49 365.30
  Z"
/>
<path d="
  M 783.25 380.80
  A 1.92 1.85 -69.0 0 1 783.83 382.17
  L 783.83 547.80
  A 0.87 0.86 -19.7 0 1 783.51 548.47
  L 767.98 560.91
  A 1.41 1.38 -66.4 0 1 767.26 561.20
  Q 765.79 561.35 762.03 560.50
  Q 733.61 554.08 720.74 551.46
  A 0.94 0.88 73.4 0 1 720.26 551.18
  L 705.49 534.89
  A 0.49 0.48 23.7 0 1 705.36 534.56
  L 705.36 380.98
  A 1.36 1.35 68.7 0 1 705.79 379.99
  L 721.21 365.73
  A 1.42 1.40 -66.5 0 1 722.18 365.34
  L 766.38 365.34
  A 1.45 1.45 0.0 0 1 767.38 365.74
  L 783.25 380.80
  Z"
/>
<path d="
  M 857.07 494.09
  A 0.21 0.20 -53.0 0 0 857.47 494.03
  L 857.47 365.77
  A 0.52 0.51 0.0 0 1 857.99 365.26
  L 880.86 365.26
  A 0.69 0.68 0.0 0 1 881.55 365.94
  L 881.55 603.37
  A 0.33 0.32 -78.2 0 1 881.10 603.67
  L 861.62 595.42
  A 0.88 0.88 0.0 0 1 861.13 594.85
  L 828.60 473.07
  A 0.36 0.36 0.0 0 0 827.90 473.10
  Q 827.50 475.23 827.51 478.00
  Q 827.63 537.80 827.60 581.39
  A 0.61 0.61 0.0 0 1 826.80 581.97
  L 803.70 574.03
  A 1.33 1.32 9.6 0 1 802.81 572.78
  L 802.81 378.15
  A 0.74 0.74 0.0 0 0 802.49 377.54
  L 785.44 365.64
  A 0.15 0.15 0.0 0 1 785.53 365.37
  L 821.62 365.37
  A 1.40 1.39 82.3 0 1 822.96 366.40
  L 857.07 494.09
  Z"
/>
<path d="
  M 908.9092 372.8450
  A 8.53 8.28 -4.0 0 1 900.9776 381.6998
  A 8.53 8.28 -4.0 0 1 891.8908 374.0350
  A 8.53 8.28 -4.0 0 1 899.8224 365.1802
  A 8.53 8.28 -4.0 0 1 908.9092 372.8450
  Z"
/>
<path d="
  M 879.64 624.44
  Q 878.00 622.90 874.29 621.78
  Q 829.90 608.38 802.07 600.90
  Q 696.39 572.47 587.26 563.88
  Q 586.67 563.83 586.20 564.13
  Q 585.88 563.89 584.99 563.81
  Q 511.67 557.73 440.64 563.35
  Q 415.05 565.49 389.73 568.23
  Q 357.15 571.75 325.27 577.34
  Q 285.21 584.36 224.76 599.80
  Q 219.29 601.19 204.54 605.63
  Q 201.01 606.69 184.29 611.35
  C 174.38 614.11 162.68 618.05 152.14 621.37
  Q 148.37 622.56 146.60 624.16
  Q 133.95 627.65 121.13 631.87
  A 1.41 1.37 7.9 0 1 121.58 631.54
  Q 189.99 602.60 256.42 584.00
  Q 308.84 569.31 360.24 560.26
  C 415.24 550.56 470.01 544.89 525.25 545.92
  Q 594.29 547.21 661.56 560.19
  C 694.75 566.59 736.66 575.02 773.62 585.66
  Q 825.97 600.73 875.83 619.98
  C 885.55 623.73 896.57 628.81 906.85 632.96
  A 0.09 0.05 -69.1 0 1 906.87 633.06
  Q 906.86 633.07 906.86 633.08
  A 0.04 0.03 21.1 0 1 906.82 633.09
  L 879.64 624.44
  Z"
/>
<path d="
  M 591.77 615.82
  Q 586.43 615.36 581.50 615.97
  Q 568.47 617.59 556.39 619.60
  C 549.81 620.70 544.61 622.51 538.05 623.73
  A 1.66 1.42 22.8 0 0 537.80 623.81
  L 529.70 627.59
  A 0.41 0.41 0.0 0 1 529.12 627.29
  Q 529.09 627.13 529.11 626.96
  Q 541.94 620.90 554.20 613.70
  C 561.41 609.47 568.29 604.84 572.77 598.23
  A 0.09 0.09 0.0 0 0 572.65 598.11
  Q 561.87 605.20 550.26 611.13
  Q 550.11 609.62 549.00 609.99
  Q 518.19 620.11 494.96 626.43
  C 473.02 632.41 450.91 636.38 428.46 636.51
  C 425.39 636.53 421.97 635.84 418.63 635.72
  Q 418.35 634.87 418.47 634.21
  A 0.82 0.81 -2.3 0 1 419.08 633.56
  Q 436.87 629.19 448.44 626.53
  C 455.52 624.89 460.89 622.86 466.72 620.25
  A 0.32 0.32 0.0 0 1 467.16 620.59
  L 466.87 622.83
  Q 466.40 622.42 465.10 623.27
  Q 464.07 623.95 463.39 624.15
  Q 454.97 626.65 445.83 627.90
  A 0.30 0.30 0.0 0 0 445.83 628.49
  Q 451.19 629.31 456.25 628.99
  Q 467.29 628.28 476.18 626.19
  Q 486.74 623.70 494.83 618.86
  Q 508.53 610.67 516.43 597.36
  A 1.46 1.46 0.0 0 0 516.01 595.42
  L 511.58 592.33
  A 0.21 0.21 0.0 0 0 511.25 592.50
  L 511.25 594.42
  A 0.65 0.34 54.5 0 0 511.27 594.57
  Q 512.65 599.36 509.84 602.07
  Q 511.81 595.90 508.72 590.91
  A 0.34 0.34 0.0 0 0 508.09 591.08
  L 507.93 598.09
  A 0.82 0.82 0.0 0 1 506.55 598.68
  Q 504.25 596.55 502.41 592.77
  A 0.83 0.81 47.1 0 1 502.43 591.99
  L 505.67 586.38
  A 0.56 0.56 0.0 0 1 506.41 586.17
  Q 508.10 587.08 509.35 588.46
  Q 515.55 595.34 523.42 598.39
  C 536.74 603.56 550.13 606.42 562.23 599.44
  C 569.03 595.51 569.31 589.00 567.89 581.81
  Q 567.88 581.73 567.88 581.62
  C 567.39 588.89 567.66 596.07 559.32 598.30
  C 555.69 599.27 551.86 598.78 547.78 598.72
  Q 528.44 598.40 512.33 586.99
  Q 512.32 586.98 511.47 586.66
  Q 510.88 586.44 510.70 586.36
  A 0.65 0.65 0.0 0 1 510.48 585.32
  L 521.46 573.76
  A 1.19 1.19 0.0 0 1 523.49 574.36
  C 524.46 579.63 523.27 584.44 522.00 591.24
  A 0.78 0.77 18.3 0 0 522.43 592.08
  Q 529.44 595.42 537.74 596.42
  C 552.45 598.20 563.86 588.85 567.43 574.74
  A 0.51 0.51 0.0 0 1 568.13 574.40
  Q 571.41 575.80 573.93 578.34
  C 578.27 582.73 583.19 589.35 586.56 594.91
  Q 592.82 605.23 597.90 613.83
  A 0.57 0.56 -20.9 0 1 597.52 614.67
  L 591.77 615.82
  Z"
/>
<path d="
  M 409.43 612.84
  Q 399.81 610.42 389.75 610.70
  Q 371.35 611.22 362.77 611.85
  Q 314.69 615.40 272.05 621.38
  C 264.73 622.41 256.71 623.95 251.36 625.22
  A 1.19 0.99 4.2 0 0 250.61 625.76
  Q 250.49 626.00 249.77 625.89
  Q 249.28 625.82 249.17 625.92
  A 0.21 0.21 0.0 0 0 249.27 626.29
  Q 250.47 626.50 251.71 626.30
  L 217.15 631.19
  A 3.03 2.27 34.8 0 1 216.57 631.21
  Q 215.55 631.16 214.56 631.14
  Q 214.60 631.09 214.66 631.11
  A 0.34 0.06 18.6 0 0 214.87 631.14
  Q 273.23 616.61 333.79 606.34
  C 364.76 601.09 396.74 597.84 426.92 593.93
  A 0.19 0.19 0.0 0 1 427.06 594.27
  Q 422.91 597.29 421.56 598.56
  Q 414.06 605.56 409.43 612.84
  Z"
/>
<path d="
  M 779.35 626.95
  Q 765.44 623.18 744.75 620.49
  Q 693.17 613.77 653.25 611.58
  Q 638.88 610.79 624.50 611.42
  Q 619.77 611.62 615.89 613.62
  Q 611.13 606.63 604.86 600.14
  Q 601.64 596.80 597.43 594.34
  A 0.16 0.16 0.0 0 1 597.53 594.05
  Q 601.94 594.62 622.92 597.13
  Q 675.72 603.44 712.35 609.97
  C 743.69 615.55 776.86 622.70 812.44 631.86
  Q 812.50 631.87 812.63 631.87
  L 812.62 631.87
  Q 795.91 629.45 779.35 626.95
  Z"
/>
<path d="
  M 507.07 602.42
  Q 504.40 602.14 502.60 599.67
  Q 501.44 598.09 499.99 598.65
  Q 499.40 598.88 499.61 599.28
  Q 499.30 599.41 499.07 599.64
  Q 498.99 599.73 498.84 600.23
  Q 498.09 602.76 497.67 606.94
  A 1.11 1.11 0.0 0 1 495.57 607.33
  L 493.92 604.05
  A 4.12 4.11 45.8 0 1 493.97 600.24
  Q 495.56 597.26 498.44 595.50
  A 0.76 0.76 0.0 0 1 499.34 595.58
  L 507.07 602.42
  Z"
/>
<path d="
  M 485.28 616.48
  A 0.50 0.50 0.0 0 1 484.37 616.52
  L 482.13 612.06
  A 1.05 1.04 -36.8 0 1 482.31 610.86
  L 488.73 604.09
  A 0.90 0.90 0.0 0 1 490.23 604.42
  Q 490.52 605.29 490.17 605.91
  Q 487.91 609.88 485.28 616.48
  Z"
/>
<path d="
  M 495.27 610.90
  Q 493.77 610.92 492.06 608.95
  A 0.24 0.24 0.0 0 0 491.65 609.06
  Q 491.11 612.11 489.44 613.14
  L 490.51 606.62
  A 0.47 0.47 0.0 0 1 491.33 606.39
  L 495.27 610.90
  Z"
/>
<path d="
  M 477.10 610.70
  A 0.71 0.71 0.0 0 1 478.26 611.38
  C 477.57 614.51 475.00 619.92 471.80 622.10
  A 0.75 0.75 0.0 0 1 470.64 621.66
  C 470.28 620.22 470.15 618.36 471.17 617.05
  Q 473.82 613.62 477.10 610.70
  Z"
/>
<path d="
  M 603.02 625.23
  Q 602.25 625.08 602.00 625.17
  Q 578.70 633.86 562.75 637.99
  Q 528.11 646.96 493.00 653.87
  A 0.42 0.42 0.0 0 1 492.68 653.12
  L 493.19 652.76
  Q 534.66 641.99 574.95 627.21
  Q 586.68 622.90 598.69 617.00
  A 0.88 0.87 64.3 0 1 599.87 617.42
  Q 601.92 621.79 603.22 624.50
  Q 603.52 625.13 603.02 625.23
  Z"
/>
<path d="
  M 692.54 630.67
  Q 681.16 629.34 669.75 630.54
  Q 646.04 633.03 622.71 637.82
  L 625.36 625.86
  A 0.55 0.55 0.0 0 1 625.92 625.43
  Q 666.72 626.66 706.61 628.88
  Q 699.60 629.97 692.54 630.67
  Z"
/>
<path d="
  M 402.72 638.33
  Q 376.05 633.10 357.31 630.86
  Q 346.22 629.53 331.49 630.48
  Q 325.35 629.45 318.56 628.89
  Q 318.47 628.88 318.37 628.88
  L 318.38 628.88
  Q 322.91 628.37 325.50 628.25
  Q 361.41 626.55 399.19 625.56
  A 0.57 0.56 82.3 0 1 399.75 625.99
  L 402.72 638.33
  Z"
/>
</g>
<g fill="#bdbcbf">
<path d="
  M 440.64 563.35
  Q 434.21 568.19 427.86 572.35
  Q 425.72 573.75 424.26 573.85
  Q 407.17 575.06 390.13 576.90
  Q 303.85 586.23 217.05 605.93
  Q 181.72 613.95 146.60 624.16
  Q 148.37 622.56 152.14 621.37
  C 162.68 618.05 174.38 614.11 184.29 611.35
  Q 201.01 606.69 204.54 605.63
  Q 219.29 601.19 224.76 599.80
  Q 285.21 584.36 325.27 577.34
  Q 357.15 571.75 389.73 568.23
  Q 415.05 565.49 440.64 563.35
  Z"
/>
<path d="
  M 879.64 624.44
  Q 866.15 621.06 852.84 617.43
  Q 834.55 612.44 826.09 610.40
  Q 726.68 586.39 625.74 576.10
  Q 613.72 574.88 601.16 574.00
  A 3.58 3.52 64.2 0 1 599.37 573.36
  L 586.20 564.13
  Q 586.67 563.83 587.26 563.88
  Q 696.39 572.47 802.07 600.90
  Q 829.90 608.38 874.29 621.78
  Q 878.00 622.90 879.64 624.44
  Z"
/>
<path d="
  M 466.87 622.83
  Q 470.58 626.50 475.12 622.02
  A 3.31 3.31 0.0 0 0 475.81 621.01
  L 478.70 614.17
  A 0.33 0.33 0.0 0 1 479.27 614.12
  C 481.24 617.01 483.62 622.45 487.92 619.28
  A 1.34 1.32 -13.5 0 0 488.45 618.43
  L 489.44 613.14
  Q 491.11 612.11 491.65 609.06
  A 0.24 0.24 0.0 0 1 492.06 608.95
  Q 493.77 610.92 495.27 610.90
  C 501.14 614.49 500.39 603.85 500.27 601.01
  Q 500.22 599.52 499.61 599.28
  Q 499.40 598.88 499.99 598.65
  Q 501.44 598.09 502.60 599.67
  Q 504.40 602.14 507.07 602.42
  Q 508.95 603.19 509.84 602.07
  Q 512.65 599.36 511.27 594.57
  A 0.65 0.34 54.5 0 1 511.25 594.42
  L 511.25 592.50
  A 0.21 0.21 0.0 0 1 511.58 592.33
  L 516.01 595.42
  A 1.46 1.46 0.0 0 1 516.43 597.36
  Q 508.53 610.67 494.83 618.86
  Q 486.74 623.70 476.18 626.19
  Q 467.29 628.28 456.25 628.99
  Q 451.19 629.31 445.83 628.49
  A 0.30 0.30 0.0 0 1 445.83 627.90
  Q 454.97 626.65 463.39 624.15
  Q 464.07 623.95 465.10 623.27
  Q 466.40 622.42 466.87 622.83
  Z"
/>
<path d="
  M 550.26 611.13
  Q 526.78 623.54 512.79 629.03
  Q 488.21 638.67 481.26 641.58
  Q 473.47 644.84 469.60 645.29
  Q 464.50 645.88 457.32 644.40
  Q 451.47 643.19 442.44 641.30
  A 0.18 0.17 12.7 0 0 442.24 641.42
  L 442.22 641.51
  A 0.22 0.22 0.0 0 0 442.37 641.77
  Q 455.57 645.43 465.05 647.44
  Q 468.26 648.12 470.25 648.24
  C 473.60 648.44 478.37 646.80 481.37 645.85
  Q 505.92 638.11 529.11 626.96
  Q 529.09 627.13 529.12 627.29
  A 0.41 0.41 0.0 0 0 529.70 627.59
  L 537.80 623.81
  A 1.66 1.42 22.8 0 1 538.05 623.73
  C 544.61 622.51 549.81 620.70 556.39 619.60
  Q 568.47 617.59 581.50 615.97
  Q 586.43 615.36 591.77 615.82
  Q 587.59 617.84 583.50 619.07
  Q 542.32 631.43 498.62 643.85
  Q 486.81 647.21 472.78 650.51
  Q 459.64 653.60 455.27 653.93
  Q 450.92 654.26 445.71 653.07
  Q 434.29 650.47 423.52 646.06
  Q 421.27 645.13 420.34 644.54
  A 1.23 1.21 -78.1 0 1 419.79 643.68
  L 418.63 635.72
  C 421.97 635.84 425.39 636.53 428.46 636.51
  C 450.91 636.38 473.02 632.41 494.96 626.43
  Q 518.19 620.11 549.00 609.99
  Q 550.11 609.62 550.26 611.13
  Z"
/>
<path d="
  M 409.43 612.84
  Q 408.25 615.66 406.97 616.60
  A 1.44 1.43 -63.0 0 1 406.12 616.88
  C 355.53 616.54 301.67 620.29 251.71 626.30
  Q 250.47 626.50 249.27 626.29
  A 0.21 0.21 0.0 0 1 249.17 625.92
  Q 249.28 625.82 249.77 625.89
  Q 250.49 626.00 250.61 625.76
  A 1.19 0.99 4.2 0 1 251.36 625.22
  C 256.71 623.95 264.73 622.41 272.05 621.38
  Q 314.69 615.40 362.77 611.85
  Q 371.35 611.22 389.75 610.70
  Q 399.81 610.42 409.43 612.84
  Z"
/>
<path d="
  M 779.35 626.95
  Q 775.73 626.99 772.24 626.51
  C 744.47 622.70 717.07 620.65 691.37 618.82
  Q 659.64 616.56 624.50 617.05
  Q 621.24 617.10 618.68 616.84
  A 1.45 1.41 69.3 0 1 617.83 616.44
  Q 616.75 615.41 615.89 613.62
  Q 619.77 611.62 624.50 611.42
  Q 638.88 610.79 653.25 611.58
  Q 693.17 613.77 744.75 620.49
  Q 765.44 623.18 779.35 626.95
  Z"
/>
<path d="
  M 603.02 625.23
  L 585.62 646.90
  A 1.60 1.57 16.0 0 1 584.55 647.48
  Q 506.83 655.33 484.75 657.47
  Q 464.79 659.41 451.30 661.43
  A 3.63 3.60 53.9 0 1 449.18 661.09
  L 420.46 646.85
  A 0.26 0.25 13.0 0 1 420.31 646.62
  L 420.31 646.29
  A 0.28 0.28 0.0 0 1 420.72 646.04
  Q 428.25 649.86 447.24 657.28
  Q 453.08 659.56 458.52 658.90
  Q 475.99 656.80 493.19 652.76
  L 492.68 653.12
  A 0.42 0.42 0.0 0 0 493.00 653.87
  Q 528.11 646.96 562.75 637.99
  Q 578.70 633.86 602.00 625.17
  Q 602.25 625.08 603.02 625.23
  Z"
/>
<path d="
  M 402.72 638.33
  L 404.00 643.67
  A 0.32 0.32 0.0 0 1 403.61 644.06
  Q 368.08 635.96 331.49 630.48
  Q 346.22 629.53 357.31 630.86
  Q 376.05 633.10 402.72 638.33
  Z"
/>
<path d="
  M 692.54 630.67
  Q 657.09 635.79 621.63 643.79
  A 0.43 0.43 0.0 0 1 621.12 643.25
  L 622.71 637.82
  Q 646.04 633.03 669.75 630.54
  Q 681.16 629.34 692.54 630.67
  Z"
/>
</g>
<g fill="#201f26">
<path d="
  M 907.59 373.42
  A 7.18 7.18 0.0 0 1 900.41 380.60
  A 7.18 7.18 0.0 0 1 893.23 373.42
  A 7.18 7.18 0.0 0 1 900.41 366.24
  A 7.18 7.18 0.0 0 1 907.59 373.42
  Z"
/>
<path d="
  M 389.52 389.41
  Q 389.64 389.42 407.37 389.41
  Q 410.95 389.41 412.07 390.04
  Q 414.24 391.25 416.03 392.65
  A 1.07 1.07 0.0 0 1 416.45 393.50
  L 416.64 433.23
  A 0.97 0.96 79.2 0 1 416.02 434.15
  L 389.67 444.66
  A 0.35 0.34 -10.5 0 1 389.20 444.34
  L 388.99 389.88
  A 0.47 0.47 0.0 0 1 389.52 389.41
  Z"
/>
<path d="
  M 636.88 390.04
  Q 644.04 390.35 655.50 390.31
  C 659.34 390.30 660.79 391.35 663.13 393.40
  A 1.51 1.50 -69.6 0 1 663.65 394.54
  L 663.65 435.01
  A 0.59 0.59 0.0 0 1 663.28 435.56
  L 636.93 446.06
  A 0.27 0.27 0.0 0 1 636.56 445.81
  L 636.56 390.35
  A 0.31 0.31 0.0 0 1 636.88 390.04
  Z"
/>
<path d="
  M 730.72 526.15
  L 730.08 394.85
  A 0.34 0.34 0.0 0 1 730.21 394.59
  L 734.91 390.83
  A 0.34 0.34 0.0 0 1 735.13 390.75
  L 754.54 391.19
  A 0.34 0.34 0.0 0 1 754.77 391.28
  L 759.00 395.30
  A 0.34 0.34 0.0 0 1 759.11 395.55
  L 759.11 531.50
  A 0.34 0.34 0.0 0 1 758.71 531.83
  L 730.99 526.48
  A 0.34 0.34 0.0 0 1 730.72 526.15
  Z"
/>
<path d="
  M 494.47 415.84
  A 0.12 0.12 0.0 0 1 494.69 415.88
  L 504.01 478.54
  A 0.33 0.32 -16.0 0 1 503.81 478.89
  L 483.30 487.06
  A 0.25 0.25 0.0 0 1 482.96 486.78
  Q 488.49 455.34 494.17 416.88
  Q 494.27 416.18 494.47 415.84
  Z"
/>
<path d="
  M 309.00 423.33
  A 0.12 0.12 0.0 0 1 309.24 423.33
  L 319.81 494.41
  A 1.34 1.33 -16.7 0 1 319.04 495.82
  L 297.01 505.95
  A 0.31 0.30 -8.1 0 1 296.58 505.63
  L 309.00 423.33
  Z"
/>
</g>
<g fill="#bdbcbf">
<path d="
  M 482.03 454.78
  A 0.57 0.56 5.4 0 1 482.59 455.45
  L 475.35 495.55
  A 0.52 0.52 0.0 0 0 475.77 496.15
  L 476.53 496.29
  A 0.36 0.31 -48.6 0 0 476.69 496.27
  L 510.32 482.94
  A 1.11 1.11 0.0 0 0 511.00 481.68
  L 505.96 456.33
  A 1.78 1.78 0.0 0 1 507.91 454.21
  L 515.24 455.03
  A 1.24 1.24 0.0 0 1 516.32 456.02
  L 529.42 521.90
  A 0.84 0.84 0.0 0 1 528.60 522.90
  L 519.49 522.90
  A 1.93 1.93 0.0 0 1 517.60 521.35
  L 511.59 491.15
  A 0.83 0.83 0.0 0 0 510.47 490.54
  L 474.66 504.81
  A 1.31 1.31 0.0 0 0 473.86 505.79
  L 470.79 522.80
  A 1.26 1.26 0.0 0 1 469.60 523.83
  L 459.70 524.19
  A 0.94 0.94 0.0 0 1 458.75 523.06
  Q 466.20 488.82 471.98 455.42
  A 0.78 0.78 0.0 0 1 472.75 454.78
  L 482.03 454.78
  Z"
/>
<rect x="-6.45" y="-34.81" transform="translate(562.81,489.31) rotate(0.1)" width="12.90" height="69.62" rx="1.20"/>
<path d="
  M 631.61 464.47
  L 631.61 530.01
  A 0.33 0.33 0.0 0 1 631.24 530.34
  L 618.15 528.87
  A 0.33 0.33 0.0 0 1 617.86 528.54
  L 617.86 456.59
  A 0.33 0.33 0.0 0 1 618.20 456.26
  L 648.26 456.93
  A 0.33 0.33 0.0 0 1 648.37 457.57
  L 631.82 464.17
  A 0.33 0.33 0.0 0 0 631.61 464.47
  Z"
/>
<path d="
  M 419.09 457.18
  Q 419.01 457.49 418.75 457.75
  Q 415.50 460.85 408.81 466.49
  A 0.51 0.51 0.0 0 0 409.14 467.39
  L 414.55 467.39
  A 1.34 1.33 -9.0 0 1 415.82 468.31
  L 434.05 524.89
  A 0.93 0.93 0.0 0 1 433.26 526.10
  L 421.11 527.23
  A 1.03 1.03 0.0 0 1 420.03 526.51
  L 401.18 465.00
  A 1.28 1.27 70.9 0 1 401.93 463.44
  L 418.64 456.78
  A 0.34 0.34 0.0 0 1 419.09 457.18
  Z"
/>
<path d="
  M 383.79 465.01
  L 383.79 531.47
  A 0.34 0.34 0.0 0 1 383.50 531.80
  L 370.95 533.66
  A 0.34 0.34 0.0 0 1 370.56 533.33
  L 370.56 459.52
  A 0.34 0.34 0.0 0 1 370.88 459.18
  L 399.98 457.17
  A 0.34 0.34 0.0 0 1 400.14 457.82
  L 384.00 464.70
  A 0.34 0.34 0.0 0 0 383.79 465.01
  Z"
/>
<path d="
  M 666.06 458.66
  A 0.26 0.26 0.0 0 1 666.28 459.11
  L 655.85 467.46
  A 0.57 0.57 0.0 0 0 656.17 468.48
  L 662.33 468.85
  A 0.99 0.99 0.0 0 1 663.20 469.50
  Q 664.60 473.36 665.00 474.76
  Q 667.31 482.77 679.43 527.29
  C 680.24 530.27 681.32 533.08 682.49 536.51
  A 0.79 0.78 -5.2 0 1 681.63 537.54
  L 670.08 535.79
  A 2.41 2.41 0.0 0 1 668.16 534.18
  C 666.53 529.31 664.17 521.93 662.73 516.63
  Q 654.15 485.01 648.53 465.85
  A 0.81 0.81 0.0 0 1 648.95 464.90
  Q 657.27 460.85 666.06 458.66
  Z"
/>
<path d="
  M 764.61 538.00
  L 764.26 465.16
  A 0.57 0.56 2.7 0 1 764.89 464.59
  L 776.90 465.94
  A 1.33 1.33 0.0 0 1 778.08 467.26
  L 778.46 544.20
  A 1.94 1.93 70.5 0 1 777.75 545.70
  L 766.93 554.36
  A 2.90 2.87 -58.4 0 1 764.55 554.94
  Q 759.35 553.90 723.97 546.31
  Q 722.72 546.04 721.15 544.07
  Q 716.92 538.78 712.05 534.17
  A 2.37 2.37 0.0 0 1 711.31 532.45
  L 710.96 460.90
  A 0.75 0.75 0.0 0 1 711.79 460.15
  L 723.88 461.51
  A 0.68 0.67 3.3 0 1 724.48 462.18
  L 724.82 530.35
  A 1.46 1.45 5.2 0 0 726.02 531.78
  L 763.88 538.62
  A 0.62 0.62 0.0 0 0 764.61 538.00
  Z"
/>
<path d="
  M 270.63 555.69
  A 0.75 0.74 -2.5 0 1 269.70 554.84
  L 285.44 467.69
  A 0.82 0.82 0.0 0 1 286.22 467.02
  L 296.04 466.66
  A 0.54 0.53 -86.9 0 1 296.59 467.28
  L 288.77 514.71
  A 0.49 0.49 0.0 0 0 289.44 515.24
  L 325.98 499.65
  A 0.79 0.79 0.0 0 0 326.45 498.81
  L 321.42 464.98
  A 0.86 0.85 84.9 0 1 322.23 464.00
  L 331.41 463.66
  A 0.75 0.75 0.0 0 1 332.17 464.27
  L 345.79 536.31
  A 1.58 1.58 0.0 0 1 344.47 538.17
  L 333.84 539.75
  A 1.22 1.22 0.0 0 1 332.45 538.72
  L 327.66 506.47
  A 0.55 0.55 0.0 0 0 326.91 506.04
  C 313.57 511.33 301.02 518.31 288.21 524.83
  A 1.83 1.83 0.0 0 0 287.23 526.17
  L 283.04 551.58
  A 1.31 1.30 -3.2 0 1 282.08 552.64
  L 270.63 555.69
  Z"
/>
<path d="
  M 232.77 566.24
  Q 232.38 562.49 232.40 557.01
  Q 232.67 484.43 232.62 467.07
  A 0.53 0.52 90.0 0 1 233.14 466.54
  L 245.39 466.48
  A 0.52 0.51 0.0 0 1 245.91 466.99
  L 246.37 561.46
  A 1.82 1.80 81.5 0 1 245.09 563.21
  L 233.54 566.75
  A 0.60 0.59 -11.2 0 1 232.77 566.24
  Z"
/>
<path d="
  M 196.93 524.09
  L 208.71 469.95
  A 1.51 1.51 0.0 0 1 210.12 468.77
  L 218.83 468.46
  A 0.62 0.62 0.0 0 1 219.46 469.21
  L 196.63 574.13
  A 0.40 0.40 0.0 0 1 195.85 574.13
  L 174.31 472.75
  A 0.62 0.61 -7.1 0 1 174.89 472.01
  L 184.13 471.67
  A 1.08 1.07 -6.6 0 1 185.22 472.53
  L 196.18 524.09
  A 0.38 0.38 0.0 0 0 196.93 524.09
  Z"
/>
<path d="
  M 808.85 469.91
  L 821.41 471.80
  A 0.81 0.80 4.7 0 1 822.09 472.59
  L 822.09 573.66
  A 0.59 0.59 0.0 0 1 821.31 574.22
  L 809.65 570.22
  A 2.19 2.19 0.0 0 1 808.18 568.15
  L 808.18 470.49
  A 0.59 0.58 -85.8 0 1 808.85 469.91
  Z"
/>
<path d="
  M 149.95 475.19
  L 161.58 473.46
  A 0.67 0.67 0.0 0 1 162.35 474.13
  L 162.35 590.94
  A 0.67 0.67 0.0 0 1 161.93 591.56
  L 150.30 596.19
  A 0.67 0.67 0.0 0 1 149.38 595.57
  L 149.38 475.86
  A 0.67 0.67 0.0 0 1 149.95 475.19
  Z"
/>
<path d="
  M 862.30 527.32
  A 0.15 0.15 0.0 0 0 862.57 527.24
  L 862.57 479.21
  A 0.43 0.43 0.0 0 1 863.07 478.78
  L 874.87 480.73
  A 1.22 1.22 0.0 0 1 875.89 481.93
  L 875.89 594.37
  A 0.58 0.58 0.0 0 1 875.09 594.91
  L 866.79 591.63
  A 1.95 1.92 -86.8 0 1 865.64 590.32
  L 834.91 475.29
  A 0.59 0.58 -3.2 0 1 835.57 474.56
  L 846.53 476.37
  A 0.94 0.93 0.8 0 1 847.31 477.17
  C 848.32 484.50 851.74 492.76 853.87 500.38
  Q 856.78 510.78 861.62 525.89
  Q 861.90 526.76 862.30 527.32
  Z"
/>
<path d="
  M 519.07 579.77
  A 0.38 0.38 0.0 0 1 519.71 580.05
  Q 519.73 583.59 521.46 586.20
  A 1.11 1.10 -58.8 0 1 521.64 586.95
  L 521.22 590.73
  A 0.57 0.57 0.0 0 1 520.37 591.16
  L 512.69 586.73
  A 0.50 0.50 0.0 0 1 512.78 585.83
  Q 515.14 585.03 517.21 583.00
  C 518.05 582.17 518.20 580.57 519.07 579.77
  Z"
/>
</g>
<path fill="#fdfcfd" d="
  M 902.50 374.86
  L 903.74 377.32
  A 0.48 0.48 0.0 0 1 903.35 378.01
  L 902.98 378.03
  A 0.91 0.91 0.0 0 1 902.03 377.38
  Q 901.60 375.96 900.25 374.62
  A 1.08 1.07 20.5 0 0 898.42 375.45
  L 898.57 377.67
  A 0.41 0.41 0.0 0 1 898.02 378.08
  L 897.72 377.96
  A 0.72 0.72 0.0 0 1 897.27 377.34
  L 896.79 370.45
  A 1.35 1.35 0.0 0 1 897.95 369.03
  Q 900.78 368.63 902.03 368.88
  A 1.32 1.29 77.2 0 1 902.82 369.39
  Q 904.84 372.10 902.65 374.06
  A 0.67 0.67 0.0 0 0 902.50 374.86
  Z"
/>
<rect fill="#201f26" x="-1.60" y="-1.47" transform="translate(900.24,371.74) rotate(5.6)" width="3.20" height="2.94" rx="0.97"/>
</svg>
