<?xml version="1.0" encoding="UTF-8" standalone="no"?>
<!DOCTYPE svg PUBLIC "-//W3C//DTD SVG 1.1//EN" "http://www.w3.org/Graphics/SVG/1.1/DTD/svg11.dtd">
<svg xmlns="http://www.w3.org/2000/svg" version="1.1" viewBox="0.00 0.00 1024.00 1024.00">
<path fill="#171727" d="
  M 1024.00 0.00
  L 1024.00 1024.00
  L 0.00 1024.00
  L 0.00 0.00
  L 1024.00 0.00
  Z"
/>
<g stroke-width="2.00" fill="none" stroke-linecap="butt">
<path stroke="#40aee1" vector-effect="non-scaling-stroke" d="
  M 625.79 324.31
  Q 622.49 325.72 618.10 324.20
  Q 595.02 316.23 594.32 316.01
  A 7.48 7.31 69.6 0 1 592.44 315.12
  C 590.29 313.70 587.64 311.36 585.03 310.03
  Q 579.08 306.98 571.27 304.99
  A 1.14 1.14 0.0 0 0 570.18 305.29
  C 568.87 306.60 568.34 307.26 566.37 308.21
  Q 549.55 316.28 535.59 330.62"
/>
<path stroke="#40aee1" vector-effect="non-scaling-stroke" d="
  M 693.39 336.57
  Q 693.25 336.50 693.14 336.41
  A 0.41 0.41 0.0 0 0 692.68 336.35
  Q 687.41 339.06 681.93 343.93
  Q 679.45 346.14 676.04 351.45
  Q 671.63 358.30 664.26 364.88
  C 660.13 368.56 657.93 370.70 653.39 371.82
  A 0.41 0.41 0.0 0 0 653.45 372.63
  Q 661.10 373.42 669.39 372.46
  A 0.24 0.24 0.0 0 1 669.61 372.85
  C 666.71 376.50 666.37 382.01 665.76 387.12
  A 6.03 5.98 66.3 0 1 664.69 389.90
  C 662.06 393.57 658.50 399.70 655.71 400.52
  Q 651.41 401.78 646.74 400.89
  A 0.21 0.20 -28.3 0 0 646.62 401.28
  C 649.11 402.30 651.66 402.70 654.54 402.55
  Q 667.81 401.89 672.09 401.61
  A 0.24 0.24 0.0 0 1 672.26 402.04
  Q 671.62 402.54 669.97 403.14
  C 667.71 403.97 665.45 406.23 663.04 408.27
  A 2.25 2.19 -67.1 0 1 661.86 408.77
  C 656.74 409.30 652.32 408.50 646.47 407.51
  C 643.68 407.03 641.44 407.12 638.83 408.22
  A 1.63 1.63 0.0 0 1 636.82 407.57
  L 633.84 402.72
  A 0.52 0.52 0.0 0 0 632.88 402.98
  L 632.70 410.22
  A 0.54 0.54 0.0 0 1 631.65 410.41
  L 630.01 406.28
  A 0.45 0.45 0.0 0 0 629.31 406.10
  L 629.05 406.31"
/>
<path stroke="#40aee1" vector-effect="non-scaling-stroke" d="
  M 640.97 355.90
  Q 629.82 346.03 618.43 336.84
  Q 610.82 330.70 601.31 327.34"
/>
<path stroke="#40aee1" vector-effect="non-scaling-stroke" d="
  M 607.32 340.50
  Q 606.55 340.85 605.94 340.35
  Q 595.83 332.11 587.11 328.04
  C 582.62 325.95 579.16 323.26 575.11 320.91
  C 572.88 319.62 571.53 319.52 570.26 321.98
  C 568.09 326.16 565.58 330.47 561.07 333.55
  C 551.51 340.09 542.06 346.40 533.29 354.27
  Q 527.21 359.73 519.26 366.51
  Q 517.16 368.30 514.67 371.42
  Q 507.07 380.93 501.97 388.26
  A 1.11 1.11 0.0 0 0 502.84 390.00
  Q 513.12 390.36 523.03 388.10
  Q 524.19 387.83 524.72 386.79"
/>
<path stroke="#40aee1" vector-effect="non-scaling-stroke" d="
  M 624.79 315.48
  Q 628.91 314.22 632.17 315.84
  Q 650.70 325.09 657.45 344.58
  A 0.23 0.22 -43.3 0 0 657.87 344.59
  C 660.53 338.06 659.24 329.65 656.25 323.55
  A 0.13 0.12 -28.9 0 1 656.30 323.39
  L 656.51 323.26
  A 0.45 0.45 0.0 0 1 657.12 323.39
  Q 664.50 334.40 669.60 346.69"
/>
<path stroke="#40aee1" vector-effect="non-scaling-stroke" d="
  M 697.71 319.04
  Q 697.81 318.92 697.86 318.79
  A 0.32 0.31 23.9 0 0 697.70 318.40
  L 696.09 317.55
  A 2.73 2.56 81.3 0 1 695.30 316.93
  L 689.96 310.72
  A 2.31 2.29 66.2 0 0 687.95 309.93
  L 682.22 310.55"
/>
<path stroke="#40aee1" vector-effect="non-scaling-stroke" d="
  M 680.10 309.79
  Q 678.37 307.40 679.13 303.59"
/>
<path stroke="#40aee1" vector-effect="non-scaling-stroke" d="
  M 694.84 335.90
  Q 695.54 335.60 695.69 335.74
  Q 696.25 336.20 696.34 336.92
  C 697.33 344.67 700.97 350.92 705.10 356.46
  A 0.16 0.16 0.0 0 0 705.39 356.35
  C 705.19 353.55 705.20 351.96 705.86 347.90
  C 706.38 344.74 708.56 340.77 708.74 337.41
  A 0.49 0.48 -76.8 0 1 709.41 336.99
  L 714.38 339.10
  A 1.46 1.44 -48.2 0 0 715.65 339.02
  L 720.66 336.13
  A 1.18 1.17 -22.0 0 0 721.21 334.85
  L 718.44 322.90
  A 7.59 7.50 -71.5 0 0 716.91 319.79
  C 713.73 315.93 710.72 311.79 709.98 307.07
  A 1.22 1.20 -4.7 0 0 708.77 306.06
  Q 695.34 306.18 682.51 302.12"
/>
<path stroke="#40aee1" vector-effect="non-scaling-stroke" d="
  M 755.82 389.68
  Q 756.46 391.73 756.17 395.74
  C 755.57 403.90 753.93 422.14 748.53 425.59
  Q 742.02 429.74 735.32 433.37
  A 0.33 0.33 0.0 0 1 734.89 432.90
  L 739.01 426.76
  A 0.08 0.08 0.0 0 0 738.93 426.64
  L 706.07 436.07
  A 0.89 0.88 66.3 0 1 705.08 435.68
  L 691.34 413.28
  A 0.41 0.41 0.0 0 0 690.69 413.22
  L 686.95 417.45
  A 0.57 0.57 0.0 0 1 685.96 417.03
  Q 686.42 411.28 689.83 405.78
  A 0.51 0.51 0.0 0 1 690.66 405.74
  Q 691.42 406.70 691.99 406.49
  A 0.56 0.53 84.8 0 0 692.33 406.06
  Q 693.49 398.36 692.81 390.26"
/>
<path stroke="#40aee1" vector-effect="non-scaling-stroke" d="
  M 708.08 448.63
  Q 703.98 449.37 700.24 449.88
  C 696.93 450.33 694.26 448.15 692.07 445.98
  Q 685.20 439.22 678.57 431.16
  Q 678.51 431.09 677.93 429.33
  A 0.37 0.36 -13.5 0 1 678.23 428.85
  Q 678.41 428.83 678.57 428.96
  A 0.35 0.34 32.8 0 0 679.10 428.85
  Q 679.20 428.64 679.22 428.35"
/>
<path stroke="#40aee1" vector-effect="non-scaling-stroke" d="
  M 616.54 377.62
  Q 615.04 399.68 615.28 421.50
  Q 615.32 424.74 614.57 425.87
  C 611.29 430.85 597.98 426.89 592.92 425.80
  A 0.21 0.21 0.0 0 0 592.72 426.14
  L 602.73 437.52"
/>
<path stroke="#067ebd" vector-effect="non-scaling-stroke" d="
  M 602.73 437.52
  Q 602.08 437.42 602.00 437.86"
/>
<path stroke="#40aee1" vector-effect="non-scaling-stroke" d="
  M 602.00 437.86
  Q 595.14 436.44 588.29 435.96
  Q 583.00 435.59 579.22 434.33
  A 1.20 1.20 0.0 0 1 578.44 432.90
  Q 581.15 422.23 587.98 413.45
  Q 591.84 408.48 594.87 402.61"
/>
<path stroke="#459fcb" vector-effect="non-scaling-stroke" d="
  M 602.00 437.86
  Q 595.63 438.00 589.75 438.06
  Q 587.55 438.08 584.66 438.52
  C 581.64 438.99 581.88 441.44 581.20 443.63
  Q 578.10 453.68 580.09 464.92
  Q 581.15 470.93 584.84 475.52"
/>
<path stroke="#4b738b" vector-effect="non-scaling-stroke" d="
  M 584.84 475.52
  Q 573.77 465.27 567.48 451.78
  Q 564.77 445.96 564.86 442.28
  C 565.04 435.17 569.02 429.34 573.93 424.13
  A 0.22 0.22 0.0 0 0 573.93 423.83
  L 573.92 423.82
  A 0.23 0.22 -40.3 0 0 573.61 423.80
  Q 566.16 429.78 561.04 438.28
  Q 554.62 448.93 560.68 459.52
  C 567.25 471.01 577.75 480.34 589.18 486.86
  C 599.25 492.60 605.59 496.07 614.48 497.57
  Q 625.84 499.48 631.80 500.84"
/>
<path stroke="#40aee1" vector-effect="non-scaling-stroke" d="
  M 631.80 500.84
  Q 631.53 501.42 631.21 501.57"
/>
<path stroke="#40aee1" vector-effect="non-scaling-stroke" d="
  M 616.58 547.63
  Q 617.80 546.45 619.55 545.77
  Q 622.66 544.56 622.82 544.48
  C 635.22 538.21 647.08 535.45 662.64 532.14
  Q 664.75 531.69 667.14 531.64
  A 0.25 0.25 0.0 0 0 667.23 531.16
  L 649.16 523.50
  A 0.24 0.24 0.0 0 1 649.29 523.05
  C 651.86 523.48 654.33 524.44 657.19 524.96
  Q 672.97 527.82 683.23 529.21
  A 3.63 3.63 0.0 0 0 686.09 528.36
  L 697.06 518.94
  A 1.26 1.26 0.0 0 0 697.34 517.38
  Q 695.19 513.44 692.08 509.92
  C 682.07 498.56 669.63 489.10 657.41 480.88
  Q 654.94 479.22 647.49 476.64
  C 642.46 474.89 639.82 473.70 635.07 470.92
  Q 630.98 468.53 630.10 465.16"
/>
<path stroke="#459fcb" vector-effect="non-scaling-stroke" d="
  M 630.10 465.16
  Q 637.53 467.93 645.21 469.76
  Q 647.38 470.28 654.09 474.48
  A 0.27 0.27 0.0 0 0 654.45 474.41
  L 654.46 474.40
  A 0.29 0.29 0.0 0 0 654.39 473.99
  C 650.91 471.47 648.75 469.55 644.79 467.12
  Q 635.48 461.41 623.56 454.45
  Q 613.66 448.68 602.73 437.52"
/>
<path stroke="#067ebd" vector-effect="non-scaling-stroke" d="
  M 630.10 465.16
  Q 618.70 458.28 606.93 451.57
  Q 597.50 446.19 586.51 447.04
  A 0.96 0.96 0.0 0 0 585.81 448.56
  Q 588.13 451.73 592.08 456.33
  C 598.76 464.13 605.84 469.65 615.18 474.83
  C 626.44 481.08 640.57 482.43 651.77 489.05
  Q 654.85 490.87 659.49 495.84
  C 662.79 499.38 664.62 501.64 665.67 506.31
  Q 666.17 508.55 667.27 511.78
  A 0.50 0.50 0.0 0 1 666.39 512.24
  Q 664.21 509.17 660.71 507.07
  Q 658.29 505.62 656.97 504.27"
/>
<path stroke="#40aee1" vector-effect="non-scaling-stroke" d="
  M 576.79 567.82
  Q 561.16 575.14 545.83 582.63
  C 544.55 583.26 543.89 584.01 542.91 584.50
  A 0.28 0.28 0.0 0 1 542.52 584.16
  Q 549.33 564.49 557.17 545.25
  Q 557.29 544.95 557.01 544.40"
/>
<path stroke="#114367" vector-effect="non-scaling-stroke" d="
  M 584.84 475.52
  Q 589.57 479.90 597.82 486.18
  C 602.64 489.84 606.50 491.22 612.80 491.61
  C 619.12 492.00 627.18 492.69 633.28 494.74
  C 639.80 496.93 646.99 499.76 654.75 502.31
  Q 657.18 503.11 656.97 504.27"
/>
<path stroke="#0c527d" vector-effect="non-scaling-stroke" d="
  M 656.97 504.27
  Q 654.39 503.29 651.75 503.15
  Q 642.35 502.68 631.80 500.84"
/>
<path stroke="#067ebd" vector-effect="non-scaling-stroke" d="
  M 424.12 435.53
  L 423.88 435.82
  A 0.37 0.36 38.8 0 0 423.94 436.33
  Q 424.10 436.47 424.17 436.68"
/>
<path stroke="#40aee1" vector-effect="non-scaling-stroke" d="
  M 486.44 573.43
  Q 485.27 569.77 485.41 566.12
  A 0.47 0.47 0.0 0 0 484.70 565.70
  C 479.16 569.09 473.70 572.08 467.63 574.79
  Q 442.90 585.82 418.32 597.58"
/>
<path stroke="#40aee1" vector-effect="non-scaling-stroke" d="
  M 412.22 605.53
  Q 400.32 612.13 388.06 617.04
  Q 380.59 620.03 377.04 621.78
  Q 371.65 624.41 366.26 627.00
  A 0.29 0.29 0.0 0 1 365.85 626.67
  L 374.61 589.41"
/>
<path stroke="#40aee1" vector-effect="non-scaling-stroke" d="
  M 397.75 596.15
  Q 403.36 595.06 407.97 591.67
  Q 409.02 590.91 409.47 590.32
  A 2.85 2.62 -86.7 0 1 410.10 589.71
  Q 410.32 589.55 413.90 587.61
  Q 415.42 586.78 417.43 585.16
  Q 429.20 575.65 438.87 569.88
  Q 446.04 565.59 463.41 555.60
  A 9.94 9.82 26.9 0 1 467.35 554.34
  Q 483.98 552.74 503.20 549.14
  Q 510.43 547.78 514.36 545.54
  Q 518.95 542.92 523.84 538.32
  Q 531.27 531.32 538.77 522.10
  A 0.21 0.20 1.5 0 0 538.49 521.81
  C 530.24 527.66 522.52 532.25 512.79 535.17
  A 0.10 0.10 0.0 0 1 512.69 535.00
  Q 516.24 531.90 519.14 528.14
  Q 531.13 512.60 535.65 494.16
  Q 538.28 483.43 539.45 476.12"
/>
<path stroke="#40aee1" vector-effect="non-scaling-stroke" d="
  M 571.42 519.70
  Q 562.68 525.27 560.45 527.43
  Q 558.65 529.18 556.95 530.73
  A 0.26 0.25 -10.6 0 1 556.54 530.45
  Q 560.22 520.99 557.76 511.25"
/>
</g>
<path fill="#171727" d="
  M 584.84 475.52
  Q 589.57 479.90 597.82 486.18
  C 602.64 489.84 606.50 491.22 612.80 491.61
  C 619.12 492.00 627.18 492.69 633.28 494.74
  C 639.80 496.93 646.99 499.76 654.75 502.31
  Q 657.18 503.11 656.97 504.27
  Q 654.39 503.29 651.75 503.15
  Q 642.35 502.68 631.80 500.84
  Q 625.84 499.48 614.48 497.57
  C 605.59 496.07 599.25 492.60 589.18 486.86
  C 577.75 480.34 567.25 471.01 560.68 459.52
  Q 554.62 448.93 561.04 438.28
  Q 566.16 429.78 573.61 423.80
  A 0.23 0.22 -40.3 0 1 573.92 423.82
  L 573.93 423.83
  A 0.22 0.22 0.0 0 1 573.93 424.13
  C 569.02 429.34 565.04 435.17 564.86 442.28
  Q 564.77 445.96 567.48 451.78
  Q 573.77 465.27 584.84 475.52
  Z"
/>
<g fill="#018dd3">
<path d="
  M 418.87 307.38
  C 428.63 306.44 440.31 306.26 448.73 305.80
  Q 482.64 303.95 495.12 303.12
  Q 505.99 302.39 517.25 302.06
  C 518.41 302.03 520.23 301.42 522.36 301.38
  Q 522.59 301.37 522.36 301.38
  Q 522.34 301.38 522.32 301.37
  Q 521.63 301.19 515.04 300.66
  Q 510.28 300.29 507.74 299.99
  Q 488.61 297.74 471.92 296.24
  Q 470.79 296.13 468.57 296.12
  Q 466.90 296.10 465.17 296.01
  A 0.18 0.18 0.0 0 1 464.99 295.83
  A 0.23 0.22 88.7 0 1 465.20 295.60
  Q 466.33 295.52 467.57 295.82
  Q 467.60 295.82 467.63 295.82
  L 555.47 296.12
  A 0.37 0.36 20.4 0 1 555.75 296.72
  L 545.81 307.92
  A 2.35 2.33 -68.7 0 1 544.04 308.71
  C 516.68 308.49 484.97 308.72 457.04 307.82
  Q 449.04 307.57 437.97 307.54
  Q 430.05 307.52 418.87 307.38
  Z"
/>
<path d="
  M 682.51 302.12
  Q 695.34 306.18 708.77 306.06
  A 1.22 1.20 -4.7 0 1 709.98 307.07
  C 710.72 311.79 713.73 315.93 716.91 319.79
  A 7.59 7.50 -71.5 0 1 718.44 322.90
  L 721.21 334.85
  A 1.18 1.17 -22.0 0 1 720.66 336.13
  L 715.65 339.02
  A 1.46 1.44 -48.2 0 1 714.38 339.10
  L 709.41 336.99
  A 0.49 0.48 -76.8 0 0 708.74 337.41
  C 708.56 340.77 706.38 344.74 705.86 347.90
  C 705.20 351.96 705.19 353.55 705.39 356.35
  A 0.16 0.16 0.0 0 1 705.10 356.46
  C 700.97 350.92 697.33 344.67 696.34 336.92
  Q 696.25 336.20 695.69 335.74
  Q 695.54 335.60 694.84 335.90
  Q 693.75 335.60 693.39 336.57
  Q 693.25 336.50 693.14 336.41
  A 0.41 0.41 0.0 0 0 692.68 336.35
  Q 687.41 339.06 681.93 343.93
  Q 679.45 346.14 676.04 351.45
  Q 671.63 358.30 664.26 364.88
  C 660.13 368.56 657.93 370.70 653.39 371.82
  A 0.41 0.41 0.0 0 0 653.45 372.63
  Q 661.10 373.42 669.39 372.46
  A 0.24 0.24 0.0 0 1 669.61 372.85
  C 666.71 376.50 666.37 382.01 665.76 387.12
  A 6.03 5.98 66.3 0 1 664.69 389.90
  C 662.06 393.57 658.50 399.70 655.71 400.52
  Q 651.41 401.78 646.74 400.89
  A 0.21 0.20 -28.3 0 0 646.62 401.28
  C 649.11 402.30 651.66 402.70 654.54 402.55
  Q 667.81 401.89 672.09 401.61
  A 0.24 0.24 0.0 0 1 672.26 402.04
  Q 671.62 402.54 669.97 403.14
  C 667.71 403.97 665.45 406.23 663.04 408.27
  A 2.25 2.19 -67.1 0 1 661.86 408.77
  C 656.74 409.30 652.32 408.50 646.47 407.51
  C 643.68 407.03 641.44 407.12 638.83 408.22
  A 1.63 1.63 0.0 0 1 636.82 407.57
  L 633.84 402.72
  A 0.52 0.52 0.0 0 0 632.88 402.98
  L 632.70 410.22
  A 0.54 0.54 0.0 0 1 631.65 410.41
  L 630.01 406.28
  A 0.45 0.45 0.0 0 0 629.31 406.10
  L 629.05 406.31
  Q 625.58 392.58 626.65 378.58
  A 0.13 0.12 -54.1 0 1 626.89 378.54
  L 634.61 397.95
  A 0.34 0.34 0.0 0 0 635.27 397.78
  Q 633.79 387.23 631.05 375.01
  C 629.62 368.66 627.09 361.79 624.96 354.36
  A 0.27 0.26 -82.0 0 1 625.35 354.06
  Q 629.97 357.01 635.19 359.07
  Q 646.48 363.51 653.96 366.27
  A 0.32 0.32 0.0 0 0 654.26 365.72
  L 640.97 355.90
  Q 629.82 346.03 618.43 336.84
  Q 610.82 330.70 601.31 327.34
  L 597.37 325.24
  A 0.25 0.20 30.8 0 0 597.08 325.28
  L 597.07 325.29
  A 0.22 0.22 0.0 0 0 597.12 325.59
  C 602.65 329.91 606.48 333.18 607.32 340.50
  Q 606.55 340.85 605.94 340.35
  Q 595.83 332.11 587.11 328.04
  C 582.62 325.95 579.16 323.26 575.11 320.91
  C 572.88 319.62 571.53 319.52 570.26 321.98
  C 568.09 326.16 565.58 330.47 561.07 333.55
  C 551.51 340.09 542.06 346.40 533.29 354.27
  Q 527.21 359.73 519.26 366.51
  Q 517.16 368.30 514.67 371.42
  Q 507.07 380.93 501.97 388.26
  A 1.11 1.11 0.0 0 0 502.84 390.00
  Q 513.12 390.36 523.03 388.10
  Q 524.19 387.83 524.72 386.79
  L 525.18 387.80
  A 0.87 0.87 0.0 0 1 525.04 388.73
  L 520.08 394.32
  A 3.06 3.02 -75.5 0 1 518.51 395.26
  L 507.82 397.73
  A 3.50 3.45 46.5 0 1 505.99 397.67
  L 491.28 393.16
  A 0.62 0.62 0.0 0 1 490.99 392.17
  Q 493.83 388.83 499.20 383.22
  C 502.20 380.08 501.81 373.55 502.39 369.91
  C 502.62 368.46 504.06 367.10 505.38 366.14
  C 514.35 359.62 522.26 353.52 529.35 345.28
  Q 533.17 340.84 538.53 334.32
  A 0.34 0.34 0.0 0 0 538.04 333.84
  L 532.12 338.94
  A 0.28 0.28 0.0 0 1 531.69 338.61
  L 535.59 330.62
  Q 549.55 316.28 566.37 308.21
  C 568.34 307.26 568.87 306.60 570.18 305.29
  A 1.14 1.14 0.0 0 1 571.27 304.99
  Q 579.08 306.98 585.03 310.03
  C 587.64 311.36 590.29 313.70 592.44 315.12
  A 7.48 7.31 69.6 0 0 594.32 316.01
  Q 595.02 316.23 618.10 324.20
  Q 622.49 325.72 625.79 324.31
  L 638.09 331.18
  A 0.29 0.29 0.0 0 0 638.45 330.74
  L 624.79 315.48
  Q 628.91 314.22 632.17 315.84
  Q 650.70 325.09 657.45 344.58
  A 0.23 0.22 -43.3 0 0 657.87 344.59
  C 660.53 338.06 659.24 329.65 656.25 323.55
  A 0.13 0.12 -28.9 0 1 656.30 323.39
  L 656.51 323.26
  A 0.45 0.45 0.0 0 1 657.12 323.39
  Q 664.50 334.40 669.60 346.69
  Q 669.63 347.84 668.82 349.31
  Q 665.91 354.58 659.67 363.24
  C 658.93 364.27 657.49 365.01 657.04 365.63
  A 0.32 0.32 0.0 0 0 657.32 366.13
  Q 657.83 366.09 659.62 364.11
  Q 663.90 359.33 669.68 352.19
  Q 671.28 350.21 672.34 347.31
  Q 675.99 337.27 678.82 325.05
  A 0.85 0.85 0.0 0 1 679.87 324.42
  L 693.83 328.15
  A 2.51 2.47 -13.3 0 1 695.03 328.88
  Q 697.50 331.60 698.80 334.88
  A 2.07 2.05 3.4 0 0 699.77 335.96
  L 700.33 336.25
  A 0.41 0.41 0.0 0 0 700.92 335.78
  Q 698.88 328.10 698.68 320.26
  A 1.06 1.06 0.0 0 0 698.24 319.42
  L 697.71 319.04
  Q 697.81 318.92 697.86 318.79
  A 0.32 0.31 23.9 0 0 697.70 318.40
  L 696.09 317.55
  A 2.73 2.56 81.3 0 1 695.30 316.93
  L 689.96 310.72
  A 2.31 2.29 66.2 0 0 687.95 309.93
  L 682.22 310.55
  L 680.10 309.79
  Q 678.37 307.40 679.13 303.59
  Q 680.59 302.43 682.51 302.12
  Z"
/>
<path d="
  M 343.10 324.62
  Q 360.16 324.53 381.52 324.02
  C 432.11 322.82 472.55 322.89 528.53 322.95
  A 0.20 0.20 0.0 0 1 528.70 323.25
  L 521.51 336.22
  A 1.32 1.32 0.0 0 1 520.36 336.89
  Q 446.58 336.87 373.14 334.38
  L 373.14 334.37
  Q 375.45 334.11 377.50 334.05
  Q 398.54 333.50 402.25 333.27
  Q 404.81 333.11 462.25 329.69
  A 0.17 0.16 -1.9 0 0 462.41 329.53
  L 462.41 329.52
  A 0.18 0.18 0.0 0 0 462.24 329.34
  Q 407.28 326.27 384.75 325.77
  Q 354.18 325.09 343.54 324.84
  Q 343.32 324.84 343.08 324.78
  A 0.08 0.08 0.0 0 1 343.10 324.62
  Z"
/>
<path d="
  M 286.44 358.64
  Q 291.38 358.44 294.00 358.38
  Q 350.18 356.99 395.25 355.67
  Q 398.78 355.56 439.19 353.88
  Q 439.31 353.88 439.38 353.88
  C 436.59 353.53 433.47 353.27 430.00 353.07
  Q 399.41 351.31 375.00 350.25
  Q 362.44 349.71 360.00 349.99
  Q 359.56 350.04 359.29 349.92
  A 0.14 0.14 0.0 0 1 359.34 349.65
  Q 379.80 349.22 396.50 349.30
  C 413.84 349.39 445.57 348.41 469.43 348.74
  Q 487.97 349.00 499.75 348.92
  Q 502.42 348.90 505.86 349.32
  A 0.48 0.47 -66.3 0 1 506.16 350.10
  Q 501.83 355.31 499.52 358.07
  C 496.51 361.67 494.40 361.36 489.19 361.35
  Q 478.47 361.34 441.25 360.98
  Q 290.43 359.53 286.43 359.33
  A 0.35 0.34 -44.5 0 1 286.44 358.64
  Z"
/>
<path d="
  M 616.54 377.62
  Q 615.04 399.68 615.28 421.50
  Q 615.32 424.74 614.57 425.87
  C 611.29 430.85 597.98 426.89 592.92 425.80
  A 0.21 0.21 0.0 0 0 592.72 426.14
  L 602.73 437.52
  Q 602.08 437.42 602.00 437.86
  Q 595.14 436.44 588.29 435.96
  Q 583.00 435.59 579.22 434.33
  A 1.20 1.20 0.0 0 1 578.44 432.90
  Q 581.15 422.23 587.98 413.45
  Q 591.84 408.48 594.87 402.61
  L 604.00 391.73
  A 0.09 0.09 0.0 0 0 603.88 391.60
  L 595.11 396.98
  A 0.25 0.25 0.0 0 1 594.75 396.66
  Q 600.09 384.90 604.37 371.13
  Q 605.03 369.01 606.27 367.77
  Q 608.83 365.19 615.63 358.76
  A 0.23 0.22 67.4 0 1 616.01 358.92
  L 616.54 377.62
  Z"
/>
<path d="
  M 409.86 384.88
  Q 349.96 382.62 290.03 381.87
  A 0.41 0.41 0.0 0 1 290.43 381.44
  L 481.13 378.85
  A 0.21 0.20 20.0 0 1 481.29 379.19
  L 471.57 390.15
  A 3.11 3.08 20.5 0 1 469.25 391.19
  Q 412.92 391.25 355.80 390.09
  Q 316.82 389.30 290.08 388.93
  Q 289.32 388.91 290.03 388.87
  Q 307.00 387.86 324.00 387.54
  Q 353.15 386.99 409.86 384.88
  Z"
/>
<path d="
  M 708.08 448.63
  Q 703.98 449.37 700.24 449.88
  C 696.93 450.33 694.26 448.15 692.07 445.98
  Q 685.20 439.22 678.57 431.16
  Q 678.51 431.09 677.93 429.33
  A 0.37 0.36 -13.5 0 1 678.23 428.85
  Q 678.41 428.83 678.57 428.96
  A 0.35 0.34 32.8 0 0 679.10 428.85
  Q 679.20 428.64 679.22 428.35
  L 697.24 444.82
  A 0.24 0.23 42.5 0 0 697.58 444.81
  L 697.79 444.56
  A 0.32 0.30 -47.8 0 0 697.78 444.13
  Q 691.40 438.03 685.60 430.13
  A 0.38 0.38 0.0 0 1 686.08 429.57
  L 696.06 434.77
  A 0.20 0.20 0.0 0 0 696.30 434.45
  L 682.13 420.28
  A 1.12 1.11 -58.6 0 1 681.86 419.15
  C 683.00 415.63 683.87 412.72 685.40 409.55
  Q 689.83 400.45 692.81 390.26
  Q 693.49 398.36 692.33 406.06
  A 0.56 0.53 84.8 0 1 691.99 406.49
  Q 691.42 406.70 690.66 405.74
  A 0.51 0.51 0.0 0 0 689.83 405.78
  Q 686.42 411.28 685.96 417.03
  A 0.57 0.57 0.0 0 0 686.95 417.45
  L 690.69 413.22
  A 0.41 0.41 0.0 0 1 691.34 413.28
  L 705.08 435.68
  A 0.89 0.88 66.3 0 0 706.07 436.07
  L 738.93 426.64
  A 0.08 0.08 0.0 0 1 739.01 426.76
  L 734.89 432.90
  A 0.33 0.33 0.0 0 0 735.32 433.37
  Q 742.02 429.74 748.53 425.59
  C 753.93 422.14 755.57 403.90 756.17 395.74
  Q 756.46 391.73 755.82 389.68
  Q 755.80 389.13 756.48 388.68
  A 1.13 1.12 34.8 0 1 757.35 388.53
  L 768.70 391.36
  A 1.06 1.05 86.1 0 1 769.43 392.00
  Q 770.78 395.44 772.04 399.49
  C 774.57 407.62 775.14 411.49 773.15 418.44
  A 2.05 2.04 3.4 0 1 771.52 419.88
  C 761.72 421.47 754.19 425.11 744.76 431.05
  Q 736.31 436.39 725.38 442.50
  A 1.23 1.20 19.0 0 1 725.17 442.60
  L 708.08 448.63
  Z"
/>
<path d="
  M 405.14 407.13
  C 430.16 406.35 455.55 405.53 479.96 405.60
  Q 553.86 405.84 578.02 406.00
  A 0.22 0.22 0.0 0 1 578.15 406.39
  Q 577.01 407.21 574.38 408.41
  Q 574.24 408.47 555.55 415.00
  A 9.31 9.15 32.0 0 1 553.43 415.47
  Q 547.34 416.11 543.50 416.11
  Q 490.34 416.06 471.25 416.03
  Q 449.67 416.00 388.70 414.25
  A 0.11 0.11 0.0 0 1 388.59 414.14
  A 0.14 0.13 -90.0 0 1 388.72 414.00
  C 403.06 413.72 412.28 413.55 425.06 412.61
  Q 445.86 411.09 450.37 411.13
  Q 450.42 411.13 450.48 411.03
  A 0.12 0.07 13.1 0 0 450.36 410.92
  Q 431.45 409.27 405.14 407.13
  Z"
/>
<path d="
  M 424.17 436.68
  Q 424.10 436.47 423.94 436.33
  A 0.37 0.36 38.8 0 1 423.88 435.82
  L 424.12 435.53
  Q 462.18 435.62 500.25 435.45
  Q 515.64 435.38 527.29 436.02
  A 0.70 0.70 0.0 0 1 527.95 436.74
  L 527.78 444.06
  A 0.57 0.57 0.0 0 1 527.19 444.61
  L 451.24 442.79
  A 0.04 0.03 76.7 0 1 451.21 442.76
  L 451.19 442.48
  A 0.11 0.10 90.0 0 1 451.29 442.37
  L 495.67 439.12
  A 0.12 0.11 -2.9 0 0 495.78 439.01
  L 495.78 439.00
  A 0.14 0.14 0.0 0 0 495.64 438.86
  L 424.17 436.68
  Z"
/>
<path d="
  M 630.10 465.16
  Q 630.98 468.53 635.07 470.92
  C 639.82 473.70 642.46 474.89 647.49 476.64
  Q 654.94 479.22 657.41 480.88
  C 669.63 489.10 682.07 498.56 692.08 509.92
  Q 695.19 513.44 697.34 517.38
  A 1.26 1.26 0.0 0 1 697.06 518.94
  L 686.09 528.36
  A 3.63 3.63 0.0 0 1 683.23 529.21
  Q 672.97 527.82 657.19 524.96
  C 654.33 524.44 651.86 523.48 649.29 523.05
  A 0.24 0.24 0.0 0 0 649.16 523.50
  L 667.23 531.16
  A 0.25 0.25 0.0 0 1 667.14 531.64
  Q 664.75 531.69 662.64 532.14
  C 647.08 535.45 635.22 538.21 622.82 544.48
  Q 622.66 544.56 619.55 545.77
  Q 617.80 546.45 616.58 547.63
  L 579.09 552.84
  A 0.14 0.14 0.0 0 0 578.97 553.00
  L 578.97 553.01
  A 0.18 0.18 0.0 0 0 579.16 553.18
  Q 593.03 552.41 607.19 553.28
  C 612.12 553.58 617.82 553.23 623.43 553.72
  A 0.08 0.08 0.0 0 1 623.43 553.87
  Q 612.00 555.18 600.49 557.73
  Q 590.16 560.01 576.79 567.82
  Q 561.16 575.14 545.83 582.63
  C 544.55 583.26 543.89 584.01 542.91 584.50
  A 0.28 0.28 0.0 0 1 542.52 584.16
  Q 549.33 564.49 557.17 545.25
  Q 557.29 544.95 557.01 544.40
  L 580.75 542.19
  A 0.22 0.21 24.6 0 1 580.90 542.58
  L 571.75 548.89
  A 0.26 0.26 0.0 0 0 572.00 549.35
  C 580.20 545.98 588.57 543.87 597.56 540.32
  Q 611.11 534.98 614.87 533.87
  Q 623.56 531.32 632.79 529.33
  Q 634.41 528.98 635.42 528.17
  A 0.21 0.21 0.0 0 0 635.27 527.80
  Q 621.88 529.08 608.05 532.23
  A 0.19 0.18 -71.7 0 1 607.89 531.91
  L 619.68 521.48
  A 8.79 8.45 -74.0 0 1 620.65 520.73
  C 621.84 520.01 623.59 518.60 625.31 518.03
  Q 636.72 514.20 645.26 514.42
  Q 657.84 514.76 669.51 518.62
  A 0.12 0.12 0.0 0 0 669.62 518.41
  C 663.98 514.45 658.21 508.71 650.13 508.15
  C 642.24 507.60 632.69 506.81 625.27 503.05
  A 0.39 0.38 59.2 0 1 625.45 502.32
  L 629.87 502.42
  A 1.22 1.20 -67.3 0 0 630.77 502.04
  L 631.21 501.57
  Q 631.53 501.42 631.80 500.84
  Q 642.35 502.68 651.75 503.15
  Q 654.39 503.29 656.97 504.27
  Q 658.29 505.62 660.71 507.07
  Q 664.21 509.17 666.39 512.24
  A 0.50 0.50 0.0 0 0 667.27 511.78
  Q 666.17 508.55 665.67 506.31
  C 664.62 501.64 662.79 499.38 659.49 495.84
  Q 654.85 490.87 651.77 489.05
  C 640.57 482.43 626.44 481.08 615.18 474.83
  C 605.84 469.65 598.76 464.13 592.08 456.33
  Q 588.13 451.73 585.81 448.56
  A 0.96 0.96 0.0 0 1 586.51 447.04
  Q 597.50 446.19 606.93 451.57
  Q 618.70 458.28 630.10 465.16
  Z"
/>
<path d="
  M 486.44 573.43
  Q 485.27 569.77 485.41 566.12
  A 0.47 0.47 0.0 0 0 484.70 565.70
  C 479.16 569.09 473.70 572.08 467.63 574.79
  Q 442.90 585.82 418.32 597.58
  L 392.66 609.38
  A 0.23 0.23 0.0 0 0 392.80 609.82
  L 412.22 605.53
  Q 400.32 612.13 388.06 617.04
  Q 380.59 620.03 377.04 621.78
  Q 371.65 624.41 366.26 627.00
  A 0.29 0.29 0.0 0 1 365.85 626.67
  L 374.61 589.41
  Q 374.35 588.43 375.54 587.13
  A 0.85 0.84 16.7 0 1 376.07 586.85
  L 403.27 582.72
  A 0.06 0.05 16.7 0 1 403.32 582.81
  L 387.54 600.59
  A 0.26 0.25 -82.0 0 0 387.84 600.99
  L 397.75 596.15
  Q 403.36 595.06 407.97 591.67
  Q 409.02 590.91 409.47 590.32
  A 2.85 2.62 -86.7 0 1 410.10 589.71
  Q 410.32 589.55 413.90 587.61
  Q 415.42 586.78 417.43 585.16
  Q 429.20 575.65 438.87 569.88
  Q 446.04 565.59 463.41 555.60
  A 9.94 9.82 26.9 0 1 467.35 554.34
  Q 483.98 552.74 503.20 549.14
  Q 510.43 547.78 514.36 545.54
  Q 518.95 542.92 523.84 538.32
  Q 531.27 531.32 538.77 522.10
  A 0.21 0.20 1.5 0 0 538.49 521.81
  C 530.24 527.66 522.52 532.25 512.79 535.17
  A 0.10 0.10 0.0 0 1 512.69 535.00
  Q 516.24 531.90 519.14 528.14
  Q 531.13 512.60 535.65 494.16
  Q 538.28 483.43 539.45 476.12
  L 541.64 471.46
  A 0.28 0.28 0.0 0 1 542.16 471.49
  Q 546.42 484.57 547.88 491.41
  Q 550.41 503.31 548.47 515.99
  C 547.21 524.21 542.93 530.32 537.15 536.66
  Q 529.31 545.25 522.19 552.46
  Q 518.00 556.70 512.75 559.45
  Q 499.72 566.26 486.44 573.43
  Z"
/>
<path d="
  M 456.55 487.71
  L 516.49 485.99
  A 0.16 0.16 0.0 0 1 516.63 486.24
  L 511.44 494.41
  A 0.41 0.40 -73.5 0 1 511.10 494.60
  L 467.49 494.50
  A 0.32 0.32 0.0 0 1 467.18 494.27
  L 467.17 494.26
  A 0.15 0.13 -86.8 0 1 467.29 494.14
  L 496.04 489.77
  A 0.04 0.03 90.0 0 0 496.07 489.73
  L 496.07 489.66
  A 0.15 0.15 0.0 0 0 495.92 489.49
  L 456.55 487.78
  A 0.04 0.03 45.1 0 1 456.55 487.71
  Z"
/>
<path d="
  M 571.42 519.70
  Q 562.68 525.27 560.45 527.43
  Q 558.65 529.18 556.95 530.73
  A 0.26 0.25 -10.6 0 1 556.54 530.45
  Q 560.22 520.99 557.76 511.25
  Q 558.42 499.45 554.31 488.13
  A 0.40 0.40 0.0 0 1 554.91 487.67
  Q 569.20 497.72 586.16 501.22
  A 0.32 0.32 0.0 0 1 586.36 501.72
  Q 579.38 511.69 571.42 519.70
  Z"
/>
<path d="
  M 451.91 517.51
  Q 453.99 517.05 455.50 516.90
  Q 463.24 516.14 490.52 515.21
  Q 493.13 515.13 495.88 514.72
  A 0.11 0.11 0.0 0 1 495.97 514.90
  L 488.05 522.82
  A 3.56 3.52 -66.7 0 1 485.48 523.86
  Q 459.74 523.34 431.64 523.88
  L 431.64 523.87
  Q 443.60 522.85 447.06 522.73
  Q 454.22 522.47 462.39 521.01
  Q 468.34 519.95 479.26 518.90
  A 0.14 0.13 87.8 0 0 479.38 518.76
  Q 479.39 518.72 479.38 518.69
  A 0.10 0.05 -2.9 0 0 479.29 518.65
  Q 462.97 518.19 452.99 517.53
  Q 452.86 517.53 451.91 517.59
  Q 451.38 517.62 451.91 517.51
  Z"
/>
<path d="
  M 396.88 535.00
  Q 397.58 534.53 407.63 534.10
  Q 433.21 532.99 453.41 533.22
  A 0.27 0.27 0.0 0 1 453.58 533.69
  Q 445.39 540.56 443.47 541.94
  C 442.06 542.96 440.79 543.23 438.78 543.13
  Q 408.39 541.76 380.26 543.31
  A 0.11 0.07 18.3 0 1 380.14 543.17
  Q 380.17 543.16 380.19 543.13
  A 0.17 0.09 3.3 0 1 380.30 543.08
  C 391.91 541.65 398.09 541.19 407.32 539.49
  Q 415.48 538.00 431.02 536.15
  Q 431.14 536.13 431.20 535.98
  A 0.06 0.05 -81.8 0 0 431.15 535.90
  L 396.90 535.08
  A 0.04 0.04 0.0 0 1 396.88 535.00
  Z"
/>
<path d="
  M 321.91 562.50
  Q 326.12 562.47 376.94 561.59
  Q 388.41 561.39 426.49 561.45
  A 0.20 0.20 0.0 0 1 426.61 561.80
  Q 418.90 567.99 415.54 570.78
  C 414.42 571.70 412.28 572.22 410.72 572.12
  Q 402.57 571.62 395.25 571.63
  Q 369.42 571.69 345.32 570.80
  A 0.11 0.11 0.0 0 1 345.21 570.70
  L 345.18 570.37
  A 0.07 0.07 0.0 0 1 345.24 570.29
  L 396.30 565.11
  A 0.04 0.03 90.0 0 0 396.33 565.07
  L 396.33 565.06
  A 0.24 0.24 0.0 0 0 396.09 564.83
  C 392.40 564.83 388.02 565.28 383.30 565.13
  C 368.71 564.68 348.32 563.45 329.71 563.07
  Q 322.94 562.94 321.91 562.90
  A 0.20 0.20 0.0 0 1 321.91 562.50
  Z"
/>
</g>
<g fill="#fcfbfc">
<path d="
  M 655.6380 693.7552
  A 36.92 36.05 -177.4 0 1 694.1553 659.4171
  A 36.92 36.05 -177.4 0 1 729.4020 697.1048
  A 36.92 36.05 -177.4 0 1 690.8847 731.4429
  A 36.92 36.05 -177.4 0 1 655.6380 693.7552
  Z"
/>
<path d="
  M 343.66 660.49
  Q 346.61 660.49 349.45 660.63
  A 0.48 0.48 0.0 0 1 349.87 660.91
  L 380.28 729.14
  A 0.42 0.41 77.7 0 1 379.91 729.73
  L 367.96 729.89
  A 0.96 0.94 78.1 0 1 367.07 729.30
  L 360.52 713.62
  A 0.85 0.84 82.0 0 0 359.85 713.11
  Q 359.60 713.07 343.60 713.06
  Q 327.60 713.04 327.35 713.07
  A 0.85 0.84 -81.9 0 0 326.68 713.58
  L 320.10 729.25
  A 0.96 0.94 -77.9 0 1 319.21 729.83
  L 307.26 729.65
  A 0.42 0.41 -77.5 0 1 306.89 729.06
  L 337.45 660.90
  A 0.48 0.48 0.0 0 1 337.87 660.61
  Q 340.72 660.48 343.66 660.49
  Z"
/>
<path d="
  M 488.65 712.99
  Q 472.71 712.99 472.46 713.02
  A 0.85 0.83 -81.9 0 0 471.79 713.53
  L 465.24 729.15
  A 0.96 0.94 -78.0 0 1 464.35 729.74
  L 452.44 729.56
  A 0.42 0.41 -77.6 0 1 452.07 728.98
  L 482.47 661.00
  A 0.48 0.47 10.8 0 1 482.88 660.72
  Q 485.72 660.59 488.66 660.59
  Q 491.59 660.59 494.43 660.72
  A 0.48 0.47 -10.8 0 1 494.84 661.00
  L 525.23 728.98
  A 0.42 0.41 77.6 0 1 524.86 729.57
  L 512.95 729.74
  A 0.96 0.94 78.0 0 1 512.06 729.15
  L 505.52 713.53
  A 0.85 0.83 81.9 0 0 504.85 713.02
  Q 504.60 712.99 488.65 712.99
  Z"
/>
<path d="
  M 551.45 660.79
  Q 562.35 660.78 579.27 660.71
  A 0.55 0.55 0.0 0 1 579.83 661.26
  L 579.83 670.93
  A 0.84 0.84 0.0 0 1 578.99 671.77
  L 558.25 671.77
  A 0.60 0.59 0.0 0 0 557.65 672.36
  L 557.65 729.01
  A 0.58 0.57 -1.6 0 1 557.11 729.58
  Q 556.53 729.61 551.51 729.62
  Q 546.48 729.62 545.90 729.59
  A 0.58 0.57 1.5 0 1 545.36 729.02
  L 545.26 672.37
  A 0.60 0.59 -0.1 0 0 544.66 671.78
  L 523.92 671.82
  A 0.84 0.84 0.0 0 1 523.08 670.98
  L 523.06 661.31
  A 0.55 0.55 0.0 0 1 523.62 660.75
  Q 540.55 660.80 551.45 660.79
  Z"
/>
<path d="
  M 766.13 698.84
  Q 761.58 693.25 753.84 684.12
  A 0.24 0.24 0.0 0 0 753.42 684.27
  L 753.42 729.16
  A 0.43 0.43 0.0 0 1 752.99 729.59
  L 741.62 729.59
  A 0.52 0.51 -0.0 0 1 741.10 729.08
  L 741.10 661.00
  A 0.34 0.34 0.0 0 1 741.44 660.66
  L 749.71 660.66
  A 1.57 1.55 69.9 0 1 750.91 661.23
  Q 764.75 678.00 775.66 691.43
  Q 780.21 697.02 787.95 706.16
  A 0.24 0.24 0.0 0 0 788.37 706.00
  L 788.37 661.11
  A 0.43 0.43 0.0 0 1 788.80 660.68
  L 800.17 660.68
  A 0.52 0.51 0.0 0 1 800.69 661.19
  L 800.69 729.27
  A 0.34 0.34 0.0 0 1 800.35 729.61
  L 792.08 729.61
  A 1.57 1.55 69.9 0 1 790.88 729.04
  Q 777.04 712.27 766.13 698.84
  Z"
/>
<path d="
  M 236.30 729.59
  L 224.81 729.59
  A 0.32 0.32 0.0 0 1 224.49 729.27
  L 224.49 661.02
  A 0.32 0.32 0.0 0 1 224.81 660.70
  L 236.30 660.70
  A 0.32 0.32 0.0 0 1 236.57 660.86
  L 260.59 702.46
  A 0.32 0.32 0.0 0 0 261.14 702.46
  L 284.25 660.84
  A 0.32 0.32 0.0 0 1 284.53 660.68
  L 296.40 660.68
  A 0.32 0.32 0.0 0 1 296.72 661.00
  L 296.72 729.33
  A 0.32 0.32 0.0 0 1 296.40 729.65
  L 284.90 729.65
  A 0.32 0.32 0.0 0 1 284.58 729.33
  L 284.58 683.10
  A 0.32 0.32 0.0 0 0 283.98 682.94
  L 263.28 720.23
  A 0.32 0.32 0.0 0 1 263.00 720.39
  L 258.75 720.39
  A 0.32 0.32 0.0 0 1 258.48 720.23
  L 237.22 683.40
  A 0.32 0.32 0.0 0 0 236.62 683.56
  L 236.62 729.27
  A 0.32 0.32 0.0 0 1 236.30 729.59
  Z"
/>
<path d="
  M 401.85 706.95
  A 0.34 0.34 0.0 0 0 401.51 707.29
  L 401.49 729.02
  A 0.65 0.65 0.0 0 1 400.84 729.67
  L 389.70 729.66
  A 0.58 0.58 0.0 0 1 389.12 729.09
  L 389.17 661.19
  A 0.41 0.41 0.0 0 1 389.57 660.79
  Q 397.62 660.75 415.32 660.90
  Q 427.20 661.00 431.83 663.23
  C 440.78 667.54 445.69 675.04 445.26 685.12
  Q 444.67 699.02 430.81 705.01
  A 0.47 0.46 -29.2 0 0 430.61 705.69
  L 446.56 728.88
  A 0.52 0.51 -17.2 0 1 446.14 729.69
  L 433.56 729.68
  A 1.20 1.18 -16.0 0 1 432.56 729.13
  L 418.46 707.52
  A 1.24 1.24 0.0 0 0 417.43 706.96
  L 401.85 706.95
  Z"
/>
<path d="
  M 603.03 706.94
  A 0.34 0.34 0.0 0 0 602.69 707.28
  L 602.69 729.08
  A 0.65 0.65 0.0 0 1 602.04 729.73
  L 590.86 729.73
  A 0.58 0.58 0.0 0 1 590.28 729.15
  L 590.28 661.05
  A 0.41 0.41 0.0 0 1 590.69 660.64
  Q 598.76 660.60 616.51 660.74
  Q 628.43 660.83 633.08 663.06
  C 642.06 667.38 646.99 674.90 646.56 685.01
  Q 645.98 698.96 632.08 704.97
  A 0.47 0.46 -29.3 0 0 631.88 705.66
  L 647.90 728.91
  A 0.52 0.52 0.0 0 1 647.47 729.72
  L 634.86 729.72
  A 1.20 1.19 -16.0 0 1 633.85 729.17
  L 619.70 707.50
  A 1.25 1.25 0.0 0 0 618.66 706.94
  L 603.03 706.94
  Z"
/>
</g>
<g fill="#7fcfef">
<path d="
  M 625.79 324.31
  Q 622.49 325.72 618.10 324.20
  Q 595.02 316.23 594.32 316.01
  A 7.48 7.31 69.6 0 1 592.44 315.12
  C 590.29 313.70 587.64 311.36 585.03 310.03
  Q 579.08 306.98 571.27 304.99
  A 1.14 1.14 0.0 0 0 570.18 305.29
  C 568.87 306.60 568.34 307.26 566.37 308.21
  Q 549.55 316.28 535.59 330.62
  Q 545.18 318.86 555.56 308.81
  Q 561.47 303.10 566.69 297.09
  A 2.18 2.16 21.5 0 1 568.41 296.35
  Q 572.16 296.50 582.26 296.94
  Q 596.80 297.56 608.85 303.82
  A 0.32 0.32 0.0 0 1 608.70 304.42
  L 593.71 304.06
  A 8.98 8.92 58.1 0 1 590.16 303.22
  L 582.56 299.64
  A 0.25 0.25 0.0 0 0 582.28 300.05
  Q 584.14 301.71 586.26 303.00
  Q 601.38 312.22 615.99 318.22
  Q 619.40 319.62 625.79 324.31
  Z"
/>
<path d="
  M 694.84 335.90
  Q 695.54 335.60 695.69 335.74
  Q 696.25 336.20 696.34 336.92
  C 697.33 344.67 700.97 350.92 705.10 356.46
  A 0.16 0.16 0.0 0 0 705.39 356.35
  C 705.19 353.55 705.20 351.96 705.86 347.90
  C 706.38 344.74 708.56 340.77 708.74 337.41
  A 0.49 0.48 -76.8 0 1 709.41 336.99
  L 714.38 339.10
  A 1.46 1.44 -48.2 0 0 715.65 339.02
  L 720.66 336.13
  A 1.18 1.17 -22.0 0 0 721.21 334.85
  L 718.44 322.90
  A 7.59 7.50 -71.5 0 0 716.91 319.79
  C 713.73 315.93 710.72 311.79 709.98 307.07
  A 1.22 1.20 -4.7 0 0 708.77 306.06
  Q 695.34 306.18 682.51 302.12
  C 687.69 300.03 694.43 297.96 700.07 298.64
  Q 707.50 299.54 714.84 300.53
  A 2.10 2.08 73.3 0 1 716.11 301.22
  L 731.96 319.65
  A 4.07 4.05 26.3 0 1 732.93 322.49
  Q 732.55 329.90 730.91 339.11
  Q 730.12 343.57 730.54 346.83
  A 1.21 1.20 65.6 0 1 730.15 347.88
  Q 726.98 350.78 723.83 352.78
  C 722.25 353.78 721.33 353.00 720.63 351.74
  A 0.51 0.51 0.0 0 0 719.68 352.03
  C 719.94 355.09 718.48 357.06 716.88 359.61
  Q 713.01 365.76 710.58 369.31
  A 0.70 0.70 0.0 0 1 709.63 369.51
  Q 707.89 368.41 706.57 366.94
  C 702.62 362.59 697.07 356.00 695.85 350.32
  Q 695.78 349.99 695.21 344.71
  Q 694.72 340.25 694.84 335.90
  Z"
/>
<path d="
  M 679.13 303.59
  Q 678.37 307.40 680.10 309.79
  Q 680.70 315.41 684.60 318.36
  Q 685.84 319.30 690.53 322.59
  A 0.28 0.27 31.4 0 1 690.62 322.94
  L 690.49 323.19
  A 0.13 0.13 0.0 0 1 690.32 323.25
  Q 684.30 320.35 678.33 319.57
  C 674.77 319.11 670.56 315.09 667.62 311.99
  A 0.26 0.25 50.4 0 1 667.65 311.60
  L 679.13 303.59
  Z"
/>
<path d="
  M 669.60 346.69
  Q 664.50 334.40 657.12 323.39
  A 0.45 0.45 0.0 0 0 656.51 323.26
  L 656.30 323.39
  A 0.13 0.12 -28.9 0 0 656.25 323.55
  C 659.24 329.65 660.53 338.06 657.87 344.59
  A 0.23 0.22 -43.3 0 1 657.45 344.58
  Q 650.70 325.09 632.17 315.84
  Q 628.91 314.22 624.79 315.48
  Q 620.33 311.95 613.74 309.96
  A 0.45 0.45 0.0 0 1 613.83 309.08
  C 622.24 308.32 630.72 308.38 639.51 310.64
  Q 643.82 311.75 652.39 312.67
  A 2.78 2.77 -17.2 0 1 654.18 313.61
  Q 662.29 323.07 668.38 333.62
  Q 671.68 339.34 669.60 346.69
  Z"
/>
<path d="
  M 697.71 319.04
  L 682.22 310.55
  L 687.95 309.93
  A 2.31 2.29 66.2 0 1 689.96 310.72
  L 695.30 316.93
  A 2.73 2.56 81.3 0 0 696.09 317.55
  L 697.70 318.40
  A 0.32 0.31 23.9 0 1 697.86 318.79
  Q 697.81 318.92 697.71 319.04
  Z"
/>
<path d="
  M 607.32 340.50
  Q 608.07 341.42 608.07 342.36
  A 0.39 0.39 0.0 0 1 607.56 342.73
  Q 604.57 341.71 602.35 340.42
  Q 594.91 336.10 583.72 329.81
  Q 581.14 328.36 575.37 323.02
  A 0.29 0.29 0.0 0 0 574.88 323.26
  L 575.95 333.80
  A 0.70 0.70 0.0 0 1 575.41 334.55
  Q 569.06 335.98 559.82 341.82
  C 549.40 348.40 539.91 354.53 531.34 362.36
  Q 525.31 367.87 522.89 377.40
  Q 521.60 382.48 524.72 386.79
  Q 524.19 387.83 523.03 388.10
  Q 513.12 390.36 502.84 390.00
  A 1.11 1.11 0.0 0 1 501.97 388.26
  Q 507.07 380.93 514.67 371.42
  Q 517.16 368.30 519.26 366.51
  Q 527.21 359.73 533.29 354.27
  C 542.06 346.40 551.51 340.09 561.07 333.55
  C 565.58 330.47 568.09 326.16 570.26 321.98
  C 571.53 319.52 572.88 319.62 575.11 320.91
  C 579.16 323.26 582.62 325.95 587.11 328.04
  Q 595.83 332.11 605.94 340.35
  Q 606.55 340.85 607.32 340.50
  Z"
/>
<path d="
  M 640.97 355.90
  Q 633.05 351.07 625.69 346.08
  Q 613.30 337.67 601.31 327.34
  Q 610.82 330.70 618.43 336.84
  Q 629.82 346.03 640.97 355.90
  Z"
/>
<path d="
  M 693.39 336.57
  Q 691.74 344.57 689.44 352.45
  Q 688.66 355.12 686.94 358.17
  Q 684.77 362.02 680.30 369.32
  A 0.28 0.28 0.0 0 0 680.71 369.69
  Q 686.14 365.59 692.11 363.74
  A 1.24 1.23 75.7 0 1 693.69 364.68
  Q 697.08 381.98 697.92 397.71
  A 8.82 8.78 -61.7 0 0 699.10 401.68
  Q 702.36 407.25 704.28 413.51
  Q 704.89 415.51 703.48 416.63
  A 1.09 1.08 70.3 0 0 703.06 417.53
  L 703.33 426.86
  A 0.41 0.41 0.0 0 0 703.80 427.26
  Q 712.31 426.09 725.24 426.12
  C 729.62 426.13 744.85 416.39 746.20 412.96
  A 3.75 3.66 60.3 0 0 746.46 411.96
  L 747.49 401.90
  A 4.71 4.67 66.7 0 1 748.39 399.61
  L 755.82 389.68
  Q 756.46 391.73 756.17 395.74
  C 755.57 403.90 753.93 422.14 748.53 425.59
  Q 742.02 429.74 735.32 433.37
  A 0.33 0.33 0.0 0 1 734.89 432.90
  L 739.01 426.76
  A 0.08 0.08 0.0 0 0 738.93 426.64
  L 706.07 436.07
  A 0.89 0.88 66.3 0 1 705.08 435.68
  L 691.34 413.28
  A 0.41 0.41 0.0 0 0 690.69 413.22
  L 686.95 417.45
  A 0.57 0.57 0.0 0 1 685.96 417.03
  Q 686.42 411.28 689.83 405.78
  A 0.51 0.51 0.0 0 1 690.66 405.74
  Q 691.42 406.70 691.99 406.49
  A 0.56 0.53 84.8 0 0 692.33 406.06
  Q 693.49 398.36 692.81 390.26
  Q 692.88 388.82 692.93 387.08
  Q 693.00 385.11 692.82 383.94
  Q 691.94 378.30 691.89 373.21
  A 0.22 0.22 0.0 0 0 691.51 373.06
  Q 690.26 374.43 690.06 375.36
  C 687.73 386.05 682.99 397.31 676.81 406.62
  Q 672.57 413.00 669.32 419.64
  A 3.59 3.59 0.0 0 1 667.10 421.50
  C 660.26 423.49 654.28 424.83 649.65 428.21
  A 4.06 4.03 87.2 0 0 648.60 429.38
  Q 644.35 436.65 637.06 444.90
  A 1.69 1.68 21.3 0 1 635.75 445.47
  Q 633.93 445.41 631.95 444.52
  A 1.04 1.03 15.4 0 1 631.35 443.47
  C 632.26 435.16 633.27 429.28 631.82 422.28
  Q 630.18 414.31 629.05 406.31
  L 629.31 406.10
  A 0.45 0.45 0.0 0 1 630.01 406.28
  L 631.65 410.41
  A 0.54 0.54 0.0 0 0 632.70 410.22
  L 632.88 402.98
  A 0.52 0.52 0.0 0 1 633.84 402.72
  L 636.82 407.57
  A 1.63 1.63 0.0 0 0 638.83 408.22
  C 641.44 407.12 643.68 407.03 646.47 407.51
  C 652.32 408.50 656.74 409.30 661.86 408.77
  A 2.25 2.19 -67.1 0 0 663.04 408.27
  C 665.45 406.23 667.71 403.97 669.97 403.14
  Q 671.62 402.54 672.26 402.04
  A 0.24 0.24 0.0 0 0 672.09 401.61
  Q 667.81 401.89 654.54 402.55
  C 651.66 402.70 649.11 402.30 646.62 401.28
  A 0.21 0.20 -28.3 0 1 646.74 400.89
  Q 651.41 401.78 655.71 400.52
  C 658.50 399.70 662.06 393.57 664.69 389.90
  A 6.03 5.98 66.3 0 0 665.76 387.12
  C 666.37 382.01 666.71 376.50 669.61 372.85
  A 0.24 0.24 0.0 0 0 669.39 372.46
  Q 661.10 373.42 653.45 372.63
  A 0.41 0.41 0.0 0 1 653.39 371.82
  C 657.93 370.70 660.13 368.56 664.26 364.88
  Q 671.63 358.30 676.04 351.45
  Q 679.45 346.14 681.93 343.93
  Q 687.41 339.06 692.68 336.35
  A 0.41 0.41 0.0 0 1 693.14 336.41
  Q 693.25 336.50 693.39 336.57
  Z"
/>
<path d="
  M 616.54 377.62
  Q 618.88 398.82 622.28 413.72
  Q 622.78 415.93 625.94 425.97
  A 7.49 7.36 39.1 0 1 626.25 428.74
  L 625.36 440.26
  A 0.61 0.61 0.0 0 1 624.53 440.79
  C 618.16 438.41 610.54 435.88 604.36 431.64
  A 0.17 0.12 37.3 0 0 604.17 431.63
  Q 604.16 431.65 604.14 431.69
  A 0.12 0.02 43.4 0 0 604.20 431.77
  Q 614.86 442.50 633.27 455.97
  Q 650.53 468.61 665.33 480.43
  C 679.00 491.35 691.81 504.13 699.44 519.54
  Q 701.69 524.06 702.43 527.84
  A 1.37 1.36 65.3 0 1 701.95 529.15
  Q 696.48 533.61 691.60 535.79
  Q 687.94 537.43 679.29 539.56
  Q 664.47 543.20 653.28 545.15
  C 642.13 547.10 628.85 547.01 616.58 547.63
  Q 617.80 546.45 619.55 545.77
  Q 622.66 544.56 622.82 544.48
  C 635.22 538.21 647.08 535.45 662.64 532.14
  Q 664.75 531.69 667.14 531.64
  A 0.25 0.25 0.0 0 0 667.23 531.16
  L 649.16 523.50
  A 0.24 0.24 0.0 0 1 649.29 523.05
  C 651.86 523.48 654.33 524.44 657.19 524.96
  Q 672.97 527.82 683.23 529.21
  A 3.63 3.63 0.0 0 0 686.09 528.36
  L 697.06 518.94
  A 1.26 1.26 0.0 0 0 697.34 517.38
  Q 695.19 513.44 692.08 509.92
  C 682.07 498.56 669.63 489.10 657.41 480.88
  Q 654.94 479.22 647.49 476.64
  C 642.46 474.89 639.82 473.70 635.07 470.92
  Q 630.98 468.53 630.10 465.16
  Q 637.53 467.93 645.21 469.76
  Q 647.38 470.28 654.09 474.48
  A 0.27 0.27 0.0 0 0 654.45 474.41
  L 654.46 474.40
  A 0.29 0.29 0.0 0 0 654.39 473.99
  C 650.91 471.47 648.75 469.55 644.79 467.12
  Q 635.48 461.41 623.56 454.45
  Q 613.66 448.68 602.73 437.52
  L 592.72 426.14
  A 0.21 0.21 0.0 0 1 592.92 425.80
  C 597.98 426.89 611.29 430.85 614.57 425.87
  Q 615.32 424.74 615.28 421.50
  Q 615.04 399.68 616.54 377.62
  Z"
/>
<path d="
  M 594.87 402.61
  Q 591.84 408.48 587.98 413.45
  Q 581.15 422.23 578.44 432.90
  A 1.20 1.20 0.0 0 0 579.22 434.33
  Q 583.00 435.59 588.29 435.96
  Q 595.14 436.44 602.00 437.86
  Q 595.63 438.00 589.75 438.06
  Q 587.55 438.08 584.66 438.52
  C 581.64 438.99 581.88 441.44 581.20 443.63
  Q 578.10 453.68 580.09 464.92
  Q 581.15 470.93 584.84 475.52
  Q 573.77 465.27 567.48 451.78
  Q 564.77 445.96 564.86 442.28
  C 565.04 435.17 569.02 429.34 573.93 424.13
  A 0.22 0.22 0.0 0 0 573.93 423.83
  L 573.92 423.82
  A 0.23 0.22 -40.3 0 0 573.61 423.80
  Q 566.16 429.78 561.04 438.28
  Q 554.62 448.93 560.68 459.52
  C 567.25 471.01 577.75 480.34 589.18 486.86
  C 599.25 492.60 605.59 496.07 614.48 497.57
  Q 625.84 499.48 631.80 500.84
  Q 631.53 501.42 631.21 501.57
  Q 618.29 500.02 605.50 497.77
  Q 589.79 495.00 574.49 488.52
  C 560.80 482.71 552.68 476.22 546.74 463.00
  Q 543.21 455.15 543.51 445.18
  Q 543.73 437.94 548.66 433.42
  C 558.02 424.84 564.86 421.63 579.94 412.93
  Q 585.92 409.48 594.87 402.61
  Z"
/>
<path d="
  M 679.22 428.35
  Q 679.20 428.64 679.10 428.85
  A 0.35 0.34 32.8 0 1 678.57 428.96
  Q 678.41 428.83 678.23 428.85
  A 0.37 0.36 -13.5 0 0 677.93 429.33
  Q 678.51 431.09 678.57 431.16
  Q 685.20 439.22 692.07 445.98
  C 694.26 448.15 696.93 450.33 700.24 449.88
  Q 703.98 449.37 708.08 448.63
  L 696.81 454.21
  A 1.55 1.54 -35.8 0 1 695.04 453.93
  Q 687.60 446.66 678.30 437.71
  C 676.88 436.34 675.98 434.93 676.19 432.90
  Q 676.54 429.55 676.49 425.81
  A 0.23 0.23 0.0 0 1 676.89 425.66
  L 679.22 428.35
  Z"
/>
<path d="
  M 397.75 596.15
  Q 400.57 593.71 403.26 591.71
  Q 408.17 588.06 408.92 587.45
  Q 430.54 569.80 452.08 551.83
  Q 457.04 547.70 462.71 544.96
  Q 475.12 538.98 478.99 537.23
  C 492.23 531.27 503.91 523.36 513.57 514.57
  Q 517.90 510.63 521.52 505.51
  Q 531.35 491.63 539.45 476.12
  Q 538.28 483.43 535.65 494.16
  Q 531.13 512.60 519.14 528.14
  Q 516.24 531.90 512.69 535.00
  A 0.10 0.10 0.0 0 0 512.79 535.17
  C 522.52 532.25 530.24 527.66 538.49 521.81
  A 0.21 0.20 1.5 0 1 538.77 522.10
  Q 531.27 531.32 523.84 538.32
  Q 518.95 542.92 514.36 545.54
  Q 510.43 547.78 503.20 549.14
  Q 483.98 552.74 467.35 554.34
  A 9.94 9.82 26.9 0 0 463.41 555.60
  Q 446.04 565.59 438.87 569.88
  Q 429.20 575.65 417.43 585.16
  Q 415.42 586.78 413.90 587.61
  Q 410.32 589.55 410.10 589.71
  A 2.85 2.62 -86.7 0 0 409.47 590.32
  Q 409.02 590.91 407.97 591.67
  Q 403.36 595.06 397.75 596.15
  Z"
/>
<path d="
  M 571.42 519.70
  C 565.05 526.14 557.36 533.18 551.09 537.95
  Q 542.41 544.56 534.28 547.76
  A 0.69 0.68 -71.6 0 1 533.67 546.54
  C 546.74 538.38 554.82 526.71 557.76 511.25
  Q 560.22 520.99 556.54 530.45
  A 0.26 0.25 -10.6 0 0 556.95 530.73
  Q 558.65 529.18 560.45 527.43
  Q 562.68 525.27 571.42 519.70
  Z"
/>
<path d="
  M 557.01 544.40
  Q 557.29 544.95 557.17 545.25
  Q 549.33 564.49 542.52 584.16
  A 0.28 0.28 0.0 0 0 542.91 584.50
  C 543.89 584.01 544.55 583.26 545.83 582.63
  Q 561.16 575.14 576.79 567.82
  Q 556.85 581.73 537.01 595.28
  Q 533.72 597.52 529.45 598.14
  A 0.46 0.45 -80.5 0 1 528.98 597.48
  L 556.21 545.23
  A 1.79 1.63 87.3 0 1 556.69 544.65
  L 557.01 544.40
  Z"
/>
<path d="
  M 486.44 573.43
  L 418.32 597.58
  Q 442.90 585.82 467.63 574.79
  C 473.70 572.08 479.16 569.09 484.70 565.70
  A 0.47 0.47 0.0 0 1 485.41 566.12
  Q 485.27 569.77 486.44 573.43
  Z"
/>
<path d="
  M 374.61 589.41
  L 365.85 626.67
  A 0.29 0.29 0.0 0 0 366.26 627.00
  Q 371.65 624.41 377.04 621.78
  Q 380.59 620.03 388.06 617.04
  Q 400.32 612.13 412.22 605.53
  L 419.44 602.47
  A 0.14 0.14 0.0 0 1 419.62 602.64
  Q 419.58 602.77 419.41 602.89
  C 414.18 606.41 406.33 610.17 400.02 613.90
  Q 363.27 635.58 355.97 639.73
  Q 351.57 642.24 346.20 645.95
  A 0.24 0.23 -88.7 0 1 345.88 645.61
  Q 346.67 644.53 347.64 642.70
  Q 361.28 616.75 374.61 589.41
  Z"
/>
</g>
<g fill="#0a6ea7">
<path d="
  M 0.43 0.68
  Q 0.68 0.68 0.68 3.07
  Q 0.69 257.62 0.69 512.16
  Q 0.69 766.71 0.68 1021.25
  Q 0.68 1023.64 0.42 1023.64
  Q 0.17 1023.64 0.17 1021.25
  Q 0.17 766.71 0.17 512.16
  Q 0.17 257.62 0.18 3.07
  Q 0.18 0.68 0.43 0.68
  Z"
/>
<path d="
  M 358.39 349.94
  Q 357.97 349.95 357.86 349.86
  A 0.23 0.23 0.0 0 1 358.09 349.47
  Q 358.33 349.54 358.49 349.68
  A 0.15 0.15 0.0 0 1 358.39 349.94
  Z"
/>
<path d="
  M 424.12 435.53
  L 423.88 435.82
  A 0.37 0.36 38.8 0 0 423.94 436.33
  Q 424.10 436.47 424.17 436.68
  C 412.11 436.77 400.19 436.29 388.15 435.86
  Q 388.14 435.86 388.16 435.86
  C 400.18 435.71 412.08 435.29 424.12 435.53
  Z"
/>
<path d="
  M 602.73 437.52
  Q 613.66 448.68 623.56 454.45
  Q 635.48 461.41 644.79 467.12
  C 648.75 469.55 650.91 471.47 654.39 473.99
  A 0.29 0.29 0.0 0 1 654.46 474.40
  L 654.45 474.41
  A 0.27 0.27 0.0 0 1 654.09 474.48
  Q 647.38 470.28 645.21 469.76
  Q 637.53 467.93 630.10 465.16
  Q 618.70 458.28 606.93 451.57
  Q 597.50 446.19 586.51 447.04
  A 0.96 0.96 0.0 0 0 585.81 448.56
  Q 588.13 451.73 592.08 456.33
  C 598.76 464.13 605.84 469.65 615.18 474.83
  C 626.44 481.08 640.57 482.43 651.77 489.05
  Q 654.85 490.87 659.49 495.84
  C 662.79 499.38 664.62 501.64 665.67 506.31
  Q 666.17 508.55 667.27 511.78
  A 0.50 0.50 0.0 0 1 666.39 512.24
  Q 664.21 509.17 660.71 507.07
  Q 658.29 505.62 656.97 504.27
  Q 657.18 503.11 654.75 502.31
  C 646.99 499.76 639.80 496.93 633.28 494.74
  C 627.18 492.69 619.12 492.00 612.80 491.61
  C 606.50 491.22 602.64 489.84 597.82 486.18
  Q 589.57 479.90 584.84 475.52
  Q 581.15 470.93 580.09 464.92
  Q 578.10 453.68 581.20 443.63
  C 581.88 441.44 581.64 438.99 584.66 438.52
  Q 587.55 438.08 589.75 438.06
  Q 595.63 438.00 602.00 437.86
  Q 602.08 437.42 602.73 437.52
  Z"
/>
</g>
<g fill="#171727">
<path d="
  M 550.95 335.33
  Q 550.90 335.21 550.92 335.01
  A 0.35 0.27 71.7 0 1 550.97 334.87
  Q 558.45 324.63 567.51 314.76
  C 569.40 312.70 572.25 311.69 575.20 313.28
  Q 577.12 314.31 581.40 315.63
  A 0.26 0.26 0.0 0 1 581.57 315.96
  L 581.50 316.20
  A 0.04 0.04 0.0 0 1 581.45 316.23
  L 574.45 314.43
  A 1.88 1.86 -56.6 0 0 572.83 314.77
  Q 571.29 315.95 569.66 318.08
  C 568.26 319.92 566.28 322.05 564.26 323.57
  Q 557.03 329.03 551.43 335.40
  A 0.29 0.29 0.0 0 1 550.95 335.33
  Z"
/>
<path d="
  M 410.73 591.84
  A 0.31 0.30 -15.2 0 1 410.35 591.63
  L 410.33 591.54
  A 0.30 0.28 72.3 0 1 410.50 591.19
  Q 416.47 589.05 423.79 585.53
  C 436.29 579.51 447.94 572.85 460.79 567.45
  Q 484.57 557.46 498.34 552.01
  A 0.22 0.21 -22.0 0 1 498.61 552.12
  L 498.64 552.18
  A 0.19 0.19 0.0 0 1 498.56 552.43
  Q 478.44 563.59 464.45 570.92
  Q 455.54 575.58 446.15 579.12
  Q 434.67 583.46 417.88 589.60
  Q 415.18 590.60 410.73 591.84
  Z"
/>
<ellipse cx="0.00" cy="0.00" transform="translate(692.59,695.28) rotate(-91.1)" rx="24.59" ry="24.02"/>
<path d="
  M 401.71 672.20
  A 0.23 0.23 0.0 0 1 401.94 671.97
  L 420.12 672.10
  A 12.55 11.01 0.4 0 1 432.60 683.20
  L 432.58 685.10
  A 12.55 11.01 0.4 0 1 419.96 696.02
  L 401.78 695.89
  A 0.23 0.23 0.0 0 1 401.55 695.66
  L 401.71 672.20
  Z"
/>
<path d="
  M 602.56 672.27
  A 0.21 0.21 0.0 0 1 602.77 672.06
  L 621.30 672.02
  A 12.32 11.15 -0.1 0 1 633.64 683.15
  L 633.64 684.77
  A 12.32 11.15 -0.1 0 1 621.34 695.94
  L 602.81 695.98
  A 0.21 0.21 0.0 0 1 602.60 695.77
  L 602.56 672.27
  Z"
/>
<path d="
  M 331.86 701.93
  L 343.19 675.04
  A 0.38 0.38 0.0 0 1 343.89 675.04
  L 355.31 701.89
  A 0.38 0.38 0.0 0 1 354.96 702.42
  L 332.21 702.46
  A 0.38 0.38 0.0 0 1 331.86 701.93
  Z"
/>
<path d="
  M 488.56 675.43
  Q 489.00 675.42 489.25 676.00
  Q 494.26 687.26 500.44 701.97
  A 0.29 0.29 0.0 0 1 500.17 702.38
  Q 492.75 702.40 488.70 702.42
  Q 484.65 702.44 477.23 702.50
  A 0.29 0.29 0.0 0 1 476.96 702.10
  Q 482.98 687.32 487.86 676.00
  Q 488.11 675.43 488.56 675.43
  Z"
/>
</g>
<path fill="#018dd3" d="
  M 650.93 425.28
  A 0.56 0.56 0.0 0 1 651.50 425.51
  L 651.79 425.94
  A 0.11 0.10 -28.4 0 1 651.74 426.10
  L 645.32 428.51
  A 0.97 0.82 -68.0 0 0 645.11 428.62
  L 639.42 432.70
  A 0.40 0.39 80.1 0 1 638.81 432.27
  Q 638.91 431.94 640.52 427.68
  C 641.37 425.43 643.12 423.71 644.09 421.37
  A 0.50 0.50 0.0 0 1 645.03 421.42
  Q 646.40 426.14 650.93 425.28
  Z"
/>
</svg>
