<?xml version="1.0" encoding="UTF-8" standalone="no"?>
<svg
   version="1.1"
   viewBox="0.00 0.00 1024.00 1024.00"
   id="svg103"
   sodipodi:docname="tron.svg"
   inkscape:version="1.4.2 (ebf0e940, 2025-05-08)"
   xmlns:inkscape="http://www.inkscape.org/namespaces/inkscape"
   xmlns:sodipodi="http://sodipodi.sourceforge.net/DTD/sodipodi-0.dtd"
   xmlns="http://www.w3.org/2000/svg"
   xmlns:svg="http://www.w3.org/2000/svg">
  <defs
     id="defs103" />
  <sodipodi:namedview
     id="namedview103"
     pagecolor="#ffffff"
     bordercolor="#000000"
     borderopacity="0.25"
     inkscape:showpageshadow="2"
     inkscape:pageopacity="0.0"
     inkscape:pagecheckerboard="0"
     inkscape:deskcolor="#d1d1d1"
     inkscape:zoom="0.45845737"
     inkscape:cx="131.96429"
     inkscape:cy="609.6532"
     inkscape:window-width="1416"
     inkscape:window-height="906"
     inkscape:window-x="123"
     inkscape:window-y="25"
     inkscape:window-maximized="0"
     inkscape:current-layer="svg103" />
  <g
     fill="#fdfcfd"
     id="g32"
     style="fill:#1c427d;fill-opacity:1"
     transform="matrix(6.9166476,0,0,7.6725036,-2834.3729,-4891.9169)">
    <path
       d="m 449.66804,689.00877 v 52.56 a 0.61,0.61 0 0 1 -0.61,0.61 h -15.68 a 0.41,0.41 0 0 1 -0.41,-0.41 v -79.06 a 0.5,0.5 0 0 1 0.5,-0.5 h 18.34 a 0.95,0.97 76.1 0 1 0.85,0.5 l 31.12,56.54 a 0.26,0.25 44.7 0 0 0.45,0 l 30.01,-56.6 a 0.68,0.67 13.8 0 1 0.6,-0.36 h 19.39 a 0.49,0.49 0 0 1 0.49,0.49 v 78.84 a 0.67,0.68 0 0 1 -0.67,0.68 h -15.56 a 0.53,0.54 0 0 1 -0.53,-0.54 v -52.27 a 0.21,0.21 0 0 0 -0.39,-0.1 l -27.7,52.24 a 1.26,1.24 13.7 0 1 -1.11,0.66 h -9.68 a 0.95,0.97 76.1 0 1 -0.85,-0.5 l -28.4,-52.82 a 0.08,0.09 31.2 0 0 -0.16,0.04 z"
       id="path25"
       style="fill:#1c427d;fill-opacity:1" />
  </g>
</svg>
