<?xml version="1.0" encoding="UTF-8" standalone="no"?>
<!DOCTYPE svg PUBLIC "-//W3C//DTD SVG 1.1//EN" "http://www.w3.org/Graphics/SVG/1.1/DTD/svg11.dtd">
<svg xmlns="http://www.w3.org/2000/svg" version="1.1" viewBox="0.00 0.00 1024.00 1024.00">
<path fill="#232223" d="
  M 1024.00 0.00
  L 1024.00 1024.00
  L 0.00 1024.00
  L 0.00 0.00
  L 1024.00 0.00
  Z"
/>
<g stroke-width="2.00" fill="none" stroke-linecap="butt">
<path stroke="#b9afc0" vector-effect="non-scaling-stroke" d="
  M 698.51 218.03
  Q 721.23 249.20 734.99 285.21
  Q 746.86 316.24 752.06 348.04
  A 0.67 0.67 0.0 0 1 751.35 348.82
  C 733.47 347.47 714.84 348.88 697.63 354.60
  C 677.19 361.40 664.46 376.08 657.85 396.22
  A 3.51 3.47 -45.5 0 0 657.86 398.39
  Q 668.70 430.46 666.50 465.30
  A 0.27 0.27 0.0 0 0 666.98 465.49
  Q 669.36 462.61 673.32 458.57
  Q 713.73 417.32 753.53 377.71
  A 0.38 0.37 -22.5 0 1 754.17 377.97
  L 754.17 756.87
  A 0.33 0.32 -89.1 0 0 754.48 757.20
  Q 773.93 757.93 793.50 758.97
  Q 793.94 758.99 794.22 758.46"
/>
<path stroke="#b9afc0" vector-effect="non-scaling-stroke" d="
  M 232.79 759.01
  L 270.23 757.30
  A 0.14 0.14 0.0 0 0 270.37 757.16
  L 270.37 378.20
  A 0.36 0.36 0.0 0 1 270.96 377.92
  C 277.91 383.50 282.41 388.83 291.01 397.67
  Q 298.43 405.31 353.01 459.50
  Q 355.17 461.66 356.97 463.74
  A 0.20 0.19 -67.1 0 0 357.31 463.60
  C 354.22 412.80 372.70 363.92 412.16 331.20
  A 0.80 0.78 -29.0 0 0 412.41 330.37
  C 407.53 313.82 401.77 298.52 392.70 284.08
  Q 387.25 275.40 381.35 269.52
  A 2.11 2.10 57.1 0 0 379.13 269.04
  L 364.85 274.37
  A 1.44 1.43 -27.1 0 1 363.15 273.83
  Q 344.59 246.42 319.10 225.40
  Q 318.50 224.91 318.04 224.98"
/>
</g>
<g fill="#fdfdfd">
<path d="
  M 698.51 218.03
  Q 713.80 227.74 722.50 233.75
  Q 742.69 247.72 760.90 264.60
  Q 827.58 326.46 857.90 411.86
  C 881.94 479.58 883.63 555.89 864.33 624.99
  Q 847.71 684.48 811.73 735.36
  C 806.70 742.47 800.01 750.72 794.22 758.46
  Q 793.94 758.99 793.50 758.97
  Q 773.93 757.93 754.48 757.20
  A 0.33 0.32 -89.1 0 1 754.17 756.87
  L 754.17 377.97
  A 0.38 0.37 -22.5 0 0 753.53 377.71
  Q 713.73 417.32 673.32 458.57
  Q 669.36 462.61 666.98 465.49
  A 0.27 0.27 0.0 0 1 666.50 465.30
  Q 668.70 430.46 657.86 398.39
  A 3.51 3.47 -45.5 0 1 657.85 396.22
  C 664.46 376.08 677.19 361.40 697.63 354.60
  C 714.84 348.88 733.47 347.47 751.35 348.82
  A 0.67 0.67 0.0 0 0 752.06 348.04
  Q 746.86 316.24 734.99 285.21
  Q 721.23 249.20 698.51 218.03
  Z"
/>
<path d="
  M 318.04 224.98
  Q 318.50 224.91 319.10 225.40
  Q 344.59 246.42 363.15 273.83
  A 1.44 1.43 -27.1 0 0 364.85 274.37
  L 379.13 269.04
  A 2.11 2.10 57.1 0 1 381.35 269.52
  Q 387.25 275.40 392.70 284.08
  C 401.77 298.52 407.53 313.82 412.41 330.37
  A 0.80 0.78 -29.0 0 1 412.16 331.20
  C 372.70 363.92 354.22 412.80 357.31 463.60
  A 0.20 0.19 -67.1 0 1 356.97 463.74
  Q 355.17 461.66 353.01 459.50
  Q 298.43 405.31 291.01 397.67
  C 282.41 388.83 277.91 383.50 270.96 377.92
  A 0.36 0.36 0.0 0 0 270.37 378.20
  L 270.37 757.16
  A 0.14 0.14 0.0 0 1 270.23 757.30
  L 232.79 759.01
  Q 203.41 724.87 184.73 687.27
  Q 146.32 609.97 147.87 523.00
  Q 149.35 439.43 187.27 365.25
  C 216.72 307.61 262.10 257.90 318.04 224.98
  Z"
/>
</g>
<path fill="#756183" d="
  M 698.51 218.03
  Q 721.23 249.20 734.99 285.21
  Q 746.86 316.24 752.06 348.04
  A 0.67 0.67 0.0 0 1 751.35 348.82
  C 733.47 347.47 714.84 348.88 697.63 354.60
  C 677.19 361.40 664.46 376.08 657.85 396.22
  A 3.51 3.47 -45.5 0 0 657.86 398.39
  Q 668.70 430.46 666.50 465.30
  A 0.27 0.27 0.0 0 0 666.98 465.49
  Q 669.36 462.61 673.32 458.57
  Q 713.73 417.32 753.53 377.71
  A 0.38 0.37 -22.5 0 1 754.17 377.97
  L 754.17 756.87
  A 0.33 0.32 -89.1 0 0 754.48 757.20
  Q 773.93 757.93 793.50 758.97
  Q 793.94 758.99 794.22 758.46
  L 794.45 758.70
  A 1.03 0.99 67.3 0 0 795.08 758.97
  Q 847.31 761.74 900.22 766.17
  A 0.40 0.39 -67.3 0 1 900.48 766.82
  L 866.54 806.90
  A 4.15 4.13 -25.9 0 0 865.55 809.74
  L 869.70 932.82
  A 0.67 0.67 0.0 0 1 868.97 933.51
  Q 777.75 925.11 692.26 921.34
  C 584.55 916.59 477.00 916.41 368.00 919.21
  C 338.15 919.98 312.81 921.46 273.01 923.85
  Q 213.63 927.41 157.74 933.06
  A 0.62 0.61 87.6 0 1 157.06 932.43
  L 160.77 809.57
  A 5.10 5.08 -64.6 0 0 159.56 806.14
  L 125.78 766.65
  A 0.62 0.62 0.0 0 1 126.21 765.63
  L 232.79 759.01
  L 270.23 757.30
  A 0.14 0.14 0.0 0 0 270.37 757.16
  L 270.37 378.20
  A 0.36 0.36 0.0 0 1 270.96 377.92
  C 277.91 383.50 282.41 388.83 291.01 397.67
  Q 298.43 405.31 353.01 459.50
  Q 355.17 461.66 356.97 463.74
  A 0.20 0.19 -67.1 0 0 357.31 463.60
  C 354.22 412.80 372.70 363.92 412.16 331.20
  A 0.80 0.78 -29.0 0 0 412.41 330.37
  C 407.53 313.82 401.77 298.52 392.70 284.08
  Q 387.25 275.40 381.35 269.52
  A 2.11 2.10 57.1 0 0 379.13 269.04
  L 364.85 274.37
  A 1.44 1.43 -27.1 0 1 363.15 273.83
  Q 344.59 246.42 319.10 225.40
  Q 318.50 224.91 318.04 224.98
  Q 317.96 224.78 317.91 224.64
  A 0.92 0.86 -82.7 0 0 317.61 224.22
  Q 288.45 201.92 253.78 189.85
  A 0.58 0.58 0.0 0 1 253.61 188.86
  Q 254.72 187.96 265.52 179.27
  C 294.49 155.99 326.48 138.75 361.44 126.26
  Q 396.03 113.90 431.43 109.65
  Q 469.36 105.10 503.42 109.13
  C 578.97 118.07 652.44 156.18 698.51 218.03
  Z"
/>
<path stroke="#909090" stroke-width="2.00" fill="none" stroke-linecap="butt" vector-effect="non-scaling-stroke" d="
  M 644.60 342.86
  Q 640.87 333.88 638.53 329.72
  Q 622.52 301.31 598.31 281.75
  Q 567.96 257.23 527.19 248.16
  Q 488.46 239.53 446.23 248.21
  Q 423.63 252.85 401.47 263.62
  A 0.36 0.35 -27.9 0 0 401.31 264.12
  L 406.39 272.91
  A 0.82 0.82 0.0 0 0 407.41 273.26
  C 410.53 272.01 415.36 269.62 418.56 268.45
  Q 437.24 261.58 455.87 257.13
  Q 491.36 248.65 527.17 255.37
  Q 538.62 257.52 548.42 262.39"
/>
<g fill="#232223">
<path d="
  M 644.60 342.86
  Q 640.87 333.88 638.53 329.72
  Q 622.52 301.31 598.31 281.75
  Q 567.96 257.23 527.19 248.16
  Q 488.46 239.53 446.23 248.21
  Q 423.63 252.85 401.47 263.62
  A 0.36 0.35 -27.9 0 0 401.31 264.12
  L 406.39 272.91
  A 0.82 0.82 0.0 0 0 407.41 273.26
  C 410.53 272.01 415.36 269.62 418.56 268.45
  Q 437.24 261.58 455.87 257.13
  Q 491.36 248.65 527.17 255.37
  Q 538.62 257.52 548.42 262.39
  Q 544.23 261.70 540.25 259.80
  A 4.62 4.34 62.8 0 0 539.49 259.53
  Q 532.86 257.89 527.30 257.97
  C 499.92 258.38 470.24 271.43 466.32 301.65
  A 0.62 0.61 -5.3 0 1 465.89 302.16
  Q 449.84 307.21 436.10 315.57
  Q 427.85 320.60 420.81 325.09
  A 0.23 0.22 -24.0 0 1 420.48 324.97
  C 417.82 316.15 414.84 307.08 410.17 297.33
  Q 405.17 286.91 402.06 281.64
  Q 396.99 273.05 389.01 264.64
  A 0.47 0.46 52.9 0 1 389.10 263.93
  Q 402.68 255.61 417.80 249.81
  Q 417.96 249.75 418.36 249.48
  A 0.20 0.20 0.0 0 0 418.22 249.11
  Q 396.23 251.58 375.87 260.32
  C 373.35 261.40 370.85 262.35 368.06 264.07
  A 0.98 0.97 57.6 0 1 366.74 263.77
  C 357.36 249.39 346.53 236.68 333.30 225.23
  Q 323.16 216.45 317.48 212.09
  C 304.25 201.94 288.05 193.56 272.54 187.18
  A 0.55 0.54 -52.5 0 1 272.42 186.24
  Q 338.85 134.90 421.78 121.12
  C 445.14 117.24 471.57 116.78 496.45 118.90
  C 536.41 122.31 575.43 134.54 610.41 154.07
  Q 652.39 177.51 682.99 213.77
  C 699.01 232.74 711.24 253.32 721.35 275.67
  C 730.34 295.55 736.12 317.02 741.28 338.41
  A 0.61 0.61 0.0 0 1 740.67 339.17
  Q 730.54 338.85 719.47 340.31
  C 704.77 342.25 690.79 345.51 679.36 352.86
  Q 670.57 358.52 662.65 368.04
  C 660.34 370.83 658.93 373.78 657.23 376.76
  A 0.27 0.27 0.0 0 1 656.73 376.68
  Q 653.30 358.90 644.60 342.86
  Z"
/>
<path d="
  M 468.92 722.98
  Q 468.90 722.98 468.85 723.00
  A 0.20 0.13 50.6 0 1 468.68 722.95
  Q 463.14 717.30 430.02 686.22
  C 426.85 683.25 423.14 679.22 419.65 675.94
  Q 388.08 646.24 372.51 632.02
  A 1.39 1.37 -71.9 0 1 372.06 631.12
  Q 371.85 629.13 372.39 626.18
  Q 377.87 596.44 382.24 567.25
  Q 383.03 562.04 383.39 558.40
  A 12.37 12.25 40.5 0 0 383.02 553.98
  C 379.72 541.78 377.89 532.13 373.00 509.26
  Q 368.56 488.49 366.84 468.01
  Q 364.27 437.38 371.88 409.58
  C 379.64 381.22 396.35 355.12 419.48 336.72
  Q 456.78 307.05 504.53 304.89
  Q 540.40 303.27 573.01 318.14
  Q 594.59 327.98 613.46 345.55
  C 649.87 379.44 662.80 428.27 656.98 476.57
  Q 654.39 498.03 649.46 518.00
  Q 645.23 535.08 640.37 556.41
  A 6.42 6.39 47.6 0 0 640.27 558.71
  L 650.23 629.06
  A 2.26 2.25 -25.7 0 1 649.54 631.01
  Q 616.99 661.59 585.34 692.83
  C 576.63 701.44 564.41 712.73 554.41 723.53
  A 0.56 0.56 0.0 0 1 553.44 723.15
  L 553.44 526.03
  A 0.67 0.67 0.0 0 1 553.99 525.37
  Q 568.08 522.57 580.60 514.61
  Q 609.72 496.09 610.29 461.04
  A 0.31 0.31 0.0 0 0 609.92 460.73
  Q 605.31 461.68 602.07 462.60
  Q 582.37 468.20 559.59 477.72
  C 547.84 482.64 537.75 488.25 526.09 494.63
  A 0.97 0.95 74.2 0 0 525.59 495.54
  Q 528.52 537.43 530.77 586.00
  Q 530.89 588.50 530.44 590.37
  A 1.51 1.46 72.6 0 1 530.17 590.91
  L 512.50 613.43
  A 0.88 0.88 0.0 0 1 511.14 613.46
  L 492.17 591.29
  A 1.85 1.84 27.0 0 1 491.74 589.98
  L 498.03 496.63
  A 1.93 1.92 -74.4 0 0 497.01 494.80
  C 478.69 485.04 462.13 478.07 440.15 469.89
  Q 428.46 465.54 416.78 462.65
  A 0.53 0.53 0.0 0 0 416.12 463.14
  C 415.83 469.76 415.79 475.68 417.73 481.70
  C 425.43 505.55 446.02 519.58 469.65 525.19
  A 0.92 0.92 0.0 0 1 470.35 526.08
  L 469.25 722.69
  A 0.29 0.29 0.0 0 1 468.92 722.98
  Z"
/>
<path d="
  M 650.59 566.02
  Q 649.27 558.87 650.15 555.18
  Q 657.23 525.40 662.21 501.48
  Q 664.54 490.32 665.73 479.99
  A 2.57 2.55 72.1 0 1 666.53 478.41
  Q 669.33 475.80 689.75 454.93
  C 702.62 441.78 720.57 424.24 737.61 406.61
  Q 738.78 405.40 743.60 401.10
  A 0.28 0.28 0.0 0 1 744.06 401.27
  Q 744.42 403.87 744.42 404.78
  Q 744.14 562.44 744.22 662.28
  Q 744.28 735.78 744.39 766.50
  A 0.69 0.68 90.0 0 0 745.07 767.19
  Q 753.62 767.26 760.25 767.65
  Q 772.87 768.40 793.06 769.45
  Q 839.10 771.84 878.30 775.22
  A 0.78 0.77 -66.8 0 1 878.81 776.51
  L 855.63 802.91
  A 2.78 2.78 0.0 0 0 854.94 804.82
  L 858.87 921.15
  A 0.76 0.76 0.0 0 1 858.04 921.92
  Q 811.66 917.43 762.77 914.24
  Q 734.70 912.41 676.64 909.43
  C 662.15 908.69 649.31 908.96 634.03 908.19
  Q 622.49 907.62 592.93 907.17
  Q 499.98 905.75 404.25 907.31
  Q 399.93 907.38 388.50 907.69
  Q 309.47 909.88 233.08 915.83
  A 0.44 0.43 -2.4 0 1 232.60 915.40
  L 232.60 905.20
  A 0.36 0.35 88.5 0 0 232.23 904.84
  L 222.80 905.33
  A 0.89 0.89 0.0 0 0 221.95 906.22
  L 221.95 916.09
  A 0.56 0.55 88.4 0 1 221.43 916.65
  Q 196.96 918.08 169.00 921.31
  A 0.59 0.59 0.0 0 1 168.34 920.70
  L 171.83 804.88
  A 2.27 2.26 25.3 0 0 171.28 803.35
  L 146.84 775.59
  A 0.43 0.43 0.0 0 1 147.13 774.88
  Q 215.07 770.02 278.99 767.23
  A 1.31 1.30 88.9 0 0 280.24 765.92
  L 280.24 400.69
  A 0.30 0.30 0.0 0 1 280.75 400.48
  L 357.53 477.27
  A 4.61 4.57 -71.1 0 1 358.84 479.97
  Q 359.86 488.74 361.57 497.98
  Q 366.50 524.58 372.69 549.09
  Q 372.93 550.05 374.33 557.25
  Q 374.64 558.80 373.17 566.00
  A 0.43 0.42 23.3 0 1 372.51 566.26
  C 371.94 565.87 370.51 563.44 369.49 562.32
  Q 350.48 541.43 343.90 534.16
  A 0.26 0.26 0.0 0 0 343.45 534.33
  L 343.45 764.42
  A 0.92 0.91 89.7 0 0 344.37 765.34
  C 355.36 765.27 367.73 764.59 377.25 764.40
  Q 468.17 762.67 517.75 762.90
  Q 599.80 763.29 680.41 765.45
  A 0.74 0.73 0.8 0 0 681.17 764.72
  L 681.07 534.48
  A 0.30 0.29 70.3 0 0 680.59 534.25
  Q 680.47 534.35 678.87 535.86
  Q 674.38 540.09 660.18 556.42
  Q 659.37 557.35 651.22 566.20
  A 0.37 0.36 -28.8 0 1 650.59 566.02
  Z"
/>
</g>
<g fill="#fdfdfd">
<path d="
  M 644.60 342.86
  Q 645.32 347.83 645.90 352.61
  Q 646.60 358.30 646.69 362.42
  Q 646.89 371.35 647.22 374.38
  A 0.12 0.12 0.0 0 1 647.00 374.45
  Q 643.04 367.30 638.03 360.49
  Q 620.23 336.32 596.48 320.97
  C 560.51 297.73 518.17 290.34 476.12 299.65
  A 0.16 0.15 -88.5 0 1 475.94 299.45
  C 480.84 282.61 493.12 273.29 510.06 269.08
  C 530.64 263.96 554.24 269.37 572.73 279.96
  A 0.25 0.24 -6.8 0 0 573.03 279.58
  Q 566.40 272.57 558.22 267.28
  Q 552.72 263.72 548.42 262.39
  Q 538.62 257.52 527.17 255.37
  Q 491.36 248.65 455.87 257.13
  Q 437.24 261.58 418.56 268.45
  C 415.36 269.62 410.53 272.01 407.41 273.26
  A 0.82 0.82 0.0 0 1 406.39 272.91
  L 401.31 264.12
  A 0.36 0.35 -27.9 0 1 401.47 263.62
  Q 423.63 252.85 446.23 248.21
  Q 488.46 239.53 527.19 248.16
  Q 567.96 257.23 598.31 281.75
  Q 622.52 301.31 638.53 329.72
  Q 640.87 333.88 644.60 342.86
  Z"
/>
<path d="
  M 352.78 559.31
  A 0.26 0.26 0.0 0 1 353.23 559.11
  L 371.57 578.17
  A 0.40 0.39 -63.7 0 1 371.68 578.51
  L 362.45 632.06
  A 1.35 1.33 -63.7 0 0 362.85 633.26
  L 476.54 741.24
  A 0.30 0.29 21.9 0 0 477.04 741.03
  L 478.45 519.82
  A 0.94 0.93 -84.4 0 0 477.70 518.90
  Q 461.90 515.89 448.84 508.88
  C 435.56 501.76 426.13 488.29 423.62 473.39
  A 0.35 0.35 0.0 0 1 424.08 473.00
  Q 456.35 483.74 488.03 499.16
  A 1.66 1.66 0.0 0 1 488.96 500.77
  Q 485.80 544.10 483.10 587.68
  C 482.90 590.86 483.07 592.41 485.02 594.99
  C 493.44 606.11 503.97 617.60 511.47 626.95
  A 0.44 0.44 0.0 0 0 512.16 626.95
  L 538.42 593.48
  A 5.37 5.37 0.0 0 0 539.56 589.87
  L 534.96 500.01
  A 1.25 1.23 -15.3 0 1 535.64 498.83
  Q 559.79 486.56 584.76 477.27
  Q 592.10 474.54 600.59 472.08
  A 0.24 0.24 0.0 0 1 600.90 472.32
  C 599.97 484.84 592.45 497.19 583.04 504.52
  C 571.87 513.21 559.37 517.22 545.56 519.32
  A 0.60 0.59 86.1 0 0 545.05 519.91
  L 545.05 742.11
  A 0.33 0.33 0.0 0 0 545.61 742.35
  L 659.40 632.87
  A 1.38 1.38 0.0 0 0 659.81 631.68
  L 652.31 578.69
  A 0.59 0.57 63.3 0 1 652.46 578.21
  L 671.18 558.50
  A 0.25 0.25 0.0 0 1 671.61 558.67
  L 671.61 754.70
  A 0.56 0.55 0.5 0 1 671.04 755.25
  Q 510.74 751.34 353.58 755.06
  A 0.36 0.36 0.0 0 1 353.21 754.70
  Q 353.33 652.81 353.27 563.24
  C 353.27 561.60 352.87 560.62 352.78 559.31
  Z"
/>
</g>
<path stroke="#b9afc0" stroke-width="2.00" fill="none" stroke-linecap="butt" vector-effect="non-scaling-stroke" d="
  M 614.66 474.30
  L 614.26 474.27"
/>
<g fill="#fdfdfd">
<path d="
  M 658.33 364.97
  C 653.32 343.03 644.99 321.91 632.44 303.24
  Q 611.08 271.49 577.30 252.02
  Q 567.06 246.12 551.37 240.03
  C 519.91 227.81 485.72 224.46 452.66 230.31
  Q 437.64 232.97 411.60 240.88
  Q 391.03 247.13 371.59 254.93
  A 0.90 0.89 61.4 0 1 370.53 254.61
  Q 354.86 232.52 333.91 214.32
  Q 313.73 196.78 289.84 186.11
  A 0.40 0.40 0.0 0 1 289.77 185.42
  Q 312.39 169.17 335.99 157.97
  Q 372.40 140.71 410.53 133.48
  C 443.58 127.21 476.74 125.86 510.04 130.41
  Q 533.60 133.64 552.29 139.45
  C 589.45 151.00 624.40 170.34 653.47 196.55
  Q 688.57 228.18 708.92 270.81
  Q 719.70 293.37 726.05 317.89
  A 0.85 0.85 0.0 0 1 725.30 318.95
  L 672.71 323.43
  A 0.15 0.15 0.0 0 1 672.64 323.14
  Q 687.72 316.71 703.53 310.80
  Q 706.60 309.65 708.83 309.13
  A 0.51 0.51 0.0 0 0 709.20 308.48
  Q 698.53 275.33 676.63 246.33
  Q 664.97 230.89 654.17 219.77
  A 0.60 0.60 0.0 0 0 653.42 219.68
  Q 634.98 231.48 618.94 243.65
  A 0.22 0.22 0.0 0 1 618.63 243.34
  L 643.20 209.78
  A 0.54 0.53 -52.8 0 0 643.10 209.04
  Q 625.74 195.33 601.01 185.47
  Q 568.98 172.70 534.31 166.33
  A 0.80 0.79 -69.9 0 0 533.48 166.72
  L 510.71 206.15
  A 0.28 0.28 0.0 0 1 510.20 205.96
  L 519.68 150.91
  A 0.66 0.65 9.4 0 0 519.13 150.15
  Q 480.39 144.81 440.69 146.48
  A 0.50 0.50 0.0 0 0 440.23 147.08
  Q 443.66 163.66 445.87 177.17
  A 0.07 0.07 0.0 0 1 445.74 177.22
  L 433.86 155.02
  A 0.47 0.47 0.0 0 0 432.97 155.22
  L 432.05 185.67
  A 0.41 0.41 0.0 0 1 431.24 185.73
  L 423.93 148.32
  A 0.76 0.75 -10.8 0 0 423.05 147.73
  Q 381.53 155.94 344.69 178.60
  A 0.83 0.83 0.0 0 0 344.45 179.77
  Q 359.28 201.38 372.92 224.45
  C 373.93 226.16 375.47 228.09 376.71 230.15
  A 0.15 0.15 0.0 0 1 376.47 230.34
  C 365.08 218.94 352.12 208.82 339.11 198.58
  A 0.21 0.21 0.0 0 0 338.81 198.88
  Q 351.65 214.90 361.74 230.04
  Q 368.72 240.52 372.09 248.67
  A 0.70 0.70 0.0 0 0 373.10 249.01
  C 373.67 248.66 374.29 247.85 375.09 247.33
  Q 404.91 227.60 441.10 220.62
  C 499.29 209.39 558.39 224.10 604.57 261.02
  Q 619.67 273.09 632.56 290.48
  Q 656.90 323.32 658.63 364.93
  A 0.15 0.15 0.0 0 1 658.33 364.97
  Z"
/>
<path d="
  M 624.66 263.48
  C 633.50 272.93 641.72 283.78 647.11 295.46
  A 0.53 0.34 48.6 0 1 647.15 295.72
  Q 647.14 295.76 647.14 295.78
  A 0.03 0.03 0.0 0 1 647.08 295.79
  C 640.04 284.76 631.97 274.79 622.92 265.11
  C 613.86 255.44 604.45 246.72 593.92 238.96
  A 0.03 0.03 0.0 0 1 593.93 238.90
  Q 593.95 238.91 593.99 238.90
  A 0.53 0.34 45.2 0 1 594.25 238.96
  C 605.54 245.11 615.82 254.04 624.66 263.48
  Z"
/>
<path d="
  M 451.64 265.80
  Q 439.17 270.27 427.69 276.61
  A 0.11 0.11 0.0 0 0 427.65 276.74
  L 437.87 308.46
  A 0.67 0.66 -22.8 0 1 437.55 309.24
  L 426.86 314.96
  A 0.53 0.52 66.5 0 1 426.11 314.66
  Q 420.27 297.25 411.43 280.03
  A 0.54 0.54 0.0 0 1 411.69 279.29
  Q 428.24 271.88 447.26 266.58
  Q 449.63 265.91 451.61 265.67
  A 0.07 0.07 0.0 0 1 451.64 265.80
  Z"
/>
<path d="
  M 610.50 353.37
  Q 597.11 344.28 597.03 344.24
  Q 571.05 328.22 541.94 321.34
  Q 532.25 319.04 523.45 318.23
  A 1.17 1.17 0.0 0 0 522.19 319.23
  Q 517.66 350.75 515.94 384.25
  C 514.64 409.59 513.95 435.58 513.83 461.26
  Q 513.38 561.83 513.03 598.54
  Q 512.99 603.33 512.60 605.85
  A 0.83 0.83 0.0 0 1 511.16 606.27
  L 497.51 590.75
  A 1.93 1.91 26.0 0 1 497.03 589.38
  L 502.36 494.81
  A 2.61 2.59 18.6 0 0 501.20 492.49
  Q 496.22 489.18 491.21 486.32
  Q 459.52 468.23 424.76 459.24
  Q 414.67 456.63 405.21 455.47
  A 0.37 0.36 59.7 0 0 405.03 456.17
  Q 407.30 457.14 407.79 460.08
  C 410.83 478.47 418.69 501.66 434.50 513.55
  C 444.09 520.76 454.82 525.00 465.92 528.86
  A 0.79 0.79 0.0 0 1 466.44 529.60
  C 466.38 590.04 464.90 663.67 464.02 710.22
  A 0.11 0.11 0.0 0 1 463.84 710.29
  L 377.84 630.03
  A 0.83 0.82 27.0 0 1 377.59 629.28
  C 384.01 592.92 390.09 556.22 389.36 519.50
  C 389.22 512.54 388.79 504.58 387.10 496.32
  C 386.19 491.89 385.34 487.39 384.88 482.62
  L 384.88 482.63
  Q 384.15 502.17 383.36 521.70
  A 0.14 0.13 -2.4 0 1 383.23 521.83
  A 0.14 0.14 0.0 0 1 383.08 521.71
  Q 382.51 517.05 381.63 513.37
  Q 375.53 487.99 373.87 463.23
  Q 372.77 446.86 375.71 428.40
  Q 381.18 394.04 401.62 366.59
  C 427.71 331.56 470.29 311.38 514.18 312.35
  C 546.66 313.08 578.97 325.95 603.49 347.25
  Q 609.97 352.88 610.53 353.33
  A 0.03 0.02 82.1 0 1 610.50 353.37
  Z"
/>
<path d="
  M 642.95 409.41
  C 651.05 431.36 652.27 455.11 649.08 478.56
  C 646.76 495.57 642.65 513.07 639.25 530.51
  A 0.25 0.25 0.0 0 1 638.75 530.47
  L 638.10 493.21
  A 5.83 5.82 -35.3 0 1 638.47 491.06
  Q 639.37 488.66 642.71 481.72
  Q 647.92 470.89 648.47 458.50
  Q 649.41 437.23 645.15 419.53
  Q 643.62 413.17 642.80 409.45
  A 0.08 0.08 0.0 0 1 642.95 409.41
  Z"
/>
<path d="
  M 614.66 474.30
  C 612.79 489.32 605.30 502.13 596.04 515.29
  A 8.85 8.82 0.8 0 1 593.72 517.54
  C 584.78 523.44 574.71 527.48 564.24 532.29
  A 1.73 1.72 -13.9 0 0 563.24 533.94
  L 571.57 696.35
  A 3.51 3.49 65.5 0 1 570.62 698.92
  L 561.14 708.90
  A 0.26 0.25 66.7 0 1 560.70 708.72
  L 557.53 529.28
  A 0.88 0.88 0.0 0 1 558.20 528.41
  C 567.61 526.03 577.42 521.02 585.32 515.76
  C 599.59 506.24 609.39 490.65 614.26 474.27
  L 614.66 474.30
  Z"
/>
<path d="
  M 550.90 891.42
  A 0.45 0.45 0.0 0 1 550.63 890.62
  C 554.47 887.68 554.13 884.83 554.07 879.74
  Q 553.85 860.63 553.49 799.95
  A 0.46 0.45 0.0 0 0 553.03 799.50
  L 540.77 799.50
  A 2.90 2.89 22.9 0 0 538.76 800.31
  L 533.32 805.54
  A 0.35 0.34 -22.4 0 1 532.73 805.30
  L 532.73 775.31
  A 0.34 0.34 0.0 0 1 533.32 775.09
  Q 535.69 777.79 538.41 778.91
  A 4.30 4.26 -33.4 0 0 540.06 779.24
  Q 580.64 779.50 587.74 779.65
  C 592.00 779.74 593.49 778.09 596.11 775.73
  A 0.40 0.39 69.1 0 1 596.77 776.03
  L 596.77 805.33
  A 0.36 0.35 -67.1 0 1 596.16 805.58
  L 592.24 801.50
  A 5.36 5.35 -21.7 0 0 588.43 799.86
  L 577.85 799.80
  A 0.58 0.58 0.0 0 0 577.26 800.38
  Q 577.53 859.20 577.64 882.70
  C 577.66 886.49 578.55 888.57 581.26 890.79
  A 0.47 0.47 0.0 0 1 580.96 891.62
  L 550.90 891.42
  Z"
/>
<path d="
  M 452.68 891.14
  A 0.32 0.32 0.0 0 1 452.54 890.54
  Q 456.31 888.66 457.23 884.45
  Q 463.07 857.64 478.68 790.19
  Q 479.31 787.45 479.93 783.91
  A 0.93 0.90 36.5 0 0 479.83 783.30
  L 477.79 779.49
  A 0.45 0.44 -13.9 0 1 478.19 778.84
  L 510.35 778.84
  A 0.37 0.36 18.0 0 1 510.65 779.42
  C 508.98 781.63 508.46 784.33 509.14 787.16
  Q 520.83 836.20 532.13 885.26
  A 2.34 2.21 24.9 0 0 532.41 885.96
  Q 533.86 888.44 536.63 890.44
  A 0.47 0.47 0.0 0 1 536.35 891.30
  L 505.81 891.11
  A 0.39 0.38 27.6 0 1 505.59 890.41
  Q 509.04 887.98 508.20 884.03
  Q 506.81 877.50 505.55 870.76
  A 0.47 0.46 -5.2 0 0 505.09 870.38
  L 483.48 870.38
  A 0.77 0.76 4.4 0 0 482.72 871.02
  Q 481.62 877.74 480.58 882.09
  C 479.67 885.90 479.80 888.22 482.85 890.54
  A 0.34 0.33 63.6 0 1 482.65 891.14
  L 452.68 891.14
  Z"
/>
<path d="
  M 607.72 891.93
  A 0.38 0.38 0.0 0 1 607.51 891.25
  C 610.33 889.16 611.13 887.74 611.05 883.88
  Q 610.56 859.16 609.82 798.75
  Q 609.73 791.55 609.43 784.73
  A 1.25 1.24 25.5 0 0 609.19 784.06
  L 605.98 779.64
  A 0.35 0.35 0.0 0 1 606.27 779.09
  Q 655.96 780.41 660.20 780.31
  Q 665.27 780.20 668.09 781.76
  Q 674.26 785.19 674.67 793.27
  Q 675.39 807.19 674.95 816.29
  Q 674.80 819.42 675.27 825.24
  Q 675.41 827.02 675.60 834.23
  C 675.81 842.15 672.38 847.82 664.04 847.74
  A 0.49 0.49 0.0 0 0 663.59 848.45
  Q 664.78 850.86 665.68 853.57
  Q 671.42 870.72 676.35 884.90
  Q 678.30 890.51 682.55 893.45
  A 0.36 0.36 0.0 0 1 682.34 894.11
  L 651.60 893.19
  A 0.39 0.39 0.0 0 1 651.30 892.57
  L 653.17 890.00
  A 2.61 2.60 53.0 0 0 653.51 887.55
  L 638.64 847.72
  A 1.20 1.20 0.0 0 0 637.36 846.94
  Q 636.36 847.05 635.38 846.82
  A 0.76 0.76 0.0 0 0 634.44 847.57
  Q 634.73 873.42 634.77 885.00
  Q 634.79 889.06 637.78 891.39
  A 0.80 0.80 0.0 0 1 637.26 892.82
  L 607.72 891.93
  Z"
/>
<path d="
  M 375.03 780.62
  A 0.21 0.21 0.0 0 1 375.18 780.26
  Q 402.45 779.64 432.25 779.46
  Q 439.30 779.41 442.58 786.21
  Q 443.69 788.52 443.69 796.02
  Q 443.71 817.18 444.06 831.02
  Q 444.13 833.83 443.71 837.75
  C 443.12 843.41 436.81 846.62 431.66 846.42
  A 0.33 0.33 0.0 0 0 431.34 846.86
  Q 437.60 863.54 444.49 883.14
  C 445.63 886.37 446.79 888.11 449.22 890.45
  A 0.48 0.48 0.0 0 1 448.90 891.27
  L 419.06 891.80
  A 0.53 0.53 0.0 0 1 418.65 890.92
  L 420.62 888.67
  A 1.42 1.40 56.2 0 0 420.89 887.26
  L 406.70 847.50
  A 1.00 0.99 79.7 0 0 405.75 846.84
  L 403.39 846.89
  A 0.68 0.68 0.0 0 0 402.72 847.56
  Q 402.66 858.84 402.58 883.28
  C 402.57 887.79 403.44 888.36 406.55 891.10
  A 0.48 0.48 0.0 0 1 406.24 891.94
  L 374.90 892.50
  A 0.43 0.43 0.0 0 1 374.61 891.75
  C 377.10 889.55 378.66 888.23 378.64 884.51
  Q 378.58 865.98 378.50 789.25
  Q 378.49 784.24 375.03 780.62
  Z"
/>
<path d="
  M 343.22 781.41
  L 341.13 785.01
  A 2.32 2.27 -37.1 0 0 340.89 786.63
  L 364.04 887.14
  A 0.86 0.85 -66.6 0 0 364.15 887.42
  Q 365.58 889.90 368.52 891.69
  A 0.53 0.53 0.0 0 1 368.26 892.68
  L 337.94 893.70
  A 0.58 0.58 0.0 0 1 337.53 892.69
  C 340.86 889.67 339.89 887.12 338.96 882.55
  Q 338.96 882.54 337.12 873.21
  A 0.73 0.73 0.0 0 0 336.37 872.62
  L 315.18 873.71
  A 0.74 0.72 4.0 0 0 314.50 874.29
  L 311.56 889.05
  A 4.01 3.98 -59.8 0 0 312.44 892.43
  L 313.76 893.98
  A 0.54 0.53 -21.9 0 1 313.38 894.86
  L 284.13 896.35
  A 0.34 0.23 41.8 0 1 283.98 896.33
  Q 283.76 896.26 283.71 896.24
  A 0.39 0.39 0.0 0 1 283.66 895.57
  C 286.32 893.74 287.59 892.53 288.58 889.24
  Q 289.63 885.76 289.94 884.43
  Q 299.02 844.85 312.31 787.69
  A 1.97 1.93 -46.7 0 0 312.29 786.70
  Q 311.68 784.64 310.25 782.66
  A 0.49 0.48 -18.9 0 1 310.63 781.89
  L 342.85 780.80
  A 0.41 0.41 0.0 0 1 343.22 781.41
  Z"
/>
<path d="
  M 747.61 783.55
  Q 753.35 785.83 755.57 791.28
  Q 756.51 793.59 756.56 799.25
  Q 756.99 845.00 757.97 884.25
  Q 758.05 887.44 757.15 890.14
  C 755.62 894.79 750.59 897.86 745.99 897.44
  Q 727.34 895.73 706.03 895.30
  Q 695.90 895.09 692.23 885.84
  Q 691.23 883.32 691.16 876.53
  Q 690.76 835.86 689.82 794.04
  C 689.67 787.12 694.29 781.09 702.04 781.38
  Q 727.64 782.33 746.60 783.33
  A 3.37 3.27 56.5 0 1 747.61 783.55
  Z"
/>
<path d="
  M 247.27 897.68
  C 247.94 896.98 248.76 896.53 249.65 895.23
  Q 251.09 893.13 251.16 889.01
  Q 251.65 861.86 251.67 840.47
  A 0.20 0.20 0.0 0 0 251.28 840.41
  L 236.70 885.01
  A 0.46 0.45 -82.2 0 1 236.30 885.32
  L 224.02 885.94
  A 0.72 0.71 79.5 0 1 223.30 885.44
  L 210.38 843.94
  A 0.34 0.34 0.0 0 0 209.71 844.04
  Q 209.27 865.69 208.65 892.31
  C 208.57 895.87 209.61 897.89 212.30 899.79
  A 0.35 0.35 0.0 0 1 212.13 900.42
  L 183.46 902.86
  A 0.49 0.49 0.0 0 1 183.11 901.98
  Q 185.94 899.74 186.05 895.25
  Q 187.21 848.28 188.33 796.01
  A 3.79 3.77 24.0 0 0 187.28 793.30
  L 183.65 789.53
  A 0.31 0.31 0.0 0 1 183.85 789.00
  L 212.62 787.53
  A 0.91 0.91 0.0 0 1 213.54 788.17
  L 230.59 842.92
  A 0.16 0.16 0.0 0 0 230.90 842.92
  L 249.65 785.57
  A 0.96 0.95 7.2 0 1 250.50 784.92
  L 279.40 783.44
  A 0.28 0.28 0.0 0 1 279.63 783.89
  L 276.45 787.93
  A 4.56 4.53 -26.0 0 0 275.49 790.69
  L 274.85 891.39
  A 3.01 3.00 -70.7 0 0 275.99 893.77
  L 278.53 895.76
  A 0.52 0.52 0.0 0 1 278.23 896.69
  L 247.53 898.26
  A 0.34 0.34 0.0 0 1 247.27 897.68
  Z"
/>
<path d="
  M 816.46 841.44
  A 0.41 0.40 33.0 0 0 817.24 841.28
  L 815.97 792.44
  A 0.77 0.72 26.9 0 0 815.80 791.97
  L 812.27 787.52
  A 0.22 0.22 0.0 0 1 812.46 787.16
  L 842.27 789.17
  A 0.50 0.49 17.7 0 1 842.66 789.92
  Q 842.34 790.46 841.24 791.28
  C 838.78 793.13 839.12 796.06 839.23 799.44
  Q 841.16 857.92 842.09 893.94
  Q 842.17 897.01 842.62 900.77
  A 2.50 2.43 -64.7 0 0 842.98 901.82
  L 843.64 902.90
  A 0.46 0.46 0.0 0 1 843.20 903.60
  L 821.15 901.45
  A 1.57 1.55 81.4 0 1 819.86 900.49
  L 795.67 843.01
  A 0.43 0.43 0.0 0 0 794.85 843.20
  Q 795.38 857.80 796.20 891.19
  C 796.29 894.95 796.91 897.14 799.58 899.68
  A 0.27 0.27 0.0 0 1 799.38 900.14
  L 770.10 898.17
  A 0.50 0.49 25.2 0 1 769.79 897.32
  Q 771.84 895.40 772.76 893.63
  A 3.40 3.34 -32.4 0 0 773.14 892.00
  L 770.50 790.39
  A 2.89 2.79 -58.0 0 0 770.30 789.45
  Q 769.28 786.89 766.56 784.69
  A 0.26 0.26 0.0 0 1 766.74 784.23
  L 792.51 785.68
  A 0.82 0.82 0.0 0 1 793.21 786.17
  L 816.46 841.44
  Z"
/>
</g>
<path fill="#756183" d="
  M 614.66 474.30
  L 614.26 474.27
  Q 614.21 473.95 614.51 473.78
  Q 614.68 473.69 614.66 474.30
  Z"
/>
<g fill="#232223">
<path d="
  M 382.30 458.00
  C 379.11 428.31 386.74 398.59 403.47 374.22
  C 423.32 345.29 456.24 327.44 490.51 320.80
  Q 492.78 320.36 494.19 320.37
  A 0.19 0.19 0.0 0 1 494.24 320.74
  Q 489.63 322.02 483.57 324.81
  Q 453.90 338.47 435.22 367.22
  Q 425.96 381.47 421.15 393.94
  A 0.35 0.34 51.6 0 1 420.49 393.86
  L 417.98 376.10
  A 0.31 0.31 0.0 0 0 417.42 375.97
  Q 410.11 386.85 407.79 390.54
  Q 393.20 413.66 386.44 437.70
  Q 384.20 445.67 382.66 458.00
  A 0.18 0.18 0.0 0 1 382.30 458.00
  Z"
/>
<path d="
  M 459.13 591.75
  Q 455.48 568.37 450.41 545.19
  A 2.37 2.37 0.0 0 1 451.05 543.00
  L 455.50 538.56
  A 0.45 0.44 41.0 0 0 455.45 537.89
  L 439.89 526.07
  A 0.05 0.05 0.0 0 1 439.88 526.00
  L 439.94 526.04
  A 3.61 3.43 -14.0 0 0 440.77 526.51
  L 460.30 534.34
  A 1.41 1.40 -78.5 0 1 461.19 535.69
  L 459.50 591.73
  A 0.19 0.19 0.0 0 1 459.13 591.75
  Z"
/>
<path d="
  M 458.00 634.54
  Q 457.99 634.62 458.03 634.66
  A 0.32 0.24 30.0 0 1 458.11 634.85
  L 457.61 693.95
  A 0.47 0.47 0.0 0 1 456.82 694.30
  L 410.89 652.77
  A 0.04 0.04 0.0 0 1 410.93 652.71
  Q 440.57 668.56 445.35 671.18
  C 447.20 672.20 449.10 673.48 450.85 674.73
  A 0.45 0.44 -67.3 0 0 451.55 674.44
  Q 455.74 649.20 457.90 634.57
  A 0.06 0.04 -49.8 0 1 458.00 634.54
  Z"
/>
<path d="
  M 402.73 800.24
  A 0.60 0.60 0.0 0 1 403.33 799.64
  L 415.53 799.64
  A 4.59 4.58 90.0 0 1 420.11 804.23
  L 420.11 824.21
  A 4.59 4.58 90.0 0 1 415.53 828.80
  L 403.33 828.80
  A 0.60 0.60 0.0 0 1 402.73 828.20
  L 402.73 800.24
  Z"
/>
<path d="
  M 634.25 799.59
  Q 641.59 799.54 647.71 800.19
  Q 651.51 800.59 651.53 804.22
  Q 651.64 817.91 651.75 825.24
  Q 651.80 828.58 649.27 829.26
  A 1.22 1.04 33.5 0 1 648.87 829.31
  L 635.10 828.90
  A 1.11 1.10 -89.7 0 1 634.03 827.81
  L 633.55 800.31
  A 0.70 0.70 0.0 0 1 634.25 799.59
  Z"
/>
<path d="
  M 732.35 876.05
  L 716.28 875.57
  A 1.43 1.43 0.0 0 1 714.90 874.17
  L 713.66 803.80
  A 1.43 1.43 0.0 0 1 715.13 802.35
  L 731.20 802.83
  A 1.43 1.43 0.0 0 1 732.58 804.23
  L 733.82 874.60
  A 1.43 1.43 0.0 0 1 732.35 876.05
  Z"
/>
<path d="
  M 486.83 852.01
  L 494.08 815.26
  A 0.33 0.33 0.0 0 1 494.73 815.26
  L 501.85 852.04
  A 0.33 0.33 0.0 0 1 501.53 852.43
  L 487.15 852.41
  A 0.33 0.33 0.0 0 1 486.83 852.01
  Z"
/>
<path d="
  M 326.15 817.39
  A 0.21 0.21 0.0 0 1 326.57 817.39
  L 333.87 854.77
  A 0.43 0.43 0.0 0 1 333.47 855.28
  L 318.92 855.77
  A 0.35 0.35 0.0 0 1 318.57 855.36
  L 326.15 817.39
  Z"
/>
</g>
</svg>
