<?xml version="1.0" encoding="UTF-8" standalone="no"?>
<!DOCTYPE svg PUBLIC "-//W3C//DTD SVG 1.1//EN" "http://www.w3.org/Graphics/SVG/1.1/DTD/svg11.dtd">
<svg xmlns="http://www.w3.org/2000/svg" version="1.1" viewBox="0.00 0.00 1024.00 1024.00">
<path fill="#dee2e9" d="
  M 1024.00 0.00
  L 1024.00 1024.00
  L 0.00 1024.00
  L 0.00 0.00
  L 1024.00 0.00
  Z"
/>
<g stroke-width="2.00" fill="none" stroke-linecap="butt">
<path stroke="#7e8187" vector-effect="non-scaling-stroke" d="
  M 310.70 589.79
  L 310.79 601.33
  A 2.34 2.33 -65.5 0 0 311.34 602.81
  Q 313.07 604.85 315.79 607.53
  Q 365.90 657.08 467.80 756.70
  Q 468.86 757.74 469.75 757.71
  A 0.80 0.79 -3.0 0 0 470.53 756.85
  L 446.49 478.50
  A 0.29 0.28 11.0 0 0 446.34 478.29
  L 367.24 436.59
  A 0.40 0.37 12.3 0 1 367.03 436.29
  L 359.84 380.13
  A 0.37 0.37 0.0 0 1 360.38 379.75
  L 495.23 447.32
  A 0.80 0.80 0.0 0 1 495.66 448.18
  C 489.58 482.45 483.42 516.92 476.28 551.17
  A 0.58 0.58 0.0 0 0 476.85 551.86
  L 547.15 551.86
  A 0.42 0.41 -5.7 0 0 547.56 551.37
  L 528.38 448.00
  A 0.72 0.72 0.0 0 1 528.76 447.24
  L 663.87 379.78
  A 0.36 0.36 0.0 0 1 664.38 380.15
  L 656.99 435.74
  A 1.76 1.75 80.0 0 1 656.07 437.06
  L 578.39 477.68
  A 1.10 1.09 78.5 0 0 577.81 478.56
  L 553.69 756.63
  A 1.22 1.22 0.0 0 0 555.76 757.60
  L 712.65 603.37
  A 2.34 2.34 0.0 0 0 713.36 601.69
  L 713.44 537.21"
/>
<path stroke="#7e8187" vector-effect="non-scaling-stroke" d="
  M 709.56 545.77
  L 709.65 599.98
  A 2.66 2.66 0.0 0 1 708.86 601.87
  L 558.81 749.38
  A 0.25 0.25 0.0 0 1 558.40 749.28
  Q 558.31 748.99 558.35 748.52
  Q 563.73 684.48 580.86 487.83
  Q 581.04 485.83 581.66 480.50
  A 0.91 0.91 0.0 0 1 582.14 479.81
  L 659.83 439.18
  A 0.85 0.84 80.6 0 0 660.28 438.54
  L 668.84 374.07
  A 0.38 0.38 0.0 0 0 668.30 373.68
  L 524.73 445.36
  A 0.65 0.64 72.4 0 0 524.38 446.05
  L 543.23 547.62
  A 0.66 0.66 0.0 0 1 542.58 548.40
  L 481.16 548.40
  A 0.35 0.34 5.5 0 1 480.82 547.99
  L 499.80 446.58
  A 1.12 1.11 18.8 0 0 499.20 445.37
  L 355.73 373.48
  A 0.28 0.28 0.0 0 0 355.32 373.77
  L 363.55 438.07
  A 1.29 1.29 0.0 0 0 364.22 439.03
  L 442.55 480.32
  A 0.56 0.55 11.4 0 1 442.84 480.75
  L 466.02 749.20
  A 0.30 0.29 -70.4 0 1 465.52 749.44
  L 315.67 602.42
  A 3.54 3.53 -68.1 0 1 314.60 599.91
  L 314.51 590.78"
/>
</g>
<path fill="#dee2e9" d="
  M 709.56 545.77
  Q 710.67 547.31 711.61 546.24
  C 714.08 543.44 712.82 540.49 713.44 537.21
  L 713.36 601.69
  A 2.34 2.34 0.0 0 1 712.65 603.37
  L 555.76 757.60
  A 1.22 1.22 0.0 0 1 553.69 756.63
  L 577.81 478.56
  A 1.10 1.09 78.5 0 1 578.39 477.68
  L 656.07 437.06
  A 1.76 1.75 80.0 0 0 656.99 435.74
  L 664.38 380.15
  A 0.36 0.36 0.0 0 0 663.87 379.78
  L 528.76 447.24
  A 0.72 0.72 0.0 0 0 528.38 448.00
  L 547.56 551.37
  A 0.42 0.41 -5.7 0 1 547.15 551.86
  L 476.85 551.86
  A 0.58 0.58 0.0 0 1 476.28 551.17
  C 483.42 516.92 489.58 482.45 495.66 448.18
  A 0.80 0.80 0.0 0 0 495.23 447.32
  L 360.38 379.75
  A 0.37 0.37 0.0 0 0 359.84 380.13
  L 367.03 436.29
  A 0.40 0.37 12.3 0 0 367.24 436.59
  L 446.34 478.29
  A 0.29 0.28 11.0 0 1 446.49 478.50
  L 470.53 756.85
  A 0.80 0.79 -3.0 0 1 469.75 757.71
  Q 468.86 757.74 467.80 756.70
  Q 365.90 657.08 315.79 607.53
  Q 313.07 604.85 311.34 602.81
  A 2.34 2.33 -65.5 0 1 310.79 601.33
  L 310.70 589.79
  C 312.81 589.24 313.04 591.05 314.51 590.78
  L 314.60 599.91
  A 3.54 3.53 -68.1 0 0 315.67 602.42
  L 465.52 749.44
  A 0.30 0.29 -70.4 0 0 466.02 749.20
  L 442.84 480.75
  A 0.56 0.55 11.4 0 0 442.55 480.32
  L 364.22 439.03
  A 1.29 1.29 0.0 0 1 363.55 438.07
  L 355.32 373.77
  A 0.28 0.28 0.0 0 1 355.73 373.48
  L 499.20 445.37
  A 1.12 1.11 18.8 0 1 499.80 446.58
  L 480.82 547.99
  A 0.35 0.34 5.5 0 0 481.16 548.40
  L 542.58 548.40
  A 0.66 0.66 0.0 0 0 543.23 547.62
  L 524.38 446.05
  A 0.65 0.64 72.4 0 1 524.73 445.36
  L 668.30 373.68
  A 0.38 0.38 0.0 0 1 668.84 374.07
  L 660.28 438.54
  A 0.85 0.84 80.6 0 1 659.83 439.18
  L 582.14 479.81
  A 0.91 0.91 0.0 0 0 581.66 480.50
  Q 581.04 485.83 580.86 487.83
  Q 563.73 684.48 558.35 748.52
  Q 558.31 748.99 558.40 749.28
  A 0.25 0.25 0.0 0 0 558.81 749.38
  L 708.86 601.87
  A 2.66 2.66 0.0 0 0 709.65 599.98
  L 709.56 545.77
  Z"
/>
<g fill="#1d1f24">
<path d="
  M 527.71 382.89
  L 496.13 382.89
  A 0.54 0.54 0.0 0 1 495.59 382.40
  L 465.44 71.96
  A 0.54 0.54 0.0 0 1 465.97 71.37
  L 558.23 71.37
  A 0.54 0.54 0.0 0 1 558.77 71.96
  L 528.25 382.40
  A 0.54 0.54 0.0 0 1 527.71 382.89
  Z"
/>
<path d="
  M 310.70 589.79
  L 310.79 601.33
  A 2.34 2.33 -65.5 0 0 311.34 602.81
  Q 313.07 604.85 315.79 607.53
  Q 365.90 657.08 467.80 756.70
  Q 468.86 757.74 469.75 757.71
  A 0.80 0.79 -3.0 0 0 470.53 756.85
  L 446.49 478.50
  A 0.29 0.28 11.0 0 0 446.34 478.29
  L 367.24 436.59
  A 0.40 0.37 12.3 0 1 367.03 436.29
  L 359.84 380.13
  A 0.37 0.37 0.0 0 1 360.38 379.75
  L 495.23 447.32
  A 0.80 0.80 0.0 0 1 495.66 448.18
  C 489.58 482.45 483.42 516.92 476.28 551.17
  A 0.58 0.58 0.0 0 0 476.85 551.86
  L 547.15 551.86
  A 0.42 0.41 -5.7 0 0 547.56 551.37
  L 528.38 448.00
  A 0.72 0.72 0.0 0 1 528.76 447.24
  L 663.87 379.78
  A 0.36 0.36 0.0 0 1 664.38 380.15
  L 656.99 435.74
  A 1.76 1.75 80.0 0 1 656.07 437.06
  L 578.39 477.68
  A 1.10 1.09 78.5 0 0 577.81 478.56
  L 553.69 756.63
  A 1.22 1.22 0.0 0 0 555.76 757.60
  L 712.65 603.37
  A 2.34 2.34 0.0 0 0 713.36 601.69
  L 713.44 537.21
  L 713.49 403.34
  A 9.61 9.44 53.4 0 1 713.83 400.89
  Q 719.28 381.31 721.98 370.51
  C 723.23 365.49 722.67 358.92 722.31 353.25
  Q 719.27 305.70 709.23 259.01
  Q 706.13 244.59 703.85 238.59
  C 699.49 227.10 690.77 218.46 681.83 210.17
  Q 668.46 197.77 655.33 187.41
  Q 612.53 153.64 565.87 123.46
  A 0.63 0.63 0.0 0 1 565.66 122.63
  L 566.69 120.69
  A 0.61 0.60 -58.8 0 1 567.55 120.47
  Q 593.97 138.27 611.33 150.42
  C 637.50 168.74 662.75 187.82 685.73 209.27
  C 695.06 217.99 704.03 227.99 707.75 239.76
  Q 709.74 246.08 712.35 257.68
  Q 721.64 299.01 724.97 343.25
  Q 725.85 354.98 725.84 364.06
  A 31.59 31.49 -37.9 0 1 724.86 371.86
  L 716.84 403.12
  A 2.85 2.84 52.0 0 0 716.76 403.79
  L 716.62 602.90
  A 2.66 2.65 -22.6 0 1 715.84 604.78
  L 555.70 762.20
  A 0.96 0.96 0.0 0 1 554.59 762.36
  L 551.34 760.62
  A 1.56 1.54 -74.2 0 1 550.53 759.14
  C 552.94 723.01 556.70 684.06 559.97 646.24
  Q 567.07 564.10 574.25 481.98
  C 574.41 480.24 574.23 477.62 574.72 476.16
  A 0.56 0.51 -5.2 0 1 574.99 475.86
  L 653.26 434.92
  A 1.40 1.39 80.5 0 0 654.00 433.87
  L 660.35 386.02
  A 0.48 0.47 80.6 0 0 659.67 385.53
  L 532.45 449.05
  A 0.56 0.55 -18.9 0 0 532.15 449.65
  L 551.69 554.94
  A 0.19 0.19 0.0 0 1 551.50 555.16
  L 472.45 555.16
  A 0.42 0.42 0.0 0 1 472.04 554.65
  Q 474.44 544.15 475.88 536.62
  Q 485.03 488.70 491.96 450.53
  A 1.49 1.49 0.0 0 0 491.16 448.93
  L 364.20 385.32
  A 0.21 0.21 0.0 0 0 363.90 385.53
  L 370.08 433.75
  A 1.37 1.36 -79.9 0 0 370.80 434.79
  L 449.14 476.08
  A 1.22 1.21 11.8 0 1 449.77 477.03
  L 474.18 759.68
  A 0.92 0.92 0.0 0 1 473.21 760.68
  Q 471.09 760.55 469.61 762.21
  A 0.66 0.65 -46.5 0 1 468.67 762.24
  L 308.45 605.05
  A 2.76 2.75 22.4 0 1 307.63 603.09
  L 307.67 403.06
  A 1.58 1.47 -54.3 0 0 307.62 402.67
  L 298.82 369.16
  A 12.85 12.79 -52.0 0 1 298.40 365.68
  Q 298.54 357.84 299.05 350.00
  Q 301.87 306.47 310.81 263.30
  Q 313.52 250.21 316.69 239.94
  Q 320.30 228.25 329.09 218.82
  C 341.75 205.25 354.32 194.32 370.91 181.43
  Q 410.53 150.67 457.06 120.70
  A 0.41 0.39 51.4 0 1 457.58 120.77
  L 459.11 122.46
  A 0.35 0.34 -37.4 0 1 459.04 122.98
  Q 448.86 129.57 416.87 151.62
  Q 392.68 168.29 369.57 186.56
  C 353.31 199.42 336.29 213.38 325.26 229.00
  Q 322.40 233.04 320.04 240.02
  Q 317.69 246.97 315.29 257.77
  Q 303.51 310.94 301.65 364.25
  Q 301.55 367.14 302.03 369.01
  Q 305.40 382.07 310.28 399.57
  A 16.41 16.40 -52.7 0 1 310.87 403.93
  L 310.70 589.79
  Z"
/>
<path d="
  M 709.56 545.77
  L 709.65 599.98
  A 2.66 2.66 0.0 0 1 708.86 601.87
  L 558.81 749.38
  A 0.25 0.25 0.0 0 1 558.40 749.28
  Q 558.31 748.99 558.35 748.52
  Q 563.73 684.48 580.86 487.83
  Q 581.04 485.83 581.66 480.50
  A 0.91 0.91 0.0 0 1 582.14 479.81
  L 659.83 439.18
  A 0.85 0.84 80.6 0 0 660.28 438.54
  L 668.84 374.07
  A 0.38 0.38 0.0 0 0 668.30 373.68
  L 524.73 445.36
  A 0.65 0.64 72.4 0 0 524.38 446.05
  L 543.23 547.62
  A 0.66 0.66 0.0 0 1 542.58 548.40
  L 481.16 548.40
  A 0.35 0.34 5.5 0 1 480.82 547.99
  L 499.80 446.58
  A 1.12 1.11 18.8 0 0 499.20 445.37
  L 355.73 373.48
  A 0.28 0.28 0.0 0 0 355.32 373.77
  L 363.55 438.07
  A 1.29 1.29 0.0 0 0 364.22 439.03
  L 442.55 480.32
  A 0.56 0.55 11.4 0 1 442.84 480.75
  L 466.02 749.20
  A 0.30 0.29 -70.4 0 1 465.52 749.44
  L 315.67 602.42
  A 3.54 3.53 -68.1 0 1 314.60 599.91
  L 314.51 590.78
  L 314.56 402.88
  A 10.90 10.70 -53.2 0 0 314.17 400.00
  Q 309.93 384.77 305.99 369.04
  C 305.47 366.98 305.50 365.27 305.59 363.02
  Q 307.64 312.47 318.53 261.51
  Q 321.23 248.89 324.63 239.12
  Q 327.18 231.82 333.51 224.74
  C 350.24 206.03 371.81 189.31 395.16 171.94
  Q 422.44 151.64 453.10 131.58
  Q 458.15 128.28 462.54 124.74
  A 0.63 0.63 0.0 0 1 463.57 125.18
  Q 475.24 266.16 489.00 410.77
  A 0.28 0.27 10.8 0 1 488.60 411.04
  L 339.81 335.49
  A 1.72 1.71 -55.6 0 0 337.76 335.88
  L 309.57 367.22
  A 0.84 0.82 -38.2 0 0 309.45 368.15
  Q 317.84 384.18 332.73 411.28
  C 342.04 428.24 351.49 446.57 358.70 460.69
  A 4.01 4.00 4.0 0 0 360.00 462.18
  L 415.93 501.09
  A 0.74 0.73 41.1 0 0 416.84 501.03
  L 437.55 482.24
  A 0.53 0.53 0.0 0 0 437.44 481.38
  L 361.12 441.15
  A 1.40 1.38 10.6 0 1 360.39 440.10
  L 351.26 368.82
  A 0.47 0.47 0.0 0 1 351.93 368.34
  C 402.29 392.63 459.36 421.75 500.57 442.42
  Q 501.77 443.02 503.21 444.06
  A 0.83 0.83 0.0 0 1 503.54 444.89
  L 484.86 544.69
  A 0.49 0.48 5.4 0 0 485.34 545.26
  L 538.80 545.26
  A 0.51 0.51 0.0 0 0 539.30 544.66
  L 520.75 444.70
  A 1.18 1.18 0.0 0 1 521.38 443.43
  L 672.86 367.80
  A 0.13 0.12 -8.8 0 1 673.04 367.93
  L 663.45 440.20
  A 1.59 1.58 -9.9 0 1 662.60 441.40
  L 586.69 481.11
  A 0.32 0.31 -37.6 0 0 586.62 481.62
  Q 595.25 489.40 606.35 499.74
  Q 608.05 501.33 609.68 500.21
  Q 627.67 487.77 659.65 464.90
  Q 663.58 462.09 665.24 460.53
  A 1.92 1.87 -7.4 0 0 665.62 460.05
  L 714.60 368.50
  A 1.70 1.70 0.0 0 0 714.36 366.55
  L 686.15 335.44
  A 0.84 0.84 0.0 0 0 685.15 335.26
  L 535.71 410.99
  A 0.39 0.39 0.0 0 1 535.14 410.60
  Q 539.56 361.88 539.58 361.72
  C 540.83 345.42 542.63 331.09 544.08 313.51
  Q 544.64 306.79 545.89 294.25
  Q 549.07 262.23 550.93 240.24
  Q 552.60 220.49 560.93 126.20
  A 1.01 1.00 19.2 0 1 562.49 125.45
  C 594.40 146.63 626.62 169.09 656.53 193.21
  Q 674.04 207.33 688.92 222.81
  Q 694.67 228.79 698.56 236.64
  Q 700.54 240.62 703.47 252.79
  Q 715.36 302.17 718.33 353.73
  Q 718.81 362.10 718.65 366.86
  A 8.72 8.64 53.3 0 1 718.39 368.71
  L 709.84 402.04
  A 7.12 6.98 52.6 0 0 709.63 403.75
  L 709.56 545.77
  Z"
/>
<path d="
  M 448.69 951.57
  A 0.89 0.88 81.1 0 1 448.01 951.07
  Q 412.08 871.52 411.48 870.14
  C 408.08 862.34 405.52 857.38 404.51 853.43
  A 0.65 0.64 -3.6 0 1 405.22 852.64
  L 406.63 852.80
  A 1.14 1.12 80.9 0 1 407.53 853.45
  L 451.81 951.45
  A 0.32 0.32 0.0 0 1 451.48 951.89
  L 448.69 951.57
  Z"
/>
<path d="
  M 143.06 852.75
  L 144.77 852.75
  A 0.67 0.66 14.7 0 1 145.35 853.74
  L 100.05 934.61
  A 0.24 0.24 0.0 0 1 99.63 934.61
  C 81.02 901.20 70.53 882.74 55.58 854.30
  A 0.95 0.95 0.0 0 1 56.42 852.91
  L 56.90 852.91
  A 1.93 1.90 75.3 0 1 58.57 853.90
  L 99.29 927.68
  A 0.52 0.52 0.0 0 0 100.20 927.68
  L 141.74 853.52
  A 1.52 1.50 14.4 0 1 143.06 852.75
  Z"
/>
<rect x="-1.60" y="-49.54" transform="translate(149.91,902.32) rotate(-0.1)" width="3.20" height="99.08" rx="0.63"/>
<path d="
  M 161.24 951.43
  L 206.31 853.55
  A 1.14 1.13 -80.5 0 1 207.21 852.90
  L 208.63 852.75
  A 0.65 0.64 4.0 0 1 209.33 853.55
  C 208.29 857.50 205.69 862.45 202.23 870.24
  Q 201.62 871.62 165.05 951.08
  A 0.89 0.88 -80.7 0 1 164.36 951.58
  L 161.57 951.88
  A 0.32 0.32 0.0 0 1 161.24 951.43
  Z"
/>
<path d="
  M 255.83 951.85
  A 0.89 0.88 81.1 0 1 255.15 951.35
  Q 219.20 871.72 218.61 870.34
  C 215.21 862.53 212.65 857.57 211.64 853.62
  A 0.65 0.64 -3.6 0 1 212.34 852.82
  L 213.76 852.98
  A 1.14 1.13 80.9 0 1 214.65 853.64
  L 258.95 951.73
  A 0.32 0.32 0.0 0 1 258.62 952.17
  L 255.83 951.85
  Z"
/>
<path d="
  M 358.01 951.33
  L 355.23 951.64
  A 0.32 0.32 0.0 0 1 354.90 951.19
  L 399.40 853.34
  A 1.14 1.12 -80.8 0 1 400.29 852.68
  L 401.71 852.53
  A 0.65 0.64 3.8 0 1 402.41 853.32
  C 401.39 857.27 398.82 862.22 395.41 870.01
  Q 394.80 871.39 358.70 950.83
  A 0.89 0.88 -80.9 0 1 358.01 951.33
  Z"
/>
<rect x="-1.55" y="-49.37" transform="translate(743.94,902.28) rotate(0.1)" width="3.10" height="98.74" rx="0.90"/>
<path d="
  M 747.17 852.91
  L 750.36 852.91
  A 0.34 0.34 0.0 0 1 750.63 853.04
  L 815.82 936.14
  A 0.34 0.34 0.0 0 0 816.43 935.93
  L 816.43 853.45
  A 0.34 0.34 0.0 0 1 816.77 853.11
  L 819.28 853.11
  A 0.34 0.34 0.0 0 1 819.62 853.45
  L 819.62 945.18
  A 0.34 0.34 0.0 0 1 819.01 945.39
  L 746.90 853.46
  A 0.34 0.34 0.0 0 1 747.17 852.91
  Z"
/>
<path d="
  M 884.80 903.27
  C 877.51 919.47 870.38 935.55 862.92 951.36
  A 1.27 1.23 -86.3 0 1 862.20 952.01
  Q 861.21 952.34 859.90 952.12
  A 0.53 0.52 17.3 0 1 859.51 951.39
  Q 879.27 907.78 881.96 901.82
  C 889.24 885.63 896.38 869.54 903.84 853.73
  A 1.27 1.23 -86.3 0 1 904.56 853.08
  Q 905.55 852.75 906.86 852.97
  A 0.53 0.52 17.3 0 1 907.25 853.71
  Q 887.48 897.31 884.80 903.27
  Z"
/>
<path d="
  M 953.58 951.54
  A 0.89 0.88 81.1 0 1 952.89 951.03
  Q 917.16 871.63 916.56 870.25
  C 913.18 862.47 910.64 857.52 909.63 853.58
  A 0.65 0.64 -3.5 0 1 910.34 852.79
  L 911.75 852.95
  A 1.13 1.12 81.0 0 1 912.64 853.60
  L 956.68 951.41
  A 0.32 0.32 0.0 0 1 956.35 951.86
  L 953.58 951.54
  Z"
/>
<rect x="48.76" y="852.90" width="3.14" height="98.54" rx="0.50"/>
<rect x="-1.51" y="-49.08" transform="translate(823.92,902.44) rotate(-0.1)" width="3.02" height="98.16" rx="0.79"/>
<rect x="-1.59" y="-49.06" transform="translate(967.30,902.49) rotate(0.1)" width="3.18" height="98.12" rx="0.37"/>
<rect x="971.50" y="853.37" width="3.34" height="98.24" rx="0.57"/>
<path d="
  M 314.20 910.22
  L 326.42 910.22
  A 1.30 1.28 -65.5 0 0 327.28 909.89
  L 343.68 895.42
  A 1.85 1.84 69.5 0 0 344.31 894.03
  L 344.31 875.69
  A 3.33 3.33 0.0 0 0 343.30 873.30
  L 326.96 857.26
  A 2.37 2.37 0.0 0 0 325.31 856.59
  L 271.01 856.59
  A 0.53 0.53 0.0 0 0 270.48 857.12
  L 270.48 951.43
  A 0.23 0.22 -0.0 0 1 270.25 951.65
  L 267.55 951.65
  A 0.22 0.22 0.0 0 1 267.33 951.43
  L 267.33 853.76
  A 0.27 0.27 0.0 0 1 267.60 853.49
  L 326.39 853.49
  A 2.68 2.67 -22.6 0 1 328.27 854.26
  L 346.65 872.29
  A 2.25 2.25 0.0 0 1 347.32 873.89
  L 347.32 895.96
  A 1.15 1.13 70.5 0 1 346.91 896.84
  Q 341.61 901.15 330.18 911.67
  Q 329.25 912.53 326.57 913.37
  A 1.46 1.40 -53.4 0 1 326.10 913.45
  L 319.87 913.45
  A 0.27 0.27 0.0 0 0 319.66 913.88
  L 349.02 951.30
  A 0.36 0.36 0.0 0 1 348.74 951.88
  L 346.02 951.88
  A 1.24 1.23 -19.0 0 1 345.05 951.41
  L 313.64 911.37
  A 0.71 0.71 0.0 0 1 314.20 910.22
  Z"
/>
<path d="
  M 538.75 857.14
  L 538.75 951.02
  A 0.58 0.57 90.0 0 1 538.18 951.60
  L 536.08 951.60
  A 0.47 0.47 0.0 0 1 535.61 951.13
  L 535.61 854.20
  A 0.65 0.64 -0.0 0 1 536.26 853.56
  L 594.07 853.56
  A 4.01 3.98 -22.7 0 1 596.86 854.69
  L 615.04 872.53
  A 1.26 1.25 22.7 0 1 615.41 873.42
  L 615.41 896.13
  A 1.04 1.02 -20.6 0 1 615.05 896.91
  L 595.38 913.65
  A 1.10 1.10 0.0 0 1 594.57 913.91
  L 588.31 913.33
  A 0.40 0.40 0.0 0 0 587.95 913.96
  L 615.62 951.53
  A 0.27 0.27 0.0 0 1 615.38 951.96
  L 613.08 951.74
  A 2.36 2.35 73.3 0 1 611.44 950.85
  Q 602.45 939.60 584.82 915.26
  C 583.62 913.61 582.02 912.25 581.41 910.56
  A 0.16 0.16 0.0 0 1 581.56 910.34
  L 594.41 910.34
  A 0.44 0.41 -63.5 0 0 594.68 910.24
  L 611.67 895.78
  A 1.44 1.44 0.0 0 0 612.17 894.69
  L 612.17 875.21
  A 2.32 2.29 22.5 0 0 611.48 873.57
  L 595.22 857.62
  A 3.50 3.50 0.0 0 0 592.77 856.62
  L 539.28 856.62
  A 0.53 0.52 0.0 0 0 538.75 857.14
  Z"
/>
<rect x="443.24" y="853.82" width="82.80" height="3.04" rx="0.40"/>
<path d="
  M 631.53 902.75
  Q 631.50 880.23 631.57 876.07
  A 1.38 1.37 69.0 0 1 632.01 875.08
  L 654.19 854.35
  A 1.99 1.97 23.1 0 1 655.55 853.81
  L 700.22 853.81
  A 3.96 3.95 -22.8 0 1 702.98 854.93
  L 724.12 875.68
  A 2.11 2.11 0.0 0 1 724.76 877.19
  Q 724.83 890.02 724.85 902.66
  Q 724.89 925.18 724.82 929.34
  A 1.38 1.37 69.0 0 1 724.38 930.33
  L 702.20 951.06
  A 1.99 1.97 23.1 0 1 700.84 951.60
  L 656.17 951.60
  A 3.96 3.95 -22.8 0 1 653.41 950.48
  L 632.27 929.73
  A 2.11 2.11 0.0 0 1 631.63 928.22
  Q 631.56 915.38 631.53 902.75
  Z"
/>
<path d="
  M 908.19 857.90
  Q 908.48 857.90 908.58 858.13
  Q 929.22 904.84 950.31 951.31
  A 0.49 0.49 0.0 0 1 949.87 952.00
  L 947.50 952.00
  A 0.98 0.97 -11.3 0 1 946.60 951.41
  L 933.78 922.14
  A 0.64 0.63 79.2 0 0 933.22 921.76
  Q 928.78 921.60 908.10 921.57
  Q 887.42 921.54 882.98 921.68
  A 0.64 0.63 -79.0 0 0 882.42 922.06
  L 869.51 951.29
  A 0.98 0.97 11.5 0 1 868.60 951.87
  L 866.23 951.86
  A 0.49 0.49 0.0 0 1 865.80 951.17
  Q 887.04 904.77 907.83 858.13
  Q 907.93 857.90 908.19 857.90
  Z"
/>
<path d="
  M 403.35 921.58
  Q 382.83 921.56 378.43 921.70
  A 0.63 0.63 0.0 0 0 377.87 922.07
  L 365.06 951.08
  A 0.97 0.96 11.5 0 1 364.17 951.66
  L 361.82 951.65
  A 0.49 0.48 -77.6 0 1 361.38 950.97
  Q 382.44 904.92 403.06 858.64
  Q 403.16 858.42 403.41 858.42
  Q 403.70 858.42 403.80 858.64
  Q 424.29 904.98 445.23 951.08
  A 0.49 0.48 77.8 0 1 444.79 951.76
  L 442.44 951.76
  A 0.97 0.96 -11.3 0 1 441.55 951.18
  L 428.82 922.14
  A 0.63 0.63 0.0 0 0 428.26 921.76
  Q 423.86 921.61 403.35 921.58
  Z"
/>
<path d="
  M 210.20 921.47
  Q 189.65 921.42 185.25 921.55
  A 0.63 0.63 0.0 0 0 184.69 921.93
  L 171.82 950.95
  A 0.98 0.96 11.6 0 1 170.92 951.53
  L 168.57 951.52
  A 0.49 0.48 -77.5 0 1 168.13 950.83
  Q 189.29 904.76 210.00 858.44
  Q 210.10 858.22 210.36 858.22
  Q 210.65 858.22 210.75 858.44
  Q 231.20 904.88 252.10 951.07
  A 0.49 0.48 77.9 0 1 251.66 951.76
  L 249.31 951.75
  A 0.98 0.96 -11.2 0 1 248.42 951.17
  L 235.71 922.07
  A 0.63 0.63 0.0 0 0 235.16 921.69
  Q 230.75 921.53 210.20 921.47
  Z"
/>
<path d="
  M 58.36 872.20
  A 0.40 0.39 16.4 0 0 57.75 872.53
  L 57.75 951.09
  A 0.55 0.55 0.0 0 1 57.20 951.64
  L 55.35 951.64
  A 0.75 0.75 0.0 0 1 54.60 950.89
  L 54.60 859.44
  A 0.25 0.24 24.3 0 1 55.03 859.28
  Q 55.40 859.70 55.90 860.61
  Q 69.99 886.47 75.61 896.68
  C 83.42 910.84 90.97 923.78 98.54 938.51
  Q 99.11 939.61 98.37 940.15
  A 1.46 1.43 -33.2 0 1 96.26 939.73
  Q 79.92 911.70 58.94 872.78
  Q 58.77 872.47 58.36 872.20
  Z"
/>
<path d="
  M 276.35 951.48
  A 0.26 0.25 -0.0 0 1 276.09 951.73
  L 273.29 951.73
  A 0.24 0.23 -0.0 0 1 273.05 951.50
  L 273.05 859.89
  A 0.63 0.63 0.0 0 1 273.68 859.26
  L 324.45 859.26
  A 2.71 2.71 0.0 0 1 326.41 860.10
  Q 332.91 866.93 340.57 874.12
  Q 341.76 875.23 341.65 878.80
  Q 341.40 887.08 341.76 893.56
  A 0.87 0.85 70.3 0 1 341.43 894.28
  Q 333.74 900.19 326.65 907.46
  A 1.16 1.15 22.0 0 1 325.82 907.81
  L 276.78 907.81
  A 0.53 0.53 0.0 0 0 276.25 908.34
  L 276.25 909.72
  A 0.61 0.61 0.0 0 0 276.86 910.33
  L 310.08 910.33
  A 0.91 0.91 0.0 0 1 310.84 910.74
  Q 317.47 920.75 327.65 933.35
  Q 334.42 941.73 340.91 950.77
  A 0.69 0.69 0.0 0 1 340.35 951.86
  L 339.17 951.86
  A 2.33 2.33 0.0 0 1 337.34 950.97
  L 308.16 913.77
  A 0.79 0.76 -18.1 0 0 307.54 913.47
  L 277.09 913.47
  A 0.75 0.74 90.0 0 0 276.35 914.22
  L 276.35 951.48
  Z"
/>
<path d="
  M 544.42 951.61
  L 541.81 951.61
  A 0.33 0.33 0.0 0 1 541.48 951.28
  L 541.48 859.66
  A 0.33 0.33 0.0 0 1 541.81 859.33
  L 592.78 859.33
  A 0.33 0.33 0.0 0 1 593.00 859.42
  L 609.55 874.79
  A 0.33 0.33 0.0 0 1 609.66 875.03
  L 609.66 893.58
  A 0.33 0.33 0.0 0 1 609.55 893.83
  L 594.19 907.75
  A 0.33 0.33 0.0 0 1 593.97 907.84
  L 544.77 907.84
  A 0.33 0.33 0.0 0 0 544.44 908.17
  L 544.44 910.01
  A 0.33 0.33 0.0 0 0 544.77 910.34
  L 577.98 910.34
  A 0.33 0.33 0.0 0 1 578.25 910.47
  L 608.23 951.18
  A 0.33 0.33 0.0 0 1 607.97 951.71
  L 604.72 951.71
  A 0.33 0.33 0.0 0 1 604.45 951.58
  L 576.48 913.60
  A 0.33 0.33 0.0 0 0 576.21 913.47
  L 545.08 913.47
  A 0.33 0.33 0.0 0 0 544.75 913.80
  L 544.75 951.28
  A 0.33 0.33 0.0 0 1 544.42 951.61
  Z"
/>
<path d="
  M 748.08 859.47
  A 0.18 0.18 0.0 0 1 748.40 859.36
  L 819.93 950.72
  A 0.50 0.50 0.0 0 1 819.56 951.53
  L 817.60 951.63
  A 1.60 1.56 -20.3 0 1 816.26 951.04
  L 751.95 869.13
  A 0.26 0.26 0.0 0 0 751.48 869.29
  L 751.18 950.69
  A 0.63 0.63 0.0 0 1 750.56 951.32
  L 748.77 951.32
  A 0.50 0.50 0.0 0 1 748.27 950.82
  L 748.08 859.47
  Z"
/>
<path d="
  M 443.23 862.40
  L 443.23 859.81
  A 0.34 0.34 0.0 0 1 443.57 859.47
  L 483.08 859.47
  A 0.34 0.34 0.0 0 1 483.42 859.81
  L 483.42 951.39
  A 0.34 0.34 0.0 0 1 483.08 951.73
  L 480.69 951.73
  A 0.34 0.34 0.0 0 1 480.35 951.39
  L 480.35 863.08
  A 0.34 0.34 0.0 0 0 480.01 862.74
  L 443.57 862.74
  A 0.34 0.34 0.0 0 1 443.23 862.40
  Z"
/>
<path d="
  M 489.17 863.34
  L 489.21 950.92
  A 0.66 0.65 -89.8 0 1 488.55 951.58
  L 486.97 951.56
  A 0.71 0.71 0.0 0 1 486.28 950.85
  L 485.95 860.13
  A 0.58 0.58 0.0 0 1 486.53 859.55
  L 525.80 859.44
  A 0.27 0.27 0.0 0 1 526.07 859.71
  L 526.01 862.46
  A 0.23 0.23 0.0 0 1 525.78 862.68
  L 489.67 862.83
  A 0.51 0.50 89.8 0 0 489.17 863.34
  Z"
/>
<path d="
  M 142.36 872.34
  A 0.48 0.47 59.8 0 0 141.47 872.10
  L 103.45 939.97
  A 1.42 1.41 69.2 0 1 100.88 938.81
  Q 101.54 936.88 102.30 935.55
  Q 129.51 887.16 144.41 860.42
  Q 144.57 860.14 145.11 859.90
  A 0.33 0.33 0.0 0 1 145.58 860.20
  L 145.58 951.29
  A 0.39 0.39 0.0 0 1 145.19 951.68
  L 142.88 951.68
  A 0.52 0.52 0.0 0 1 142.36 951.16
  L 142.36 872.34
  Z"
/>
<path d="
  M 851.1320 950.8818
  A 0.44 0.44 0.0 0 1 850.6904 951.3203
  L 839.0505 951.2797
  A 0.44 0.44 0.0 0 1 838.6120 950.8381
  L 838.6480 940.5182
  A 0.44 0.44 0.0 0 1 839.0896 940.0797
  L 850.7295 940.1203
  A 0.44 0.44 0.0 0 1 851.1680 940.5619
  L 851.1320 950.8818
  Z"
/>
</g>
<g fill="#dee2e9">
<path d="
  M 469.99 74.66
  L 554.25 74.66
  A 0.74 0.74 0.0 0 1 554.99 75.47
  L 525.17 378.84
  A 0.74 0.74 0.0 0 1 524.43 379.51
  L 499.45 379.51
  A 0.74 0.74 0.0 0 1 498.72 378.84
  L 469.25 75.47
  A 0.74 0.74 0.0 0 1 469.99 74.66
  Z"
/>
<path d="
  M 692.45 231.91
  A 0.11 0.11 0.0 0 1 692.31 232.08
  L 565.58 165.27
  A 0.31 0.31 0.0 0 0 565.13 165.52
  L 543.15 402.62
  A 1.65 1.63 -9.4 0 1 542.18 403.96
  L 540.19 404.83
  A 0.70 0.69 -9.1 0 1 539.22 404.13
  Q 539.92 396.71 542.02 373.25
  C 546.22 326.30 552.40 265.58 557.13 208.85
  Q 560.47 168.83 563.50 133.21
  Q 563.70 130.95 563.71 130.82
  A 0.33 0.33 0.0 0 1 564.22 130.58
  C 599.38 154.01 633.24 177.67 664.70 204.27
  Q 680.23 217.40 692.45 231.91
  Z"
/>
<path d="
  M 331.90 232.22
  Q 336.18 225.95 345.78 216.77
  C 363.61 199.70 383.16 184.48 403.81 169.56
  Q 431.83 149.31 460.20 130.51
  A 0.25 0.25 0.0 0 1 460.59 130.70
  Q 471.30 259.80 482.86 383.29
  Q 484.75 403.54 485.07 404.86
  A 0.30 0.29 5.1 0 1 484.66 405.20
  L 481.35 403.67
  A 1.09 1.08 9.6 0 1 480.72 402.79
  L 459.30 165.70
  A 0.15 0.15 0.0 0 0 459.08 165.58
  Q 420.07 185.74 348.44 223.17
  Q 335.04 230.17 332.04 232.35
  A 0.10 0.10 0.0 0 1 331.90 232.22
  Z"
/>
<path d="
  M 546.73 401.08
  L 568.08 170.82
  A 0.20 0.20 0.0 0 1 568.38 170.66
  Q 620.74 198.23 678.22 228.25
  C 683.28 230.89 688.77 234.24 693.68 236.84
  A 0.92 0.91 15.1 0 1 694.17 237.68
  Q 693.82 245.76 693.56 248.25
  Q 689.65 285.35 684.63 331.04
  A 1.48 1.48 0.0 0 1 683.82 332.20
  L 547.24 401.42
  A 0.35 0.35 0.0 0 1 546.73 401.08
  Z"
/>
<path d="
  M 476.78 401.30
  L 340.40 332.06
  A 0.95 0.95 0.0 0 1 339.89 331.33
  L 329.59 237.46
  A 0.93 0.93 0.0 0 1 330.09 236.53
  L 456.02 170.67
  A 0.41 0.40 74.0 0 1 456.61 171.00
  Q 458.68 195.56 471.02 333.00
  Q 474.06 366.82 477.58 400.75
  A 0.55 0.55 0.0 0 1 476.78 401.30
  Z"
/>
<path d="
  M 326.82 243.53
  L 336.44 331.20
  A 2.05 2.04 62.9 0 1 335.93 332.79
  L 308.92 362.82
  A 0.06 0.06 0.0 0 1 308.82 362.78
  Q 311.42 302.74 326.35 243.50
  A 0.24 0.24 0.0 0 1 326.82 243.53
  Z"
/>
<path d="
  M 697.30 244.19
  A 0.24 0.24 0.0 0 1 697.76 244.16
  Q 712.85 303.07 715.66 362.82
  A 0.06 0.06 0.0 0 1 715.56 362.86
  L 688.57 333.07
  A 2.04 2.03 -63.1 0 1 688.05 331.49
  L 697.30 244.19
  Z"
/>
<path d="
  M 711.79 381.63
  Q 711.88 381.71 711.92 381.86
  Q 711.92 381.88 711.92 381.90
  L 706.53 401.64
  A 4.12 4.10 -37.3 0 0 706.38 402.74
  L 706.38 597.99
  A 4.12 4.10 -22.4 0 1 705.15 600.92
  L 590.37 713.76
  A 0.11 0.11 0.0 0 1 590.18 713.67
  L 609.56 504.63
  A 0.91 0.91 0.0 0 1 609.96 503.96
  Q 635.31 486.50 667.21 463.69
  C 668.78 462.57 670.88 457.38 671.80 455.65
  Q 690.61 420.08 711.41 381.69
  A 0.25 0.24 -52.9 0 1 711.79 381.63
  Z"
/>
<path d="
  M 434.28 714.07
  A 0.08 0.08 0.0 0 1 434.15 714.13
  Q 428.01 707.91 398.81 679.43
  Q 352.48 634.24 319.73 601.52
  Q 317.90 599.70 317.87 597.76
  Q 317.75 589.36 317.71 495.34
  Q 317.69 456.30 317.76 406.25
  C 317.77 399.44 315.78 392.85 312.63 382.40
  A 0.20 0.20 0.0 0 1 312.75 382.16
  L 312.76 382.16
  A 0.26 0.25 64.5 0 1 313.09 382.28
  Q 317.99 391.91 324.99 404.27
  C 333.99 420.17 342.08 435.94 350.49 451.99
  Q 353.42 457.58 355.07 461.85
  A 4.77 4.74 7.1 0 0 356.77 464.02
  L 414.27 504.01
  A 1.51 1.49 -75.4 0 1 414.91 505.12
  L 434.28 714.07
  Z"
/>
<path d="
  M 562.73 740.87
  A 0.25 0.25 0.0 0 1 562.31 740.68
  L 584.51 484.81
  A 0.29 0.29 0.0 0 1 584.99 484.62
  L 605.33 503.52
  A 1.82 1.81 24.0 0 1 605.90 504.99
  Q 603.83 530.38 601.63 554.22
  Q 593.43 642.92 585.92 717.58
  A 1.57 1.57 0.0 0 1 585.47 718.52
  L 562.73 740.87
  Z"
/>
<path d="
  M 418.70 504.19
  L 439.19 485.02
  A 0.37 0.37 0.0 0 1 439.82 485.26
  L 461.84 740.36
  A 0.37 0.37 0.0 0 1 461.22 740.66
  L 437.96 717.84
  A 0.37 0.37 0.0 0 1 437.85 717.60
  L 418.59 504.49
  A 0.37 0.37 0.0 0 1 418.70 504.19
  Z"
/>
<path d="
  M 634.47 902.64
  Q 634.45 881.55 634.53 877.65
  A 1.29 1.29 0.0 0 1 634.94 876.72
  L 655.73 857.32
  A 1.86 1.84 23.1 0 1 657.00 856.81
  L 698.84 856.84
  A 3.71 3.70 -22.8 0 1 701.43 857.89
  L 721.22 877.34
  A 1.98 1.98 0.0 0 1 721.82 878.76
  Q 721.88 890.78 721.88 902.61
  Q 721.91 923.71 721.84 927.61
  A 1.29 1.29 0.0 0 1 721.42 928.53
  L 700.64 947.94
  A 1.86 1.84 23.1 0 1 699.36 948.44
  L 657.52 948.41
  A 3.71 3.70 -22.8 0 1 654.94 947.36
  L 635.15 927.91
  A 1.98 1.98 0.0 0 1 634.55 926.50
  Q 634.49 914.47 634.47 902.64
  Z"
/>
<path d="
  M 277.03 904.49
  A 0.73 0.73 0.0 0 1 276.30 903.76
  L 276.43 863.00
  A 0.51 0.51 0.0 0 1 276.95 862.49
  Q 293.30 862.72 321.65 862.46
  Q 323.69 862.44 325.14 863.80
  Q 332.17 870.38 337.61 875.73
  A 2.93 2.92 22.6 0 1 338.47 877.82
  L 338.43 891.65
  A 1.77 1.75 69.3 0 1 337.85 892.95
  L 325.92 903.69
  A 3.69 3.66 23.8 0 1 323.44 904.64
  L 277.03 904.49
  Z"
/>
<path d="
  M 544.58 903.82
  L 544.58 863.11
  A 0.51 0.51 0.0 0 1 545.09 862.60
  Q 561.42 862.78 589.74 862.42
  Q 591.78 862.40 593.23 863.75
  Q 600.27 870.30 605.72 875.63
  A 2.93 2.92 22.4 0 1 606.59 877.71
  L 606.59 891.52
  A 1.77 1.74 69.1 0 1 606.02 892.82
  L 594.14 903.59
  A 3.69 3.66 23.6 0 1 591.66 904.55
  L 545.31 904.55
  A 0.73 0.73 0.0 0 1 544.58 903.82
  Z"
/>
<path d="
  M 189.42 912.04
  L 210.07 866.09
  A 0.34 0.34 0.0 0 1 210.69 866.09
  L 231.01 912.19
  A 0.34 0.34 0.0 0 1 230.70 912.66
  L 189.73 912.52
  A 0.34 0.34 0.0 0 1 189.42 912.04
  Z"
/>
<path d="
  M 908.71 866.08
  L 928.86 912.13
  A 0.31 0.31 0.0 0 1 928.58 912.56
  L 887.22 912.56
  A 0.31 0.31 0.0 0 1 886.94 912.12
  L 908.14 866.08
  A 0.31 0.31 0.0 0 1 908.71 866.08
  Z"
/>
<path d="
  M 382.67 912.13
  L 403.07 866.31
  A 0.32 0.32 0.0 0 1 403.66 866.31
  L 423.89 912.20
  A 0.32 0.32 0.0 0 1 423.60 912.65
  L 382.96 912.58
  A 0.32 0.32 0.0 0 1 382.67 912.13
  Z"
/>
<rect x="884.65" y="915.79" width="46.98" height="2.54" rx="0.31"/>
<path d="
  M 210.23 915.80
  Q 225.86 915.77 232.66 915.83
  A 0.61 0.61 0.0 0 1 233.03 915.97
  Q 233.83 916.65 234.04 917.49
  A 0.57 0.57 0.0 0 1 233.56 918.20
  Q 232.93 918.28 210.24 918.32
  Q 187.55 918.36 186.92 918.28
  A 0.57 0.57 0.0 0 1 186.43 917.57
  Q 186.64 916.73 187.44 916.04
  A 0.61 0.61 0.0 0 1 187.80 915.91
  Q 194.61 915.82 210.23 915.80
  Z"
/>
<path d="
  M 379.73 918.47
  A 0.17 0.17 0.0 0 1 379.56 918.30
  L 379.56 918.23
  A 2.28 2.18 -0.2 0 1 381.84 916.04
  L 424.52 915.90
  A 2.28 2.18 -0.2 0 1 426.80 918.07
  L 426.80 918.14
  A 0.17 0.17 0.0 0 1 426.63 918.31
  L 379.73 918.47
  Z"
/>
<rect x="-3.19" y="-2.53" transform="translate(845.03,945.67) rotate(0.2)" width="6.38" height="5.06" rx="0.48"/>
</g>
<g fill="#1d1f24">
<path d="
  M 474.05 78.15
  L 550.17 78.15
  A 0.67 0.67 0.0 0 1 550.84 78.89
  L 521.66 375.63
  A 0.67 0.67 0.0 0 1 520.99 376.23
  L 502.88 376.23
  A 0.67 0.67 0.0 0 1 502.21 375.62
  L 473.38 78.88
  A 0.67 0.67 0.0 0 1 474.05 78.15
  Z"
/>
<path d="
  M 693.23 577.82
  L 656.37 612.29
  A 0.57 0.57 0.0 0 1 655.41 611.88
  L 655.41 590.10
  A 0.57 0.57 0.0 0 1 655.58 589.69
  L 675.83 569.79
  A 0.57 0.57 0.0 0 0 676.00 569.38
  L 676.00 523.10
  A 0.57 0.57 0.0 0 1 676.83 522.59
  L 693.10 530.74
  A 0.57 0.57 0.0 0 1 693.41 531.25
  L 693.41 577.40
  A 0.57 0.57 0.0 0 1 693.23 577.82
  Z"
/>
<path d="
  M 348.19 522.60
  A 0.33 0.32 -13.1 0 1 348.65 522.89
  L 348.49 568.09
  A 4.01 4.00 -68.0 0 0 349.71 570.97
  L 368.72 589.31
  A 1.63 1.62 22.1 0 1 369.22 590.48
  L 369.00 612.39
  A 0.30 0.30 0.0 0 1 368.50 612.61
  L 332.25 578.71
  A 3.58 3.57 -68.6 0 1 331.11 576.10
  L 331.23 531.44
  A 0.95 0.95 0.0 0 1 331.76 530.59
  L 348.19 522.60
  Z"
/>
<path d="
  M 657.52 859.43
  L 698.84 859.43
  A 1.35 1.35 0.0 0 1 699.78 859.82
  L 718.63 878.30
  A 1.35 1.35 0.0 0 1 719.03 879.27
  L 719.03 926.43
  A 1.35 1.35 0.0 0 1 718.63 927.40
  L 700.44 945.28
  A 1.35 1.35 0.0 0 1 699.50 945.67
  L 657.61 945.67
  A 1.35 1.35 0.0 0 1 656.67 945.28
  L 637.42 926.41
  A 1.35 1.35 0.0 0 1 637.02 925.44
  L 637.02 878.69
  A 1.35 1.35 0.0 0 1 637.45 877.70
  L 656.60 859.79
  A 1.35 1.35 0.0 0 1 657.52 859.43
  Z"
/>
</g>
<g fill="#dee2e9">
<path d="
  M 518.17 373.13
  L 505.82 373.13
  A 0.48 0.48 0.0 0 1 505.34 372.70
  L 477.09 81.94
  A 0.48 0.48 0.0 0 1 477.57 81.41
  L 546.76 81.41
  A 0.48 0.48 0.0 0 1 547.24 81.94
  L 518.65 372.70
  A 0.48 0.48 0.0 0 1 518.17 373.13
  Z"
/>
<path d="
  M 658.86 604.46
  L 658.77 591.90
  A 1.80 1.80 0.0 0 1 659.32 590.58
  L 677.99 572.49
  A 4.28 4.27 -22.2 0 0 679.28 569.43
  L 679.34 528.19
  A 0.31 0.31 0.0 0 1 679.78 527.91
  L 689.47 532.57
  A 1.31 1.31 0.0 0 1 690.21 533.75
  L 690.22 574.88
  A 3.05 3.03 68.7 0 1 689.25 577.11
  L 659.48 604.73
  A 0.37 0.37 0.0 0 1 658.86 604.46
  Z"
/>
<path d="
  M 334.46 576.21
  L 334.46 533.38
  A 0.36 0.36 0.0 0 1 334.66 533.06
  L 344.85 527.97
  A 0.36 0.36 0.0 0 1 345.37 528.29
  L 345.37 571.10
  A 0.36 0.36 0.0 0 0 345.48 571.36
  L 365.75 591.24
  A 0.36 0.36 0.0 0 1 365.86 591.50
  L 365.86 604.71
  A 0.36 0.36 0.0 0 1 365.25 604.98
  L 334.57 576.48
  A 0.36 0.36 0.0 0 1 334.46 576.21
  Z"
/>
<path d="
  M 715.91 902.50
  Q 715.92 911.00 715.84 925.40
  A 1.31 1.29 69.1 0 1 715.43 926.35
  L 698.83 941.87
  A 2.73 2.70 23.0 0 1 697.00 942.60
  Q 681.69 942.65 661.25 942.54
  C 659.04 942.53 658.29 942.47 656.74 940.99
  Q 646.06 930.79 641.23 926.06
  A 2.83 2.82 -68.2 0 1 640.38 924.06
  Q 640.37 923.25 640.34 902.76
  Q 640.33 894.26 640.41 879.86
  A 1.31 1.29 69.1 0 1 640.82 878.91
  L 657.42 863.39
  A 2.73 2.70 23.0 0 1 659.25 862.66
  Q 674.56 862.61 695.00 862.72
  C 697.21 862.73 697.96 862.79 699.51 864.27
  Q 710.19 874.47 715.02 879.20
  A 2.83 2.82 -68.2 0 1 715.87 881.20
  Q 715.88 882.01 715.91 902.50
  Z"
/>
</g>
</svg>
